<?xml version="1.0" encoding="UTF-8"?>
<svg id="_图层_2" data-name="图层_2" xmlns="http://www.w3.org/2000/svg" viewBox="0 0 112.91 415.88">
  <defs>
    <style>
      .cls-1 {
        fill: none;
      }

      .cls-1, .cls-2 {
        stroke: #000;
        stroke-miterlimit: 10;
      }

      .cls-2 {
        fill: #fff;
      }

      .cls-3 {
        font-family: CalistoMT, 'Calisto MT';
        font-size: 12px;
      }
    </style>
  </defs>
  <g id="_图层_1-2" data-name="图层_1">
    <g>
      <path class="cls-2" d="M56.93,13.43v380.38h-23.42V13.43c1.11-2.05,3.58-5.97,8.29-9.01C48.19.29,54.63.41,56.89.55"/>
      <line class="cls-1" x1="33.51" y1="393.81" x2="33.51" y2="410.27"/>
      <line class="cls-1" x1="56.93" y1="393.81" x2="56.93" y2="410.27"/>
      <line class="cls-1" x1="33.51" y1="393.81" x2="16.38" y2="393.81"/>
      <line class="cls-1" x1="33.51" y1="13.43" x2="16.38" y2="13.43"/>
      <g>
        <line class="cls-1" x1="24.94" y1="17.67" x2="24.94" y2="389.57"/>
        <polygon points="24.94 13.43 22.5 19.4 24.94 17.98 27.38 19.4 24.94 13.43"/>
        <polygon points="24.94 393.81 22.5 387.84 24.94 389.26 27.38 387.84 24.94 393.81"/>
      </g>
      <g>
        <line class="cls-1" x1="37.74" y1="402.04" x2="52.69" y2="402.04"/>
        <polygon points="33.51 402.04 39.48 404.48 38.06 402.04 39.48 399.6 33.51 402.04"/>
        <polygon points="56.93 402.04 50.96 404.48 52.37 402.04 50.96 399.6 56.93 402.04"/>
      </g>
      <g>
        <path class="cls-1" d="M46.21,161.85c2.89-4.28,7.69-10.03,14.86-14.04,7.75-4.34,14.75-4.68,18.53-4.52"/>
        <polygon points="43.99 165.46 49.23 161.69 46.41 161.6 45.09 159.1 43.99 165.46"/>
      </g>
      <text class="cls-3" transform="translate(83.14 143.92)"><tspan x="0" y="0">dA(x)</tspan></text>
      <text class="cls-3" transform="translate(37.83 413.29)"><tspan x="0" y="0">dx</tspan></text>
      <text class="cls-3" transform="translate(0 208.83)"><tspan x="0" y="0">y(x)</tspan></text>
      <line class="cls-1" x1="56.93" y1="13.43" x2="56.89" y2=".55"/>
    </g>
  </g>
</svg>