<svg version="1.1" xmlns="http://www.w3.org/2000/svg" xmlns:xlink="http://www.w3.org/1999/xlink" width="800" height="800"><defs/><g transform="scale(2,2)"><g id="background-28d6fb11"><rect fill="white" stroke="none" x="0" y="0" width="400" height="400" class="dcg-svg-background"/></g><g id="background-images-28d6fb11"/><g id="graphpaper-28d6fb11"><g id="axis-28d6fb11"><g id="yaxis-28d6fb11"><title>v</title><g><path fill="none" stroke="rgb(0,0,0)" class="dcg-svg-axis-line" paint-order="fill stroke markers" d=" M 50 3 L 50 400" stroke-opacity="0.9" stroke-miterlimit="10" stroke-width="1.5" stroke-dasharray=""/><g class="dcg-svg-axis-line"><path fill="rgb(0,0,0)" stroke="rgb(0,0,0)" class="dcg-svg-axis-line" paint-order="stroke fill markers" d=" M 50 1.5 L 53.10582854123025 13.09110991546882 L 46.894171458769755 13.09110991546882 L 50 1.5 L 53.10582854123025 13.09110991546882" stroke-opacity="0.9" stroke-linejoin="round" stroke-miterlimit="10" stroke-width="1.5" stroke-dasharray="" fill-opacity="0.9"/></g></g></g><g id="xaxis-28d6fb11"><title>t</title><g><path fill="none" stroke="rgb(0,0,0)" class="dcg-svg-axis-line" paint-order="fill stroke markers" d=" M 0 350 L 397 350" stroke-opacity="0.9" stroke-miterlimit="10" stroke-width="1.5" stroke-dasharray=""/><g class="dcg-svg-axis-line"><path fill="rgb(0,0,0)" stroke="rgb(0,0,0)" class="dcg-svg-axis-line" paint-order="stroke fill markers" d=" M 398.5 350 L 386.9088900845312 353.10582854123027 L 386.9088900845312 346.89417145876973 L 398.5 350 L 386.9088900845312 353.10582854123027" stroke-opacity="0.9" stroke-linejoin="round" stroke-miterlimit="10" stroke-width="1.5" stroke-dasharray="" fill-opacity="0.9"/></g></g></g><g><g><path fill="none" stroke="rgb(0,0,0)" class="dcg-svg-tickmark" paint-order="fill stroke markers" d="" stroke-opacity="0.9" stroke-miterlimit="2" stroke-width="1.5" stroke-dasharray=""/></g></g><g class="dcg-svg-axis-label"><text fill="none" stroke="#ffffff" font-family="Times" font-size="20px" font-style="italic" font-weight="normal" text-decoration="normal" x="379.443359375" y="365" text-anchor="start" stroke-miterlimit="2" stroke-width="3" stroke-dasharray="">t</text><text fill="#000000" stroke="none" font-family="Times" font-size="20px" font-style="italic" font-weight="normal" text-decoration="normal" x="379.443359375" y="365" text-anchor="start">t</text></g><g class="dcg-svg-axis-label" transform="translate(35.123046875,29)"><text fill="none" stroke="#ffffff" font-family="Times" font-size="20px" font-style="italic" font-weight="normal" text-decoration="normal" x="0" y="0" text-anchor="start" stroke-miterlimit="2" stroke-width="3" stroke-dasharray="">v</text><text fill="#000000" stroke="none" font-family="Times" font-size="20px" font-style="italic" font-weight="normal" text-decoration="normal" x="0" y="0" text-anchor="start">v</text></g></g></g><g id="expressions-28d6fb11"><g id="sketch-28d6fb11"><title>Expression 1</title><path fill="#c74440" stroke="none" paint-order="stroke fill markers" d="" fill-opacity="0.4"/><g><path fill="none" stroke="#c74440" class="dcg-svg-curve" paint-order="fill stroke markers" d=" M 50 350 L 50 350 L 350 50" stroke-linecap="round" stroke-linejoin="round" stroke-miterlimit="10" stroke-width="1.5" stroke-dasharray=""/></g></g><g id="sketch-28d6fb11"><title>Expression 2</title><path fill="#c74440" stroke="none" paint-order="stroke fill markers" d="" fill-opacity="0.4"/><g><path fill="none" stroke="#c74440" class="dcg-svg-curve" paint-order="fill stroke markers" d=" M 50 350 L 50 350 L 300 350" stroke-linecap="round" stroke-linejoin="round" stroke-miterlimit="10" stroke-width="1.5" stroke-dasharray=""/></g><path fill="#c74440" stroke="none" paint-order="stroke fill markers" d="" fill-opacity="0.4"/><g><path fill="none" stroke="#c74440" class="dcg-svg-curve" paint-order="fill stroke markers" d=" M 50 350 L 50 350 L 300 100" stroke-linecap="round" stroke-linejoin="round" stroke-miterlimit="10" stroke-width="1.5" stroke-dasharray=""/></g><path fill="#c74440" stroke="none" class="dcg-svg-region" paint-order="stroke fill markers" d=" M 50 350 L 300 350 L 300 100 L 50 350 L 50 350" fill-opacity="0.4"/></g><g id="sketch-28d6fb11"><title>Expression 3</title><path fill="#c74440" stroke="none" paint-order="stroke fill markers" d="" fill-opacity="0.4"/><g><path fill="none" stroke="#c74440" class="dcg-svg-curve" paint-order="fill stroke markers" d=" M 300 350 L 300 343.4 M 300 339.2 L 300 332.59999999999997 M 300 328.4 L 300 321.79999999999995 M 300 317.59999999999997 L 300 310.99999999999994 M 300 306.79999999999995 L 300 300.19999999999993 M 300 295.99999999999994 L 300 289.4 M 300 285.2 L 300 278.59999999999997 M 300 274.4 L 300 267.79999999999995 M 300 263.59999999999997 L 300 257 M 300 252.8 L 300 246.20000000000002 M 300 242.00000000000003 L 300 235.40000000000003 M 300 231.20000000000005 L 300 224.60000000000005 M 300 220.40000000000006 L 300 213.80000000000007 M 300 209.60000000000008 L 300 203.00000000000009 M 300 198.8000000000001 L 300 192.2000000000001 M 300 188.0000000000001 L 300 181.40000000000012 M 300 177.20000000000013 L 300 170.60000000000014 M 300 166.40000000000015 L 300 159.80000000000015 M 300 155.60000000000016 L 300 149.00000000000017 M 300 144.80000000000018 L 300 138.2000000000002 M 300 134.0000000000002 L 300 127.4000000000002 M 300 123.2000000000002 L 300 116.60000000000021 M 300 112.4000000000002 L 300 105.80000000000021 M 300 101.60000000000022 L 300 100" stroke-linecap="round" stroke-linejoin="round" stroke-miterlimit="10" stroke-width="1.5" stroke-dasharray=""/></g></g><g id="sketch-28d6fb11"><title>x(t)</title></g><g id="sketch-28d6fb11"><title>v(t)</title></g></g><g id="labels-28d6fb11"><g transform="rotate(0,0,0) translate(220,274)"><g class="dcg-svg-label"><g transform="translate(-22.2421875,-18)"><g><text fill="none" stroke="#FFF" font-family="arial, sans-serif" font-size="30.8px" font-style="normal" font-weight="400" text-decoration="normal" x="0" y="27.9776" text-anchor="start" stroke-linecap="round" stroke-linejoin="round" stroke-miterlimit="2" stroke-width="3" stroke-dasharray="">x(t)</text></g></g><g transform="translate(-22.2421875,-18)"><g><text fill="rgb(199, 68, 64)" stroke="none" font-family="arial, sans-serif" font-size="30.8px" font-style="normal" font-weight="400" text-decoration="normal" x="0" y="27.9776" text-anchor="start">x(t)</text></g></g></g></g><g transform="rotate(0,0,0) translate(354.3,45.60000000000002)"><g class="dcg-svg-label"><g transform="translate(-11.425000000000011,-8.600000000000023)"><g><text fill="none" stroke="#FFF" font-family="arial, sans-serif" font-size="15.4px" font-style="normal" font-weight="400" text-decoration="normal" x="0" y="13.4888" text-anchor="start" stroke-linecap="round" stroke-linejoin="round" stroke-miterlimit="2" stroke-width="3" stroke-dasharray="">v(t)</text></g></g><g transform="translate(-11.425000000000011,-8.600000000000023)"><g><text fill="rgb(199, 68, 64)" stroke="none" font-family="arial, sans-serif" font-size="15.4px" font-style="normal" font-weight="400" text-decoration="normal" x="0" y="13.4888" text-anchor="start">v(t)</text></g></g></g></g></g></g></svg>