<svg version="1.1" xmlns="http://www.w3.org/2000/svg" xmlns:xlink="http://www.w3.org/1999/xlink" width="800" height="800"><defs/><g transform="scale(2,2)"><g id="background-8f43bb9d"><rect fill="white" stroke="none" x="0" y="0" width="400" height="400" class="dcg-svg-background"/></g><g id="background-images-8f43bb9d"/><g id="graphpaper-8f43bb9d"><g id="axis-8f43bb9d"><g id="yaxis-8f43bb9d"><title>y</title><g><path fill="none" stroke="rgb(0,0,0)" class="dcg-svg-axis-line" paint-order="fill stroke markers" d=" M 33 3 L 33 400" stroke-opacity="0.9" stroke-miterlimit="10" stroke-width="1.5" stroke-dasharray=""/><g class="dcg-svg-axis-line"><path fill="rgb(0,0,0)" stroke="rgb(0,0,0)" class="dcg-svg-axis-line" paint-order="stroke fill markers" d=" M 33 1.5 L 36.10582854123025 13.09110991546882 L 29.89417145876975 13.09110991546882 L 33 1.5 L 36.10582854123025 13.09110991546882" stroke-opacity="0.9" stroke-linejoin="round" stroke-miterlimit="10" stroke-width="1.5" stroke-dasharray="" fill-opacity="0.9"/></g></g></g><g id="xaxis-8f43bb9d"><title>x</title><g><path fill="none" stroke="rgb(0,0,0)" class="dcg-svg-axis-line" paint-order="fill stroke markers" d=" M 0 367 L 397 367" stroke-opacity="0.9" stroke-miterlimit="10" stroke-width="1.5" stroke-dasharray=""/><g class="dcg-svg-axis-line"><path fill="rgb(0,0,0)" stroke="rgb(0,0,0)" class="dcg-svg-axis-line" paint-order="stroke fill markers" d=" M 398.5 367 L 386.9088900845312 370.10582854123027 L 386.9088900845312 363.89417145876973 L 398.5 367 L 386.9088900845312 370.10582854123027" stroke-opacity="0.9" stroke-linejoin="round" stroke-miterlimit="10" stroke-width="1.5" stroke-dasharray="" fill-opacity="0.9"/></g></g></g><g><g class="dcg-svg-axis-value"><text fill="none" stroke="#ffffff" font-family="Arial" font-size="14px" font-style="normal" font-weight="normal" text-decoration="normal" x="24.440266927083314" y="382.4746666666667" text-anchor="middle" stroke-miterlimit="2" stroke-width="3" stroke-dasharray="">0</text><text fill="#000000" stroke="none" font-family="Arial" font-size="14px" font-style="normal" font-weight="normal" text-decoration="normal" x="24.440266927083314" y="382.4746666666667" text-anchor="middle">0</text></g><g><path fill="none" stroke="rgb(0,0,0)" class="dcg-svg-tickmark" paint-order="fill stroke markers" d=" M 100 364 L 100 370 M 167 364 L 167 370 M 233 364 L 233 370 M 300 364 L 300 370 M 367 364 L 367 370 M 30 300 L 36 300 M 30 233 L 36 233 M 30 167 L 36 167 M 30 100 L 36 100 M 30 33 L 36 33" stroke-opacity="0.9" stroke-miterlimit="2" stroke-width="1.5" stroke-dasharray=""/></g><g class="dcg-svg-axis-value"><text fill="none" stroke="#ffffff" font-family="Arial" font-size="14px" font-style="normal" font-weight="normal" text-decoration="normal" x="99.99999999999999" y="382.4746666666667" text-anchor="middle" stroke-miterlimit="2" stroke-width="3" stroke-dasharray="">1</text><text fill="#000000" stroke="none" font-family="Arial" font-size="14px" font-style="normal" font-weight="normal" text-decoration="normal" x="99.99999999999999" y="382.4746666666667" text-anchor="middle">1</text></g><g class="dcg-svg-axis-value"><text fill="none" stroke="#ffffff" font-family="Arial" font-size="14px" font-style="normal" font-weight="normal" text-decoration="normal" x="166.66666666666666" y="382.4746666666667" text-anchor="middle" stroke-miterlimit="2" stroke-width="3" stroke-dasharray="">2</text><text fill="#000000" stroke="none" font-family="Arial" font-size="14px" font-style="normal" font-weight="normal" text-decoration="normal" x="166.66666666666666" y="382.4746666666667" text-anchor="middle">2</text></g><g class="dcg-svg-axis-value"><text fill="none" stroke="#ffffff" font-family="Arial" font-size="14px" font-style="normal" font-weight="normal" text-decoration="normal" x="233.33333333333331" y="382.4746666666667" text-anchor="middle" stroke-miterlimit="2" stroke-width="3" stroke-dasharray="">3</text><text fill="#000000" stroke="none" font-family="Arial" font-size="14px" font-style="normal" font-weight="normal" text-decoration="normal" x="233.33333333333331" y="382.4746666666667" text-anchor="middle">3</text></g><g class="dcg-svg-axis-value"><text fill="none" stroke="#ffffff" font-family="Arial" font-size="14px" font-style="normal" font-weight="normal" text-decoration="normal" x="300" y="382.4746666666667" text-anchor="middle" stroke-miterlimit="2" stroke-width="3" stroke-dasharray="">4</text><text fill="#000000" stroke="none" font-family="Arial" font-size="14px" font-style="normal" font-weight="normal" text-decoration="normal" x="300" y="382.4746666666667" text-anchor="middle">4</text></g><g class="dcg-svg-axis-value"><text fill="none" stroke="#ffffff" font-family="Arial" font-size="14px" font-style="normal" font-weight="normal" text-decoration="normal" x="366.6666666666667" y="382.4746666666667" text-anchor="middle" stroke-miterlimit="2" stroke-width="3" stroke-dasharray="">5</text><text fill="#000000" stroke="none" font-family="Arial" font-size="14px" font-style="normal" font-weight="normal" text-decoration="normal" x="366.6666666666667" y="382.4746666666667" text-anchor="middle">5</text></g><g class="dcg-svg-axis-value"><text fill="none" stroke="#ffffff" font-family="Arial" font-size="14px" font-style="normal" font-weight="normal" text-decoration="normal" x="24.440266927083314" y="303.808" text-anchor="middle" stroke-miterlimit="2" stroke-width="3" stroke-dasharray="">1</text><text fill="#000000" stroke="none" font-family="Arial" font-size="14px" font-style="normal" font-weight="normal" text-decoration="normal" x="24.440266927083314" y="303.808" text-anchor="middle">1</text></g><g class="dcg-svg-axis-value"><text fill="none" stroke="#ffffff" font-family="Arial" font-size="14px" font-style="normal" font-weight="normal" text-decoration="normal" x="24.440266927083314" y="237.14133333333334" text-anchor="middle" stroke-miterlimit="2" stroke-width="3" stroke-dasharray="">2</text><text fill="#000000" stroke="none" font-family="Arial" font-size="14px" font-style="normal" font-weight="normal" text-decoration="normal" x="24.440266927083314" y="237.14133333333334" text-anchor="middle">2</text></g><g class="dcg-svg-axis-value"><text fill="none" stroke="#ffffff" font-family="Arial" font-size="14px" font-style="normal" font-weight="normal" text-decoration="normal" x="24.440266927083314" y="170.47466666666668" text-anchor="middle" stroke-miterlimit="2" stroke-width="3" stroke-dasharray="">3</text><text fill="#000000" stroke="none" font-family="Arial" font-size="14px" font-style="normal" font-weight="normal" text-decoration="normal" x="24.440266927083314" y="170.47466666666668" text-anchor="middle">3</text></g><g class="dcg-svg-axis-value"><text fill="none" stroke="#ffffff" font-family="Arial" font-size="14px" font-style="normal" font-weight="normal" text-decoration="normal" x="24.440266927083314" y="103.808" text-anchor="middle" stroke-miterlimit="2" stroke-width="3" stroke-dasharray="">4</text><text fill="#000000" stroke="none" font-family="Arial" font-size="14px" font-style="normal" font-weight="normal" text-decoration="normal" x="24.440266927083314" y="103.808" text-anchor="middle">4</text></g><g class="dcg-svg-axis-value"><text fill="none" stroke="#ffffff" font-family="Arial" font-size="14px" font-style="normal" font-weight="normal" text-decoration="normal" x="24.440266927083314" y="37.141333333333314" text-anchor="middle" stroke-miterlimit="2" stroke-width="3" stroke-dasharray="">5</text><text fill="#000000" stroke="none" font-family="Arial" font-size="14px" font-style="normal" font-weight="normal" text-decoration="normal" x="24.440266927083314" y="37.141333333333314" text-anchor="middle">5</text></g></g><g class="dcg-svg-axis-label"><text fill="none" stroke="#ffffff" font-family="Times" font-size="20px" font-style="italic" font-weight="normal" text-decoration="normal" x="376.123046875" y="399.6666666666667" text-anchor="start" stroke-miterlimit="2" stroke-width="3" stroke-dasharray="">x</text><text fill="#000000" stroke="none" font-family="Times" font-size="20px" font-style="italic" font-weight="normal" text-decoration="normal" x="376.123046875" y="399.6666666666667" text-anchor="start">x</text></g><g class="dcg-svg-axis-label" transform="translate(6.670247395833314,29)"><text fill="none" stroke="#ffffff" font-family="Times" font-size="20px" font-style="italic" font-weight="normal" text-decoration="normal" x="0" y="0" text-anchor="start" stroke-miterlimit="2" stroke-width="3" stroke-dasharray="">y</text><text fill="#000000" stroke="none" font-family="Times" font-size="20px" font-style="italic" font-weight="normal" text-decoration="normal" x="0" y="0" text-anchor="start">y</text></g></g></g><g id="expressions-8f43bb9d"><g id="sketch-8f43bb9d"><title>Expression 1</title><path fill="#000000" stroke="none" paint-order="stroke fill markers" d="" fill-opacity="0.4"/><g><path fill="none" stroke="#000000" class="dcg-svg-curve" paint-order="fill stroke markers" d=" M 33.333333333333314 366.6666666666667 L 33.333333333333314 366.6666666666667 L 36.26276076342652 366.53794349064395 L 39.19218819351973 366.15177396257576 L 42.12161562361294 365.50815808246205 L 45.148690634709254 364.572626644279 L 48.175765645805576 363.3621997124119 L 51.300488237905 361.8243868361936 L 54.522858411007526 359.93172707140593 L 57.745228584110066 357.72755722064323 L 61.0652463382157 355.1307816830112 L 64.58055925432755 352.02082975030186 L 68.19351975144251 348.43817771008685 L 71.90412782956057 344.35107384561377 L 75.81003106968485 339.6026189078861 L 79.91122947181535 334.1241605363584 L 84.11007545494894 327.99250355939085 L 88.30892143808254 321.33193735472105 L 92.50776742121614 314.14246192234884 L 96.80426098535284 306.2382868115482 L 101.10075454948955 297.78031599234754 L 105.49489569462938 288.5573004303184 L 109.88903683976919 278.7550305761869 L 114.38082556591209 268.13622670881796 L 118.87261429205503 256.9121378626397 L 123.46205059920106 244.8188815268058 L 128.14913448735018 231.81612443949564 L 132.93386595650242 217.86267518438206 L 137.71859742565465 203.22241627231162 L 142.60097647581003 187.57539909799215 L 147.58100310696847 170.87871593608287 L 152.65867731913005 153.08860090673593 L 157.8339991122947 134.160429975597 L 163.10696848646248 114.04872095380443 L 168.47758544163338 92.70713349799018 L 173.84820239680425 70.500240247801 L 179.31646693297824 47.000537233090085 L 184.88237905015532 22.159967801475545 L 190.54593874833554 -4.070382853931051 L 190.63539020989472 -4.5" stroke-linecap="round" stroke-linejoin="round" stroke-miterlimit="10" stroke-width="1.5" stroke-dasharray=""/></g></g><g id="sketch-8f43bb9d"><title>Expression 2</title><path fill="#c74440" stroke="none" paint-order="stroke fill markers" d="" fill-opacity="0.4"/><g><path fill="none" stroke="#c74440" class="dcg-svg-curve" paint-order="fill stroke markers" d=" M 14.416666666666657 404.5 L 14.416666666666657 404.5 L 218.91666666666666 -4.5" stroke-linecap="round" stroke-linejoin="round" stroke-miterlimit="10" stroke-width="1.5" stroke-dasharray=""/></g></g><g id="sketch-8f43bb9d"><title>Expression 3</title><path fill="#c74440" stroke="none" paint-order="stroke fill markers" d="" fill-opacity="0.4"/><g><path fill="none" stroke="#c74440" class="dcg-svg-curve" paint-order="fill stroke markers" d=" M 33.333333333333314 100 L 39.933333333333316 100 M 44.13333333333331 100 L 50.73333333333331 100 M 54.93333333333331 100 L 61.53333333333331 100 M 65.7333333333333 100 L 72.3333333333333 100 M 76.5333333333333 100 L 83.1333333333333 100 M 87.3333333333333 100 L 93.9333333333333 100 M 98.1333333333333 100 L 104.73333333333329 100 M 108.9333333333333 100 L 115.53333333333329 100 M 119.73333333333329 100 L 126.33333333333329 100 M 130.53333333333327 100 L 137.13333333333327 100 M 141.33333333333326 100 L 147.93333333333328 100 M 152.13333333333327 100 L 158.73333333333326 100 M 162.93333333333328 100 L 166.66666666666666 100" stroke-linecap="round" stroke-linejoin="round" stroke-miterlimit="10" stroke-width="1.5" stroke-dasharray=""/></g></g><g id="sketch-8f43bb9d"><title>Expression 4</title><path fill="#c74440" stroke="none" paint-order="stroke fill markers" d="" fill-opacity="0.4"/><g><path fill="none" stroke="#c74440" class="dcg-svg-curve" paint-order="fill stroke markers" d=" M 166.66666666666666 366.6666666666667 L 166.66666666666666 360.06666666666666 M 166.66666666666666 355.8666666666667 L 166.66666666666666 349.26666666666665 M 166.66666666666666 345.06666666666666 L 166.66666666666666 338.46666666666664 M 166.66666666666666 334.26666666666665 L 166.66666666666666 327.66666666666663 M 166.66666666666666 323.46666666666664 L 166.66666666666666 316.8666666666666 M 166.66666666666666 312.66666666666663 L 166.66666666666666 306.0666666666666 M 166.66666666666666 301.8666666666666 L 166.66666666666666 295.2666666666666 M 166.66666666666666 291.0666666666666 L 166.66666666666666 284.46666666666664 M 166.66666666666666 280.26666666666665 L 166.66666666666666 273.66666666666663 M 166.66666666666666 269.46666666666664 L 166.66666666666666 262.8666666666667 M 166.66666666666666 258.6666666666667 L 166.66666666666666 252.0666666666667 M 166.66666666666666 247.8666666666667 L 166.66666666666666 241.2666666666667 M 166.66666666666666 237.06666666666672 L 166.66666666666666 230.46666666666673 M 166.66666666666666 226.26666666666674 L 166.66666666666666 219.66666666666674 M 166.66666666666666 215.46666666666675 L 166.66666666666666 208.86666666666676 M 166.66666666666666 204.66666666666677 L 166.66666666666666 198.06666666666678 M 166.66666666666666 193.8666666666668 L 166.66666666666666 187.2666666666668 M 166.66666666666666 183.0666666666668 L 166.66666666666666 176.4666666666668 M 166.66666666666666 172.26666666666682 L 166.66666666666666 165.66666666666683 M 166.66666666666666 161.46666666666684 L 166.66666666666666 154.86666666666684 M 166.66666666666666 150.66666666666686 L 166.66666666666666 144.06666666666686 M 166.66666666666666 139.86666666666687 L 166.66666666666666 133.26666666666688 M 166.66666666666666 129.0666666666669 L 166.66666666666666 122.4666666666669 M 166.66666666666666 118.2666666666669 L 166.66666666666666 111.6666666666669 M 166.66666666666666 107.4666666666669 L 166.66666666666666 100.86666666666689" stroke-linecap="round" stroke-linejoin="round" stroke-miterlimit="10" stroke-width="1.5" stroke-dasharray=""/></g></g><g id="sketch-8f43bb9d"><title>Expression 5</title><path fill="none" stroke="#c74440" class="dcg-svg-point" paint-order="fill stroke markers" d=" M 166.56666666666666 99.9 L 166.56666666666666 100.1 L 166.76666666666665 100.1 L 166.76666666666665 99.9" stroke-linecap="round" stroke-linejoin="round" stroke-miterlimit="10" stroke-width="4.6875" stroke-dasharray=""/></g><g id="sketch-8f43bb9d"><title>切点</title><path fill="none" stroke="#6042a6" class="dcg-svg-point" paint-order="fill stroke markers" d=" M 99.89999999999999 299.9 L 99.89999999999999 300.1 L 100.09999999999998 300.1 L 100.09999999999998 299.9" stroke-linecap="round" stroke-linejoin="round" stroke-miterlimit="10" stroke-width="4.6875" stroke-dasharray=""/></g><g id="sketch-8f43bb9d"><title>Expression 7</title><path fill="#6042a6" stroke="none" paint-order="stroke fill markers" d="" fill-opacity="0.4"/><g><path fill="none" stroke="#6042a6" class="dcg-svg-curve" paint-order="fill stroke markers" d=" M 79.99999999999997 340 L 79.99999999999997 340 L 126.66666666666664 246.66666666666669" stroke-linecap="round" stroke-linejoin="round" stroke-miterlimit="10" stroke-width="1.5" stroke-dasharray=""/></g></g><g id="sketch-8f43bb9d"><title>Expression 8</title><path fill="#2d70b3" stroke="none" paint-order="stroke fill markers" d="" fill-opacity="0.4"/><g><path fill="none" stroke="#2d70b3" class="dcg-svg-curve" paint-order="fill stroke markers" d=" M 39.41666666666666 404.5 L 39.41666666666666 404.5 L 243.91666666666666 -4.5" stroke-linecap="round" stroke-linejoin="round" stroke-miterlimit="10" stroke-width="1.5" stroke-dasharray=""/></g></g><g id="sketch-8f43bb9d"><title>Expression 9</title><path fill="none" stroke="#2d70b3" class="dcg-svg-point" paint-order="fill stroke markers" d=" M 66.56666666666666 349.9 L 66.56666666666666 350.1 L 66.76666666666665 350.1 L 66.76666666666665 349.9" stroke-linecap="round" stroke-linejoin="round" stroke-miterlimit="10" stroke-width="4.6875" stroke-dasharray=""/></g><g id="sketch-8f43bb9d"><title>Expression 10</title><path fill="none" stroke="#2d70b3" class="dcg-svg-point" paint-order="fill stroke markers" d=" M 133.23333333333332 216.5666666666667 L 133.23333333333332 216.76666666666668 L 133.4333333333333 216.76666666666668 L 133.4333333333333 216.5666666666667" stroke-linecap="round" stroke-linejoin="round" stroke-miterlimit="10" stroke-width="4.6875" stroke-dasharray=""/></g><g id="sketch-8f43bb9d"><title>Expression 11</title><path fill="none" stroke="#c74440" class="dcg-svg-point" paint-order="fill stroke markers" d=" M 33.23333333333331 366.56666666666666 L 33.23333333333331 366.7666666666667 L 33.433333333333316 366.7666666666667 L 33.433333333333316 366.56666666666666" stroke-linecap="round" stroke-linejoin="round" stroke-miterlimit="10" stroke-width="4.6875" stroke-dasharray=""/></g><g id="sketch-8f43bb9d"><title>Expression 12</title><path fill="#6042a6" stroke="none" paint-order="stroke fill markers" d="" fill-opacity="0.4"/><g><path fill="none" stroke="#6042a6" class="dcg-svg-curve" paint-order="fill stroke markers" d=" M 99.99999999999999 366.6666666666667 L 99.99999999999999 360.06666666666666 M 99.99999999999999 355.8666666666667 L 99.99999999999999 349.26666666666665 M 99.99999999999999 345.06666666666666 L 99.99999999999999 338.46666666666664 M 99.99999999999999 334.26666666666665 L 99.99999999999999 327.6666666666667 M 99.99999999999999 323.4666666666667 L 99.99999999999999 316.8666666666667 M 99.99999999999999 312.6666666666667 L 99.99999999999999 306.0666666666667 M 99.99999999999999 301.86666666666673 L 99.99999999999999 300" stroke-linecap="round" stroke-linejoin="round" stroke-miterlimit="10" stroke-width="1.5" stroke-dasharray=""/></g></g><g id="sketch-8f43bb9d"><title>Expression 13</title><path fill="#2d70b3" stroke="none" paint-order="stroke fill markers" d="" fill-opacity="0.4"/><g><path fill="none" stroke="#2d70b3" class="dcg-svg-curve" paint-order="fill stroke markers" d=" M 66.66666666666666 366.6666666666667 L 66.66666666666666 360.06666666666666 M 66.66666666666666 355.8666666666667 L 66.66666666666666 350" stroke-linecap="round" stroke-linejoin="round" stroke-miterlimit="10" stroke-width="1.5" stroke-dasharray=""/></g></g><g id="sketch-8f43bb9d"><title>Expression 14</title><path fill="#2d70b3" stroke="none" paint-order="stroke fill markers" d="" fill-opacity="0.4"/><g><path fill="none" stroke="#2d70b3" class="dcg-svg-curve" paint-order="fill stroke markers" d=" M 133.33333333333331 366.6666666666667 L 133.33333333333331 360.06666666666666 M 133.33333333333331 355.8666666666667 L 133.33333333333331 349.26666666666665 M 133.33333333333331 345.06666666666666 L 133.33333333333331 338.46666666666664 M 133.33333333333331 334.26666666666665 L 133.33333333333331 327.66666666666663 M 133.33333333333331 323.46666666666664 L 133.33333333333331 316.8666666666667 M 133.33333333333331 312.6666666666667 L 133.33333333333331 306.06666666666666 M 133.33333333333331 301.8666666666667 L 133.33333333333331 295.26666666666665 M 133.33333333333331 291.06666666666666 L 133.33333333333331 284.4666666666667 M 133.33333333333331 280.2666666666667 L 133.33333333333331 273.6666666666667 M 133.33333333333331 269.4666666666667 L 133.33333333333331 262.8666666666667 M 133.33333333333331 258.6666666666667 L 133.33333333333331 252.0666666666667 M 133.33333333333331 247.8666666666667 L 133.33333333333331 241.2666666666667 M 133.33333333333331 237.06666666666672 L 133.33333333333331 230.46666666666673 M 133.33333333333331 226.26666666666674 L 133.33333333333331 219.66666666666674" stroke-linecap="round" stroke-linejoin="round" stroke-miterlimit="10" stroke-width="1.5" stroke-dasharray=""/></g></g><g id="sketch-8f43bb9d"><title>Expression 15</title><path fill="#6042a6" stroke="none" paint-order="stroke fill markers" d="" fill-opacity="0.4"/><g><path fill="none" stroke="#6042a6" class="dcg-svg-curve" paint-order="fill stroke markers" d=" M 33.333333333333314 300 L 39.933333333333316 300 M 44.13333333333331 300 L 50.73333333333331 300 M 54.93333333333331 300 L 61.53333333333331 300 M 65.7333333333333 300 L 72.3333333333333 300 M 76.5333333333333 300 L 83.1333333333333 300 M 87.3333333333333 300 L 93.9333333333333 300 M 98.1333333333333 300 L 99.99999999999999 300" stroke-linecap="round" stroke-linejoin="round" stroke-miterlimit="10" stroke-width="1.5" stroke-dasharray=""/></g></g><g id="sketch-8f43bb9d"><title>Expression 16</title><path fill="#2d70b3" stroke="none" paint-order="stroke fill markers" d="" fill-opacity="0.4"/><g><path fill="none" stroke="#2d70b3" class="dcg-svg-curve" paint-order="fill stroke markers" d=" M 33.333333333333314 350 L 39.933333333333316 350 M 44.13333333333331 350 L 50.73333333333331 350 M 54.93333333333331 350 L 61.53333333333331 350 M 65.7333333333333 350 L 66.66666666666666 350" stroke-linecap="round" stroke-linejoin="round" stroke-miterlimit="10" stroke-width="1.5" stroke-dasharray=""/></g></g><g id="sketch-8f43bb9d"><title>Expression 17</title><path fill="#2d70b3" stroke="none" paint-order="stroke fill markers" d="" fill-opacity="0.4"/><g><path fill="none" stroke="#2d70b3" class="dcg-svg-curve" paint-order="fill stroke markers" d=" M 33.333333333333314 216.66666666666669 L 39.933333333333316 216.66666666666669 M 44.13333333333331 216.66666666666669 L 50.73333333333331 216.66666666666669 M 54.93333333333331 216.66666666666669 L 61.53333333333331 216.66666666666669 M 65.7333333333333 216.66666666666669 L 72.3333333333333 216.66666666666669 M 76.5333333333333 216.66666666666669 L 83.1333333333333 216.66666666666669 M 87.3333333333333 216.66666666666669 L 93.9333333333333 216.66666666666669 M 98.1333333333333 216.66666666666669 L 104.73333333333329 216.66666666666669 M 108.9333333333333 216.66666666666669 L 115.53333333333329 216.66666666666669 M 119.73333333333329 216.66666666666669 L 126.33333333333329 216.66666666666669 M 130.5333333333333 216.66666666666669 L 133.33333333333331 216.66666666666669" stroke-linecap="round" stroke-linejoin="round" stroke-miterlimit="10" stroke-width="1.5" stroke-dasharray=""/></g></g><g id="sketch-8f43bb9d"><title>l₁</title></g><g id="sketch-8f43bb9d"><title>l₂</title></g></g><g id="labels-8f43bb9d"><g transform="rotate(0,0,0) translate(99.99999999999999,300)"><g class="dcg-svg-label"><g transform="translate(8.500000000000014,-8)"><g><text fill="none" stroke="#FFF" font-family="arial, sans-serif" font-size="15.4px" font-style="normal" font-weight="400" text-decoration="normal" x="0" y="13.4888" text-anchor="start" stroke-linecap="round" stroke-linejoin="round" stroke-miterlimit="2" stroke-width="3" stroke-dasharray="">切点</text></g></g><g transform="translate(8.500000000000014,-8)"><g><text fill="rgb(96, 66, 166)" stroke="none" font-family="arial, sans-serif" font-size="15.4px" font-style="normal" font-weight="400" text-decoration="normal" x="0" y="13.4888" text-anchor="start">切点</text></g></g></g></g><g transform="rotate(0,0,0) translate(200,33.333333333333314)"><g class="dcg-svg-label"><g transform="translate(-4.9609375,-9.333333333333314)"><g><text fill="none" stroke="#FFF" font-family="arial, sans-serif" font-size="15.4px" font-style="normal" font-weight="400" text-decoration="normal" x="0" y="13.4888" text-anchor="start" stroke-linecap="round" stroke-linejoin="round" stroke-miterlimit="2" stroke-width="3" stroke-dasharray="">l₁</text></g></g><g transform="translate(-4.9609375,-9.333333333333314)"><g><text fill="rgb(199, 68, 64)" stroke="none" font-family="arial, sans-serif" font-size="15.4px" font-style="normal" font-weight="400" text-decoration="normal" x="0" y="13.4888" text-anchor="start">l₁</text></g></g></g></g><g transform="rotate(0,0,0) translate(200,83.33333333333331)"><g class="dcg-svg-label"><g transform="translate(-4.9609375,-9.333333333333314)"><g><text fill="none" stroke="#FFF" font-family="arial, sans-serif" font-size="15.4px" font-style="normal" font-weight="400" text-decoration="normal" x="0" y="13.4888" text-anchor="start" stroke-linecap="round" stroke-linejoin="round" stroke-miterlimit="2" stroke-width="3" stroke-dasharray="">l₂</text></g></g><g transform="translate(-4.9609375,-9.333333333333314)"><g><text fill="rgb(45, 112, 179)" stroke="none" font-family="arial, sans-serif" font-size="15.4px" font-style="normal" font-weight="400" text-decoration="normal" x="0" y="13.4888" text-anchor="start">l₂</text></g></g></g></g></g></g></svg>