<svg version="1.1" xmlns="http://www.w3.org/2000/svg" xmlns:xlink="http://www.w3.org/1999/xlink" width="800" height="800"><defs/><g transform="scale(2,2)"><g id="background-c77fab6d"><rect fill="white" stroke="none" x="0" y="0" width="400" height="400" class="dcg-svg-background"/></g><g id="background-images-c77fab6d"/><g id="graphpaper-c77fab6d"><g id="axis-c77fab6d"><g><g><path fill="none" stroke="rgb(0,0,0)" class="dcg-svg-tickmark" paint-order="fill stroke markers" d="" stroke-opacity="0.9" stroke-miterlimit="2" stroke-width="1.5" stroke-dasharray=""/></g></g></g></g><g id="expressions-c77fab6d"><g id="sketch-c77fab6d"><title>Expression 1</title><path fill="#000000" stroke="none" paint-order="stroke fill markers" d="" fill-opacity="0.4"/><g><path fill="none" stroke="#000000" class="dcg-svg-curve" paint-order="fill stroke markers" d=" M 16.873159023117076 404.5 L 16.873159023117076 404.5 L 21.6796875 379.3220520019531 L 26.85546875 353.29151153564453 L 31.93359375 328.7935256958008 L 36.9140625 305.7685852050781 L 41.796875 284.1583251953125 L 46.58203125 263.90552520751953 L 51.26953125 244.95410919189453 L 55.859375 227.2491455078125 L 60.44921875 210.38684844970703 L 64.94140625 194.69928741455078 L 69.3359375 180.13381958007812 L 73.6328125 166.63894653320312 L 77.83203125 154.16431427001953 L 81.93359375 142.66071319580078 L 86.03515625 131.83002471923828 L 90.0390625 121.90628051757812 L 93.9453125 112.84255981445312 L 97.75390625 104.59308624267578 L 101.5625 96.923828125 L 105.2734375 90.00930786132812 L 108.984375 83.6456298828125 L 112.59765625 77.97870635986328 L 116.2109375 72.83401489257812 L 119.82421875 68.21155548095703 L 123.2421875 64.31961059570312 L 126.46484375 61.07807159423828 L 129.58984375 58.33148956298828 L 132.6171875 56.043243408203125 L 135.44921875 54.23450469970703 L 138.18359375 52.79254913330078 L 140.91796875 51.64966583251953 L 143.5546875 50.830841064453125 L 146.19140625 50.29010772705078 L 148.73046875 50.03223419189453 L 151.26953125 50.03223419189453 L 153.80859375 50.29010772705078 L 156.34765625 50.80585479736328 L 158.984375 51.6143798828125 L 161.62109375 52.70099639892578 L 164.35546875 54.12158966064453 L 167.08984375 55.84125518798828 L 169.921875 57.9376220703125 L 172.8515625 60.443878173828125 L 175.9765625 63.495635986328125 L 179.19921875 67.05188751220703 L 182.6171875 71.27761840820312 L 186.23046875 76.25293731689453 L 189.84375 81.75048828125 L 193.45703125 87.77027130126953 L 197.16796875 94.49634552001953 L 200.87890625 101.77326202392578 L 204.6875 109.814453125 L 208.49609375 118.43585968017578 L 212.40234375 127.88105010986328 L 216.40625 138.19580078125 L 220.41015625 149.15180206298828 L 224.51171875 161.03992462158203 L 228.7109375 173.90823364257812 L 233.0078125 187.80593872070312 L 237.3046875 202.44216918945312 L 241.69921875 218.17493438720703 L 246.19140625 235.05573272705078 L 250.78125 253.13720703125 L 255.46875 272.47314453125 L 260.25390625 293.1184768676758 L 265.13671875 315.12928009033203 L 270.1171875 338.5627746582031 L 275.09765625 362.9884719848633 L 280.17578125 388.91468048095703 L 283.1105674190879 404.5" stroke-linecap="round" stroke-linejoin="round" stroke-miterlimit="10" stroke-width="1.5" stroke-dasharray=""/></g></g><g id="sketch-c77fab6d"><title>Expression 2</title><path fill="#000000" stroke="none" paint-order="stroke fill markers" d="" fill-opacity="0.4"/><g><path fill="none" stroke="#000000" class="dcg-svg-curve" paint-order="fill stroke markers" d=" M 75 75 L 75 75 L 275 275" stroke-linecap="round" stroke-linejoin="round" stroke-miterlimit="10" stroke-width="1.5" stroke-dasharray=""/></g></g><g id="sketch-c77fab6d"><title>Expression 3</title><path fill="#c74440" stroke="none" paint-order="stroke fill markers" d="" fill-opacity="0.4"/><g><path fill="none" stroke="#c74440" class="dcg-svg-curve" paint-order="fill stroke markers" d=" M 125 12.5 L 129.6669047558312 17.16690475583121 M 132.6367532368147 20.136753236814712 L 137.30365799264592 24.803657992645924 M 140.27350647362942 27.77350647362942 L 144.94041122946064 32.440411229460636 M 147.91025971044414 35.41025971044414 L 152.57716446627535 40.07716446627535 M 155.54701294725885 43.04701294725885 L 160.21391770309006 47.71391770309006 M 163.18376618407356 50.68376618407356 L 167.85067093990477 55.350670939904774 M 170.82051942088827 58.320519420888274 L 175.4874241767195 62.987424176719486 M 178.457272657703 65.95727265770299 L 183.1241774135342 70.6241774135342 M 186.0940258945177 73.5940258945177 L 190.7609306503489 78.26093065034891 M 193.7307791313324 81.23077913133241 L 198.39768388716362 85.89768388716362 M 201.36753236814712 88.86753236814712 L 206.03443712397834 93.53443712397834 M 209.00428560496184 96.50428560496184 L 213.67119036079305 101.17119036079305 M 216.64103884177655 104.14103884177655 L 221.30794359760776 108.80794359760776 M 224.27779207859126 111.77779207859126 L 228.94469683442247 116.44469683442247 M 231.91454531540597 119.41454531540597 L 236.58145007123719 124.08145007123717 M 239.5512985522207 127.05129855222066 L 244.2182033080519 131.71820330805187 M 247.1880517890354 134.68805178903537 L 251.8549565448666 139.35495654486658 M 254.8248050258501 142.32480502585008 L 259.4917097816813 146.9917097816813 M 262.4615582626648 149.9615582626648 L 267.128463018496 154.62846301849598 M 270.0983114994795 157.59831149947948 L 274.7652162553107 162.2652162553107 M 277.7350647362942 165.23506473629416 L 282.4019694921254 169.90196949212537 M 285.3718179731089 172.87181797310885 L 287.5 175" stroke-linecap="round" stroke-linejoin="round" stroke-miterlimit="10" stroke-width="1.5" stroke-dasharray=""/></g></g><g id="sketch-c77fab6d"><title>Expression 4</title><path fill="#c74440" stroke="none" paint-order="stroke fill markers" d="" fill-opacity="0.4"/><g><path fill="none" stroke="#c74440" class="dcg-svg-curve" paint-order="fill stroke markers" d=" M 100 100 L 100 100 L 175 62.5" stroke-linecap="round" stroke-linejoin="round" stroke-miterlimit="10" stroke-width="1.5" stroke-dasharray=""/></g></g><g id="sketch-c77fab6d"><title>Expression 5</title><path fill="#c74440" stroke="none" paint-order="stroke fill markers" d="" fill-opacity="0.4"/><g><path fill="none" stroke="#c74440" class="dcg-svg-curve" paint-order="fill stroke markers" d=" M 175 62.5 L 175 62.5 L 250 250" stroke-linecap="round" stroke-linejoin="round" stroke-miterlimit="10" stroke-width="1.5" stroke-dasharray=""/></g></g><g id="sketch-c77fab6d"><title>S=1</title></g></g><g id="labels-c77fab6d"><g transform="rotate(0,0,0) translate(163.75,115.5)"><g class="dcg-svg-label"><g transform="translate(-13.671875,-8.5)"><g><text fill="none" stroke="#FFF" font-family="arial, sans-serif" font-size="15.4px" font-style="normal" font-weight="400" text-decoration="normal" x="0" y="13.4888" text-anchor="start" stroke-linecap="round" stroke-linejoin="round" stroke-miterlimit="2" stroke-width="3" stroke-dasharray="">S=1</text></g></g><g transform="translate(-13.671875,-8.5)"><g><text fill="rgb(96, 66, 166)" stroke="none" font-family="arial, sans-serif" font-size="15.4px" font-style="normal" font-weight="400" text-decoration="normal" x="0" y="13.4888" text-anchor="start">S=1</text></g></g></g></g></g></g></svg>