<svg version="1.1" xmlns="http://www.w3.org/2000/svg" xmlns:xlink="http://www.w3.org/1999/xlink" width="800" height="800"><defs/><g transform="scale(2,2)"><g id="background-01685657"><rect fill="white" stroke="none" x="0" y="0" width="400" height="400" class="dcg-svg-background"/></g><g id="background-images-01685657"/><g id="graphpaper-01685657"><g id="axis-01685657"><g id="yaxis-01685657"><title>y</title><g><path fill="none" stroke="rgb(0,0,0)" class="dcg-svg-axis-line" paint-order="fill stroke markers" d=" M 50 3 L 50 400" stroke-opacity="0.9" stroke-miterlimit="10" stroke-width="1.5" stroke-dasharray=""/><g class="dcg-svg-axis-line"><path fill="rgb(0,0,0)" stroke="rgb(0,0,0)" class="dcg-svg-axis-line" paint-order="stroke fill markers" d=" M 50 1.5 L 53.10582854123025 13.09110991546882 L 46.894171458769755 13.09110991546882 L 50 1.5 L 53.10582854123025 13.09110991546882" stroke-opacity="0.9" stroke-linejoin="round" stroke-miterlimit="10" stroke-width="1.5" stroke-dasharray="" fill-opacity="0.9"/></g></g></g><g id="xaxis-01685657"><title>x</title><g><path fill="none" stroke="rgb(0,0,0)" class="dcg-svg-axis-line" paint-order="fill stroke markers" d=" M 0 350 L 397 350" stroke-opacity="0.9" stroke-miterlimit="10" stroke-width="1.5" stroke-dasharray=""/><g class="dcg-svg-axis-line"><path fill="rgb(0,0,0)" stroke="rgb(0,0,0)" class="dcg-svg-axis-line" paint-order="stroke fill markers" d=" M 398.5 350 L 386.9088900845312 353.10582854123027 L 386.9088900845312 346.89417145876973 L 398.5 350 L 386.9088900845312 353.10582854123027" stroke-opacity="0.9" stroke-linejoin="round" stroke-miterlimit="10" stroke-width="1.5" stroke-dasharray="" fill-opacity="0.9"/></g></g></g><g><g><path fill="none" stroke="rgb(0,0,0)" class="dcg-svg-tickmark" paint-order="fill stroke markers" d="" stroke-opacity="0.9" stroke-miterlimit="2" stroke-width="1.5" stroke-dasharray=""/></g></g><g class="dcg-svg-axis-label"><text fill="none" stroke="#ffffff" font-family="Times" font-size="20px" font-style="italic" font-weight="normal" text-decoration="normal" x="376.123046875" y="365" text-anchor="start" stroke-miterlimit="2" stroke-width="3" stroke-dasharray="">x</text><text fill="#000000" stroke="none" font-family="Times" font-size="20px" font-style="italic" font-weight="normal" text-decoration="normal" x="376.123046875" y="365" text-anchor="start">x</text></g><g class="dcg-svg-axis-label" transform="translate(35.123046875,29)"><text fill="none" stroke="#ffffff" font-family="Times" font-size="20px" font-style="italic" font-weight="normal" text-decoration="normal" x="0" y="0" text-anchor="start" stroke-miterlimit="2" stroke-width="3" stroke-dasharray="">y</text><text fill="#000000" stroke="none" font-family="Times" font-size="20px" font-style="italic" font-weight="normal" text-decoration="normal" x="0" y="0" text-anchor="start">y</text></g></g></g><g id="expressions-01685657"><g id="sketch-01685657"><title>Expression 1</title><path fill="#c74440" stroke="none" paint-order="stroke fill markers" d="" fill-opacity="0.4"/><g><path fill="none" stroke="#c74440" class="dcg-svg-curve" paint-order="fill stroke markers" d=" M 50 350 L 50 350 L 57.51953125 335.24365425109863 L 64.94140625 321.2334156036377 L 72.36328125 307.774019241333 L 79.6875 295.03173828125 L 87.01171875 282.8258991241455 L 94.3359375 271.15650177001953 L 101.5625 260.16845703125 L 108.7890625 249.70264434814453 L 116.015625 239.75906372070312 L 123.2421875 230.33771514892578 L 130.2734375 221.67224884033203 L 137.109375 213.72146606445312 L 143.75 206.4453125 L 150.29296875 199.70746040344238 L 156.640625 193.57986450195312 L 162.890625 187.94021606445312 L 168.9453125 182.84931182861328 L 174.90234375 178.19828987121582 L 180.76171875 173.9696979522705 L 186.5234375 170.14636993408203 L 192.1875 166.71142578125 L 197.75390625 163.64827156066895 L 203.22265625 160.94059944152832 L 208.59375 158.5723876953125 L 213.96484375 156.49266242980957 L 219.23828125 154.7314167022705 L 224.51171875 153.2482624053955 L 229.6875 152.06298828125 L 234.86328125 151.145601272583 L 240.0390625 150.49610137939453 L 245.1171875 150.11920928955078 L 250.1953125 150.00019073486328 L 255.2734375 150.13904571533203 L 260.3515625 150.53577423095703 L 265.4296875 151.19037628173828 L 270.60546875 152.12292671203613 L 275.78125 153.3233642578125 L 280.95703125 154.79168891906738 L 286.23046875 156.56323432922363 L 291.50390625 158.61287117004395 L 296.875 160.986328125 L 302.24609375 163.64827156066895 L 307.71484375 166.65501594543457 L 313.28125 170.0225830078125 L 318.9453125 173.76728057861328 L 324.70703125 177.90570259094238 L 330.56640625 182.4547290802002 L 336.5234375 187.43152618408203 L 342.578125 192.85354614257812 L 348.828125 198.83499145507812 L 350 200" stroke-linecap="round" stroke-linejoin="round" stroke-miterlimit="10" stroke-width="1.5" stroke-dasharray=""/></g></g><g id="sketch-01685657"><title>A(x)</title></g><g id="sketch-01685657"><title>y(x)</title></g><g id="sketch-01685657"><title>Expression 5</title><path fill="#c74440" stroke="none" paint-order="stroke fill markers" d="" fill-opacity="0.4"/><g><path fill="none" stroke="#c74440" class="dcg-svg-curve" paint-order="fill stroke markers" d=" M 300 350 L 300 343.4 M 300 339.2 L 300 332.59999999999997 M 300 328.4 L 300 321.79999999999995 M 300 317.59999999999997 L 300 310.99999999999994 M 300 306.79999999999995 L 300 300.19999999999993 M 300 295.99999999999994 L 300 289.4 M 300 285.2 L 300 278.6 M 300 274.40000000000003 L 300 267.8 M 300 263.6 L 300 257 M 300 252.8 L 300 246.20000000000002 M 300 242.00000000000003 L 300 235.40000000000003 M 300 231.20000000000005 L 300 224.60000000000005 M 300 220.40000000000006 L 300 213.80000000000007 M 300 209.60000000000008 L 300 203.00000000000009 M 300 198.8000000000001 L 300 192.2000000000001 M 300 188.0000000000001 L 300 181.40000000000012 M 300 177.20000000000013 L 300 170.60000000000014 M 300 166.40000000000012 L 300 162.5" stroke-linecap="round" stroke-linejoin="round" stroke-miterlimit="10" stroke-width="1.5" stroke-dasharray=""/></g></g><g id="sketch-01685657"><title>Expression 6</title><path fill="#c74440" stroke="none" paint-order="stroke fill markers" d="" fill-opacity="0.4"/><g><path fill="none" stroke="#c74440" class="dcg-svg-curve" paint-order="fill stroke markers" d=" M 60 350 L 60 350 L 70 350" stroke-linecap="round" stroke-linejoin="round" stroke-miterlimit="10" stroke-width="2.5" stroke-dasharray=""/></g><path fill="#c74440" stroke="none" paint-order="stroke fill markers" d="" fill-opacity="0.4"/><g><path fill="none" stroke="#c74440" class="dcg-svg-curve" paint-order="fill stroke markers" d=" M 60 330.5 L 60 330.5 L 70 330.5" stroke-linecap="round" stroke-linejoin="round" stroke-miterlimit="10" stroke-width="2.5" stroke-dasharray=""/></g><path fill="#c74440" stroke="none" class="dcg-svg-region" paint-order="stroke fill markers" d=" M 60 350 L 70 350 L 70 330.5 L 60 330.5 L 60 350" fill-opacity="0.4"/></g><g id="sketch-01685657"><title>Expression 7</title><path fill="#c74440" stroke="none" paint-order="stroke fill markers" d="" fill-opacity="0.4"/><g><path fill="none" stroke="#c74440" class="dcg-svg-curve" paint-order="fill stroke markers" d=" M 70 350 L 70 350 L 80 350" stroke-linecap="round" stroke-linejoin="round" stroke-miterlimit="10" stroke-width="2.5" stroke-dasharray=""/></g><path fill="#c74440" stroke="none" paint-order="stroke fill markers" d="" fill-opacity="0.4"/><g><path fill="none" stroke="#c74440" class="dcg-svg-curve" paint-order="fill stroke markers" d=" M 70 312 L 70 312 L 80 312" stroke-linecap="round" stroke-linejoin="round" stroke-miterlimit="10" stroke-width="2.5" stroke-dasharray=""/></g><path fill="#c74440" stroke="none" class="dcg-svg-region" paint-order="stroke fill markers" d=" M 70 350 L 80 350 L 80 312 L 70 312 L 70 350" fill-opacity="0.4"/></g><g id="sketch-01685657"><title>Expression 8</title><path fill="#c74440" stroke="none" paint-order="stroke fill markers" d="" fill-opacity="0.4"/><g><path fill="none" stroke="#c74440" class="dcg-svg-curve" paint-order="fill stroke markers" d=" M 80 350 L 80 350 L 90 350" stroke-linecap="round" stroke-linejoin="round" stroke-miterlimit="10" stroke-width="2.5" stroke-dasharray=""/></g><path fill="#c74440" stroke="none" paint-order="stroke fill markers" d="" fill-opacity="0.4"/><g><path fill="none" stroke="#c74440" class="dcg-svg-curve" paint-order="fill stroke markers" d=" M 80 294.5 L 80 294.5 L 90 294.5" stroke-linecap="round" stroke-linejoin="round" stroke-miterlimit="10" stroke-width="2.5" stroke-dasharray=""/></g><path fill="#c74440" stroke="none" class="dcg-svg-region" paint-order="stroke fill markers" d=" M 80 350 L 90 350 L 90 294.5 L 80 294.5 L 80 350" fill-opacity="0.4"/></g><g id="sketch-01685657"><title>Expression 9</title><path fill="#c74440" stroke="none" paint-order="stroke fill markers" d="" fill-opacity="0.4"/><g><path fill="none" stroke="#c74440" class="dcg-svg-curve" paint-order="fill stroke markers" d=" M 90 350 L 90 350 L 100 350" stroke-linecap="round" stroke-linejoin="round" stroke-miterlimit="10" stroke-width="2.5" stroke-dasharray=""/></g><path fill="#c74440" stroke="none" paint-order="stroke fill markers" d="" fill-opacity="0.4"/><g><path fill="none" stroke="#c74440" class="dcg-svg-curve" paint-order="fill stroke markers" d=" M 90 278 L 90 278 L 100 278" stroke-linecap="round" stroke-linejoin="round" stroke-miterlimit="10" stroke-width="2.5" stroke-dasharray=""/></g><path fill="#c74440" stroke="none" class="dcg-svg-region" paint-order="stroke fill markers" d=" M 90 350 L 100 350 L 100 278 L 90 278 L 90 350" fill-opacity="0.4"/></g><g id="sketch-01685657"><title>Expression 10</title><path fill="#c74440" stroke="none" paint-order="stroke fill markers" d="" fill-opacity="0.4"/><g><path fill="none" stroke="#c74440" class="dcg-svg-curve" paint-order="fill stroke markers" d=" M 100 350 L 100 350 L 110 350" stroke-linecap="round" stroke-linejoin="round" stroke-miterlimit="10" stroke-width="2.5" stroke-dasharray=""/></g><path fill="#c74440" stroke="none" paint-order="stroke fill markers" d="" fill-opacity="0.4"/><g><path fill="none" stroke="#c74440" class="dcg-svg-curve" paint-order="fill stroke markers" d=" M 100 262.5 L 100 262.5 L 110 262.5" stroke-linecap="round" stroke-linejoin="round" stroke-miterlimit="10" stroke-width="2.5" stroke-dasharray=""/></g><path fill="#c74440" stroke="none" class="dcg-svg-region" paint-order="stroke fill markers" d=" M 100 350 L 110 350 L 110 262.5 L 100 262.5 L 100 350" fill-opacity="0.4"/></g><g id="sketch-01685657"><title>Expression 11</title><path fill="#c74440" stroke="none" paint-order="stroke fill markers" d="" fill-opacity="0.4"/><g><path fill="none" stroke="#c74440" class="dcg-svg-curve" paint-order="fill stroke markers" d=" M 110 350 L 110 350 L 120 350" stroke-linecap="round" stroke-linejoin="round" stroke-miterlimit="10" stroke-width="2.5" stroke-dasharray=""/></g><path fill="#c74440" stroke="none" paint-order="stroke fill markers" d="" fill-opacity="0.4"/><g><path fill="none" stroke="#c74440" class="dcg-svg-curve" paint-order="fill stroke markers" d=" M 110 248 L 110 248 L 120 248" stroke-linecap="round" stroke-linejoin="round" stroke-miterlimit="10" stroke-width="2.5" stroke-dasharray=""/></g><path fill="#c74440" stroke="none" class="dcg-svg-region" paint-order="stroke fill markers" d=" M 110 350 L 120 350 L 120 248 L 110 248 L 110 350" fill-opacity="0.4"/></g><g id="sketch-01685657"><title>Expression 12</title><path fill="#c74440" stroke="none" paint-order="stroke fill markers" d="" fill-opacity="0.4"/><g><path fill="none" stroke="#c74440" class="dcg-svg-curve" paint-order="fill stroke markers" d=" M 120 350 L 120 350 L 130 350" stroke-linecap="round" stroke-linejoin="round" stroke-miterlimit="10" stroke-width="2.5" stroke-dasharray=""/></g><path fill="#c74440" stroke="none" paint-order="stroke fill markers" d="" fill-opacity="0.4"/><g><path fill="none" stroke="#c74440" class="dcg-svg-curve" paint-order="fill stroke markers" d=" M 120 234.5 L 120 234.5 L 130 234.5" stroke-linecap="round" stroke-linejoin="round" stroke-miterlimit="10" stroke-width="2.5" stroke-dasharray=""/></g><path fill="#c74440" stroke="none" class="dcg-svg-region" paint-order="stroke fill markers" d=" M 120 350 L 130 350 L 130 234.5 L 120 234.5 L 120 350" fill-opacity="0.4"/></g><g id="sketch-01685657"><title>Expression 13</title><path fill="#c74440" stroke="none" paint-order="stroke fill markers" d="" fill-opacity="0.4"/><g><path fill="none" stroke="#c74440" class="dcg-svg-curve" paint-order="fill stroke markers" d=" M 130 350 L 130 350 L 140 350" stroke-linecap="round" stroke-linejoin="round" stroke-miterlimit="10" stroke-width="2.5" stroke-dasharray=""/></g><path fill="#c74440" stroke="none" paint-order="stroke fill markers" d="" fill-opacity="0.4"/><g><path fill="none" stroke="#c74440" class="dcg-svg-curve" paint-order="fill stroke markers" d=" M 130 222 L 130 222 L 140 222" stroke-linecap="round" stroke-linejoin="round" stroke-miterlimit="10" stroke-width="2.5" stroke-dasharray=""/></g><path fill="#c74440" stroke="none" class="dcg-svg-region" paint-order="stroke fill markers" d=" M 130 350 L 140 350 L 140 222 L 130 222 L 130 350" fill-opacity="0.4"/></g><g id="sketch-01685657"><title>Expression 14</title><path fill="#c74440" stroke="none" paint-order="stroke fill markers" d="" fill-opacity="0.4"/><g><path fill="none" stroke="#c74440" class="dcg-svg-curve" paint-order="fill stroke markers" d=" M 140 350 L 140 350 L 150 350" stroke-linecap="round" stroke-linejoin="round" stroke-miterlimit="10" stroke-width="2.5" stroke-dasharray=""/></g><path fill="#c74440" stroke="none" paint-order="stroke fill markers" d="" fill-opacity="0.4"/><g><path fill="none" stroke="#c74440" class="dcg-svg-curve" paint-order="fill stroke markers" d=" M 140 210.5 L 140 210.5 L 150 210.5" stroke-linecap="round" stroke-linejoin="round" stroke-miterlimit="10" stroke-width="2.5" stroke-dasharray=""/></g><path fill="#c74440" stroke="none" class="dcg-svg-region" paint-order="stroke fill markers" d=" M 140 350 L 150 350 L 150 210.5 L 140 210.5 L 140 350" fill-opacity="0.4"/></g><g id="sketch-01685657"><title>Expression 15</title><path fill="#c74440" stroke="none" paint-order="stroke fill markers" d="" fill-opacity="0.4"/><g><path fill="none" stroke="#c74440" class="dcg-svg-curve" paint-order="fill stroke markers" d=" M 150 350 L 150 350 L 160 350" stroke-linecap="round" stroke-linejoin="round" stroke-miterlimit="10" stroke-width="2.5" stroke-dasharray=""/></g><path fill="#c74440" stroke="none" paint-order="stroke fill markers" d="" fill-opacity="0.4"/><g><path fill="none" stroke="#c74440" class="dcg-svg-curve" paint-order="fill stroke markers" d=" M 150 200 L 150 200 L 160 200" stroke-linecap="round" stroke-linejoin="round" stroke-miterlimit="10" stroke-width="2.5" stroke-dasharray=""/></g><path fill="#c74440" stroke="none" class="dcg-svg-region" paint-order="stroke fill markers" d=" M 150 350 L 160 350 L 160 200 L 150 200 L 150 350" fill-opacity="0.4"/></g><g id="sketch-01685657"><title>Expression 16</title><path fill="#c74440" stroke="none" paint-order="stroke fill markers" d="" fill-opacity="0.4"/><g><path fill="none" stroke="#c74440" class="dcg-svg-curve" paint-order="fill stroke markers" d=" M 160 350 L 160 350 L 170 350" stroke-linecap="round" stroke-linejoin="round" stroke-miterlimit="10" stroke-width="2.5" stroke-dasharray=""/></g><path fill="#c74440" stroke="none" paint-order="stroke fill markers" d="" fill-opacity="0.4"/><g><path fill="none" stroke="#c74440" class="dcg-svg-curve" paint-order="fill stroke markers" d=" M 160 190.5 L 160 190.5 L 170 190.5" stroke-linecap="round" stroke-linejoin="round" stroke-miterlimit="10" stroke-width="2.5" stroke-dasharray=""/></g><path fill="#c74440" stroke="none" class="dcg-svg-region" paint-order="stroke fill markers" d=" M 160 350 L 170 350 L 170 190.5 L 160 190.5 L 160 350" fill-opacity="0.4"/></g><g id="sketch-01685657"><title>Expression 17</title><path fill="#c74440" stroke="none" paint-order="stroke fill markers" d="" fill-opacity="0.4"/><g><path fill="none" stroke="#c74440" class="dcg-svg-curve" paint-order="fill stroke markers" d=" M 170 350 L 170 350 L 180 350" stroke-linecap="round" stroke-linejoin="round" stroke-miterlimit="10" stroke-width="2.5" stroke-dasharray=""/></g><path fill="#c74440" stroke="none" paint-order="stroke fill markers" d="" fill-opacity="0.4"/><g><path fill="none" stroke="#c74440" class="dcg-svg-curve" paint-order="fill stroke markers" d=" M 170 182 L 170 182 L 180 182" stroke-linecap="round" stroke-linejoin="round" stroke-miterlimit="10" stroke-width="2.5" stroke-dasharray=""/></g><path fill="#c74440" stroke="none" class="dcg-svg-region" paint-order="stroke fill markers" d=" M 170 350 L 180 350 L 180 182 L 170 182 L 170 350" fill-opacity="0.4"/></g><g id="sketch-01685657"><title>Expression 18</title><path fill="#c74440" stroke="none" paint-order="stroke fill markers" d="" fill-opacity="0.4"/><g><path fill="none" stroke="#c74440" class="dcg-svg-curve" paint-order="fill stroke markers" d=" M 180 350 L 180 350 L 190 350" stroke-linecap="round" stroke-linejoin="round" stroke-miterlimit="10" stroke-width="2.5" stroke-dasharray=""/></g><path fill="#c74440" stroke="none" paint-order="stroke fill markers" d="" fill-opacity="0.4"/><g><path fill="none" stroke="#c74440" class="dcg-svg-curve" paint-order="fill stroke markers" d=" M 180 174.5 L 180 174.5 L 190 174.5" stroke-linecap="round" stroke-linejoin="round" stroke-miterlimit="10" stroke-width="2.5" stroke-dasharray=""/></g><path fill="#c74440" stroke="none" class="dcg-svg-region" paint-order="stroke fill markers" d=" M 180 350 L 190 350 L 190 174.5 L 180 174.5 L 180 350" fill-opacity="0.4"/></g><g id="sketch-01685657"><title>Expression 19</title><path fill="#c74440" stroke="none" paint-order="stroke fill markers" d="" fill-opacity="0.4"/><g><path fill="none" stroke="#c74440" class="dcg-svg-curve" paint-order="fill stroke markers" d=" M 190 350 L 190 350 L 200 350" stroke-linecap="round" stroke-linejoin="round" stroke-miterlimit="10" stroke-width="2.5" stroke-dasharray=""/></g><path fill="#c74440" stroke="none" paint-order="stroke fill markers" d="" fill-opacity="0.4"/><g><path fill="none" stroke="#c74440" class="dcg-svg-curve" paint-order="fill stroke markers" d=" M 190 168 L 190 168 L 200 168" stroke-linecap="round" stroke-linejoin="round" stroke-miterlimit="10" stroke-width="2.5" stroke-dasharray=""/></g><path fill="#c74440" stroke="none" class="dcg-svg-region" paint-order="stroke fill markers" d=" M 190 350 L 200 350 L 200 168 L 190 168 L 190 350" fill-opacity="0.4"/></g><g id="sketch-01685657"><title>Expression 20</title><path fill="#c74440" stroke="none" paint-order="stroke fill markers" d="" fill-opacity="0.4"/><g><path fill="none" stroke="#c74440" class="dcg-svg-curve" paint-order="fill stroke markers" d=" M 200 350 L 200 350 L 210 350" stroke-linecap="round" stroke-linejoin="round" stroke-miterlimit="10" stroke-width="2.5" stroke-dasharray=""/></g><path fill="#c74440" stroke="none" paint-order="stroke fill markers" d="" fill-opacity="0.4"/><g><path fill="none" stroke="#c74440" class="dcg-svg-curve" paint-order="fill stroke markers" d=" M 200 162.5 L 200 162.5 L 210 162.5" stroke-linecap="round" stroke-linejoin="round" stroke-miterlimit="10" stroke-width="2.5" stroke-dasharray=""/></g><path fill="#c74440" stroke="none" class="dcg-svg-region" paint-order="stroke fill markers" d=" M 200 350 L 210 350 L 210 162.5 L 200 162.5 L 200 350" fill-opacity="0.4"/></g><g id="sketch-01685657"><title>Expression 21</title><path fill="#c74440" stroke="none" paint-order="stroke fill markers" d="" fill-opacity="0.4"/><g><path fill="none" stroke="#c74440" class="dcg-svg-curve" paint-order="fill stroke markers" d=" M 210 350 L 210 350 L 220 350" stroke-linecap="round" stroke-linejoin="round" stroke-miterlimit="10" stroke-width="2.5" stroke-dasharray=""/></g><path fill="#c74440" stroke="none" paint-order="stroke fill markers" d="" fill-opacity="0.4"/><g><path fill="none" stroke="#c74440" class="dcg-svg-curve" paint-order="fill stroke markers" d=" M 210 158 L 210 158 L 220 158" stroke-linecap="round" stroke-linejoin="round" stroke-miterlimit="10" stroke-width="2.5" stroke-dasharray=""/></g><path fill="#c74440" stroke="none" class="dcg-svg-region" paint-order="stroke fill markers" d=" M 210 350 L 220 350 L 220 158 L 210 158 L 210 350" fill-opacity="0.4"/></g><g id="sketch-01685657"><title>Expression 22</title><path fill="#c74440" stroke="none" paint-order="stroke fill markers" d="" fill-opacity="0.4"/><g><path fill="none" stroke="#c74440" class="dcg-svg-curve" paint-order="fill stroke markers" d=" M 220 350 L 220 350 L 230 350" stroke-linecap="round" stroke-linejoin="round" stroke-miterlimit="10" stroke-width="2.5" stroke-dasharray=""/></g><path fill="#c74440" stroke="none" paint-order="stroke fill markers" d="" fill-opacity="0.4"/><g><path fill="none" stroke="#c74440" class="dcg-svg-curve" paint-order="fill stroke markers" d=" M 220 154.5 L 220 154.5 L 230 154.5" stroke-linecap="round" stroke-linejoin="round" stroke-miterlimit="10" stroke-width="2.5" stroke-dasharray=""/></g><path fill="#c74440" stroke="none" class="dcg-svg-region" paint-order="stroke fill markers" d=" M 220 350 L 230 350 L 230 154.5 L 220 154.5 L 220 350" fill-opacity="0.4"/></g><g id="sketch-01685657"><title>Expression 23</title><path fill="#c74440" stroke="none" paint-order="stroke fill markers" d="" fill-opacity="0.4"/><g><path fill="none" stroke="#c74440" class="dcg-svg-curve" paint-order="fill stroke markers" d=" M 230 350 L 230 350 L 240 350" stroke-linecap="round" stroke-linejoin="round" stroke-miterlimit="10" stroke-width="2.5" stroke-dasharray=""/></g><path fill="#c74440" stroke="none" paint-order="stroke fill markers" d="" fill-opacity="0.4"/><g><path fill="none" stroke="#c74440" class="dcg-svg-curve" paint-order="fill stroke markers" d=" M 230 152 L 230 152 L 240 152" stroke-linecap="round" stroke-linejoin="round" stroke-miterlimit="10" stroke-width="2.5" stroke-dasharray=""/></g><path fill="#c74440" stroke="none" class="dcg-svg-region" paint-order="stroke fill markers" d=" M 230 350 L 240 350 L 240 152 L 230 152 L 230 350" fill-opacity="0.4"/></g><g id="sketch-01685657"><title>Expression 24</title><path fill="#c74440" stroke="none" paint-order="stroke fill markers" d="" fill-opacity="0.4"/><g><path fill="none" stroke="#c74440" class="dcg-svg-curve" paint-order="fill stroke markers" d=" M 240 350 L 240 350 L 250 350" stroke-linecap="round" stroke-linejoin="round" stroke-miterlimit="10" stroke-width="2.5" stroke-dasharray=""/></g><path fill="#c74440" stroke="none" paint-order="stroke fill markers" d="" fill-opacity="0.4"/><g><path fill="none" stroke="#c74440" class="dcg-svg-curve" paint-order="fill stroke markers" d=" M 240 150.5 L 240 150.5 L 250 150.5" stroke-linecap="round" stroke-linejoin="round" stroke-miterlimit="10" stroke-width="2.5" stroke-dasharray=""/></g><path fill="#c74440" stroke="none" class="dcg-svg-region" paint-order="stroke fill markers" d=" M 240 350 L 250 350 L 250 150.5 L 240 150.5 L 240 350" fill-opacity="0.4"/></g><g id="sketch-01685657"><title>Expression 25</title><path fill="#c74440" stroke="none" paint-order="stroke fill markers" d="" fill-opacity="0.4"/><g><path fill="none" stroke="#c74440" class="dcg-svg-curve" paint-order="fill stroke markers" d=" M 250 350 L 250 350 L 260 350" stroke-linecap="round" stroke-linejoin="round" stroke-miterlimit="10" stroke-width="2.5" stroke-dasharray=""/></g><path fill="#c74440" stroke="none" paint-order="stroke fill markers" d="" fill-opacity="0.4"/><g><path fill="none" stroke="#c74440" class="dcg-svg-curve" paint-order="fill stroke markers" d=" M 250 150.5 L 250 150.5 L 260 150.5" stroke-linecap="round" stroke-linejoin="round" stroke-miterlimit="10" stroke-width="2.5" stroke-dasharray=""/></g><path fill="#c74440" stroke="none" class="dcg-svg-region" paint-order="stroke fill markers" d=" M 250 350 L 260 350 L 260 150.5 L 250 150.5 L 250 350" fill-opacity="0.4"/></g><g id="sketch-01685657"><title>Expression 26</title><path fill="#c74440" stroke="none" paint-order="stroke fill markers" d="" fill-opacity="0.4"/><g><path fill="none" stroke="#c74440" class="dcg-svg-curve" paint-order="fill stroke markers" d=" M 260 350 L 260 350 L 270 350" stroke-linecap="round" stroke-linejoin="round" stroke-miterlimit="10" stroke-width="2.5" stroke-dasharray=""/></g><path fill="#c74440" stroke="none" paint-order="stroke fill markers" d="" fill-opacity="0.4"/><g><path fill="none" stroke="#c74440" class="dcg-svg-curve" paint-order="fill stroke markers" d=" M 260 152 L 260 152 L 270 152" stroke-linecap="round" stroke-linejoin="round" stroke-miterlimit="10" stroke-width="2.5" stroke-dasharray=""/></g><path fill="#c74440" stroke="none" class="dcg-svg-region" paint-order="stroke fill markers" d=" M 260 350 L 270 350 L 270 152 L 260 152 L 260 350" fill-opacity="0.4"/></g><g id="sketch-01685657"><title>Expression 27</title><path fill="#c74440" stroke="none" paint-order="stroke fill markers" d="" fill-opacity="0.4"/><g><path fill="none" stroke="#c74440" class="dcg-svg-curve" paint-order="fill stroke markers" d=" M 270 350 L 270 350 L 280 350" stroke-linecap="round" stroke-linejoin="round" stroke-miterlimit="10" stroke-width="2.5" stroke-dasharray=""/></g><path fill="#c74440" stroke="none" paint-order="stroke fill markers" d="" fill-opacity="0.4"/><g><path fill="none" stroke="#c74440" class="dcg-svg-curve" paint-order="fill stroke markers" d=" M 270 154.5 L 270 154.5 L 280 154.5" stroke-linecap="round" stroke-linejoin="round" stroke-miterlimit="10" stroke-width="2.5" stroke-dasharray=""/></g><path fill="#c74440" stroke="none" class="dcg-svg-region" paint-order="stroke fill markers" d=" M 270 350 L 280 350 L 280 154.5 L 270 154.5 L 270 350" fill-opacity="0.4"/></g><g id="sketch-01685657"><title>Expression 28</title><path fill="#c74440" stroke="none" paint-order="stroke fill markers" d="" fill-opacity="0.4"/><g><path fill="none" stroke="#c74440" class="dcg-svg-curve" paint-order="fill stroke markers" d=" M 280 350 L 280 350 L 290 350" stroke-linecap="round" stroke-linejoin="round" stroke-miterlimit="10" stroke-width="2.5" stroke-dasharray=""/></g><path fill="#c74440" stroke="none" paint-order="stroke fill markers" d="" fill-opacity="0.4"/><g><path fill="none" stroke="#c74440" class="dcg-svg-curve" paint-order="fill stroke markers" d=" M 280 158 L 280 158 L 290 158" stroke-linecap="round" stroke-linejoin="round" stroke-miterlimit="10" stroke-width="2.5" stroke-dasharray=""/></g><path fill="#c74440" stroke="none" class="dcg-svg-region" paint-order="stroke fill markers" d=" M 280 350 L 290 350 L 290 158 L 280 158 L 280 350" fill-opacity="0.4"/></g><g id="sketch-01685657"><title>Expression 29</title><path fill="#c74440" stroke="none" paint-order="stroke fill markers" d="" fill-opacity="0.4"/><g><path fill="none" stroke="#c74440" class="dcg-svg-curve" paint-order="fill stroke markers" d=" M 290 350 L 290 350 L 300 350" stroke-linecap="round" stroke-linejoin="round" stroke-miterlimit="10" stroke-width="2.5" stroke-dasharray=""/></g><path fill="#c74440" stroke="none" paint-order="stroke fill markers" d="" fill-opacity="0.4"/><g><path fill="none" stroke="#c74440" class="dcg-svg-curve" paint-order="fill stroke markers" d=" M 290 162.5 L 290 162.5 L 300 162.5" stroke-linecap="round" stroke-linejoin="round" stroke-miterlimit="10" stroke-width="2.5" stroke-dasharray=""/></g><path fill="#c74440" stroke="none" class="dcg-svg-region" paint-order="stroke fill markers" d=" M 290 350 L 300 350 L 300 162.5 L 290 162.5 L 290 350" fill-opacity="0.4"/></g></g><g id="labels-01685657"><g transform="rotate(0,0,0) translate(190.39999999999998,273)"><g class="dcg-svg-label"><g transform="translate(-28.634374999999977,-18)"><g><text fill="none" stroke="#FFF" font-family="arial, sans-serif" font-size="30.8px" font-style="normal" font-weight="400" text-decoration="normal" x="0" y="27.9776" text-anchor="start" stroke-linecap="round" stroke-linejoin="round" stroke-miterlimit="2" stroke-width="3" stroke-dasharray="">A(x)</text></g></g><g transform="translate(-28.634374999999977,-18)"><g><text fill="rgb(199, 68, 64)" stroke="none" font-family="arial, sans-serif" font-size="30.8px" font-style="normal" font-weight="400" text-decoration="normal" x="0" y="27.9776" text-anchor="start">A(x)</text></g></g></g></g><g transform="rotate(0,0,0) translate(350,200)"><g class="dcg-svg-label"><g transform="translate(-12.8359375,-9)"><g><text fill="none" stroke="#FFF" font-family="arial, sans-serif" font-size="15.4px" font-style="normal" font-weight="400" text-decoration="normal" x="0" y="13.4888" text-anchor="start" stroke-linecap="round" stroke-linejoin="round" stroke-miterlimit="2" stroke-width="3" stroke-dasharray="">y(x)</text></g></g><g transform="translate(-12.8359375,-9)"><g><text fill="rgb(199, 68, 64)" stroke="none" font-family="arial, sans-serif" font-size="15.4px" font-style="normal" font-weight="400" text-decoration="normal" x="0" y="13.4888" text-anchor="start">y(x)</text></g></g></g></g></g></g></svg>