<?xml version="1.0" encoding="UTF-8"?>
<svg id="_图层_2" data-name="图层 2" xmlns="http://www.w3.org/2000/svg" viewBox="0 0 112.91 402.95">
  <defs>
    <style>
      .cls-1 {
        stroke-width: 0px;
      }

      .cls-1, .cls-2 {
        fill: #000;
      }

      .cls-3 {
        fill: #fff;
      }

      .cls-3, .cls-4 {
        stroke: #000;
        stroke-miterlimit: 10;
      }

      .cls-5, .cls-2 {
        isolation: isolate;
      }

      .cls-4 {
        fill: none;
      }

      .cls-2 {
        font-family: CalistoMT, 'Calisto MT';
        font-size: 12px;
      }
    </style>
  </defs>
  <g id="_图层_2-2" data-name=" 图层 2">
    <g id="_图层_1-2" data-name=" 图层 1-2">
      <g>
        <rect class="cls-3" x="33.51" y=".5" width="23.42" height="380.38"/>
        <line class="cls-4" x1="33.51" y1="380.88" x2="33.51" y2="397.34"/>
        <line class="cls-4" x1="56.93" y1="380.88" x2="56.93" y2="397.34"/>
        <line class="cls-4" x1="33.51" y1="380.88" x2="16.38" y2="380.88"/>
        <line class="cls-4" x1="33.51" y1=".5" x2="16.38" y2=".5"/>
        <g>
          <line class="cls-4" x1="24.94" y1="4.74" x2="24.94" y2="376.64"/>
          <polygon class="cls-1" points="24.94 .5 22.5 6.47 24.94 5.05 27.38 6.47 24.94 .5"/>
          <polygon class="cls-1" points="24.94 380.88 22.5 374.91 24.94 376.33 27.38 374.91 24.94 380.88"/>
        </g>
        <g>
          <line class="cls-4" x1="37.74" y1="389.11" x2="52.69" y2="389.11"/>
          <polygon class="cls-1" points="33.51 389.11 39.48 391.55 38.06 389.11 39.48 386.67 33.51 389.11"/>
          <polygon class="cls-1" points="56.93 389.11 50.96 391.55 52.37 389.11 50.96 386.67 56.93 389.11"/>
        </g>
        <g>
          <path class="cls-4" d="M46.21,148.92c2.89-4.28,7.69-10.03,14.86-14.04,7.75-4.34,14.75-4.68,18.53-4.52"/>
          <polygon class="cls-1" points="43.99 152.52 49.23 148.76 46.41 148.67 45.09 146.17 43.99 152.52"/>
        </g>
        <g class="cls-5">
          <text class="cls-2" transform="translate(83.14 130.99)"><tspan x="0" y="0">dA(x)</tspan></text>
        </g>
        <g class="cls-5">
          <text class="cls-2" transform="translate(37.83 400.36)"><tspan x="0" y="0">dx</tspan></text>
        </g>
        <g class="cls-5">
          <text class="cls-2" transform="translate(0 195.9)"><tspan x="0" y="0">y(x)</tspan></text>
        </g>
      </g>
    </g>
  </g>
</svg>