<?xml version="1.0" encoding="UTF-8"?>
<svg id="_图层_1" data-name="图层 1" xmlns="http://www.w3.org/2000/svg" xmlns:xlink="http://www.w3.org/1999/xlink" viewBox="0 0 431.49 542.28">
  <defs>
    <style>
      .cls-1 {
        fill: url(#_未命名的渐变-16);
      }

      .cls-1, .cls-2, .cls-3, .cls-4, .cls-5, .cls-6, .cls-7, .cls-8, .cls-9, .cls-10, .cls-11, .cls-12, .cls-13, .cls-14, .cls-15, .cls-16, .cls-17, .cls-18, .cls-19, .cls-20, .cls-21, .cls-22, .cls-23, .cls-24, .cls-25, .cls-26, .cls-27, .cls-28, .cls-29, .cls-30, .cls-31, .cls-32, .cls-33, .cls-34, .cls-35, .cls-36, .cls-37, .cls-38, .cls-39, .cls-40, .cls-41, .cls-42, .cls-43, .cls-44, .cls-45, .cls-46, .cls-47, .cls-48, .cls-49, .cls-50, .cls-51, .cls-52, .cls-53, .cls-54, .cls-55, .cls-56, .cls-57 {
        stroke-miterlimit: 10;
      }

      .cls-1, .cls-2, .cls-3, .cls-4, .cls-5, .cls-6, .cls-7, .cls-8, .cls-10, .cls-12, .cls-13, .cls-14, .cls-15, .cls-16, .cls-17, .cls-18, .cls-19, .cls-20, .cls-21, .cls-22, .cls-23, .cls-24, .cls-25, .cls-26, .cls-27, .cls-28, .cls-29, .cls-30, .cls-31, .cls-32, .cls-33, .cls-34, .cls-36, .cls-37, .cls-38, .cls-39, .cls-40, .cls-42, .cls-43, .cls-44, .cls-45, .cls-46, .cls-47, .cls-48, .cls-49, .cls-50, .cls-51, .cls-52, .cls-54, .cls-55, .cls-56, .cls-57 {
        stroke: #231815;
      }

      .cls-2 {
        fill: url(#_未命名的渐变_2-2);
      }

      .cls-3 {
        fill: url(#_未命名的渐变-9);
      }

      .cls-4 {
        fill: url(#_未命名的渐变-4);
      }

      .cls-58 {
        font-size: 11px;
      }

      .cls-58, .cls-59, .cls-60, .cls-61, .cls-62, .cls-63, .cls-64, .cls-65, .cls-66, .cls-67 {
        font-family: DengXian, DengXian;
      }

      .cls-58, .cls-59, .cls-61, .cls-62, .cls-68 {
        fill: #231815;
      }

      .cls-5 {
        fill: url(#_未命名的渐变_2-15);
      }

      .cls-6 {
        fill: url(#_未命名的渐变_2-24);
      }

      .cls-7 {
        fill: url(#_未命名的渐变-12);
      }

      .cls-8 {
        fill: url(#_未命名的渐变-25);
      }

      .cls-9 {
        stroke-dasharray: 3.96 3.96;
      }

      .cls-9, .cls-11, .cls-69, .cls-34, .cls-35, .cls-41, .cls-47, .cls-53 {
        fill: none;
      }

      .cls-9, .cls-11, .cls-41, .cls-53 {
        stroke: #727171;
      }

      .cls-10 {
        fill: url(#_未命名的渐变);
      }

      .cls-11 {
        stroke-dasharray: 3.43 3.43;
      }

      .cls-12 {
        fill: url(#_未命名的渐变_2-18);
      }

      .cls-13 {
        fill: url(#_未命名的渐变-18);
      }

      .cls-14 {
        fill: url(#_未命名的渐变-15);
      }

      .cls-15 {
        fill: url(#_未命名的渐变_2);
      }

      .cls-59, .cls-60, .cls-62, .cls-64, .cls-65, .cls-66, .cls-67 {
        font-size: 12px;
      }

      .cls-60, .cls-70, .cls-64 {
        fill: #e60012;
      }

      .cls-16 {
        fill: url(#_未命名的渐变_2-5);
      }

      .cls-17 {
        fill: url(#_未命名的渐变_2-9);
      }

      .cls-18 {
        fill: url(#_未命名的渐变-19);
      }

      .cls-19 {
        fill: url(#_未命名的渐变-14);
      }

      .cls-61 {
        font-size: 10px;
      }

      .cls-20 {
        fill: url(#_未命名的渐变-17);
      }

      .cls-71 {
        clip-path: url(#clippath-1);
      }

      .cls-21 {
        fill: url(#_未命名的渐变-22);
      }

      .cls-22 {
        fill: url(#_未命名的渐变-20);
      }

      .cls-23 {
        fill: url(#_未命名的渐变-13);
      }

      .cls-24 {
        fill: url(#_未命名的渐变-3);
      }

      .cls-25 {
        fill: url(#_未命名的渐变_2-8);
      }

      .cls-26 {
        fill: url(#_未命名的渐变-23);
      }

      .cls-72 {
        fill: #727171;
      }

      .cls-27 {
        fill: url(#_未命名的渐变_2-20);
      }

      .cls-28 {
        fill: url(#_未命名的渐变_2-11);
      }

      .cls-62, .cls-64, .cls-66 {
        letter-spacing: 0em;
      }

      .cls-29 {
        fill: url(#_未命名的渐变-11);
      }

      .cls-30 {
        fill: url(#_未命名的渐变_2-19);
      }

      .cls-31 {
        fill: url(#_未命名的渐变_2-3);
      }

      .cls-32 {
        fill: url(#_未命名的渐变-10);
      }

      .cls-33 {
        fill: url(#_未命名的渐变_2-4);
      }

      .cls-34 {
        stroke-linecap: round;
      }

      .cls-35 {
        stroke: #e60012;
      }

      .cls-36 {
        fill: url(#_未命名的渐变-5);
      }

      .cls-37 {
        fill: url(#_未命名的渐变_2-7);
      }

      .cls-38 {
        fill: url(#_未命名的渐变_2-23);
      }

      .cls-63 {
        font-size: 9px;
        letter-spacing: 0em;
      }

      .cls-63, .cls-66 {
        fill: #009a3e;
      }

      .cls-39 {
        fill: url(#_未命名的渐变-24);
      }

      .cls-40 {
        fill: url(#_未命名的渐变-2);
      }

      .cls-41 {
        stroke-dasharray: 4.09 4.09;
      }

      .cls-42 {
        fill: url(#_未命名的渐变_2-16);
      }

      .cls-43 {
        fill: url(#_未命名的渐变_2-12);
      }

      .cls-44 {
        fill: url(#_未命名的渐变-8);
      }

      .cls-45 {
        fill: url(#_未命名的渐变_2-21);
      }

      .cls-46 {
        fill: url(#_未命名的渐变_2-6);
      }

      .cls-48 {
        fill: url(#_未命名的渐变-6);
      }

      .cls-49 {
        fill: url(#_未命名的渐变_2-10);
      }

      .cls-65 {
        fill: #00a0e9;
      }

      .cls-50 {
        fill: url(#_未命名的渐变_2-22);
      }

      .cls-51 {
        fill: url(#_未命名的渐变_2-14);
      }

      .cls-52 {
        fill: url(#_未命名的渐变-7);
      }

      .cls-54 {
        fill: url(#_未命名的渐变-21);
      }

      .cls-55 {
        fill: url(#_未命名的渐变_2-17);
      }

      .cls-73 {
        clip-path: url(#clippath);
      }

      .cls-56 {
        fill: url(#_未命名的渐变_2-13);
      }

      .cls-67 {
        fill: #094;
      }

      .cls-57 {
        fill: url(#_未命名的渐变_2-25);
      }
    </style>
    <clipPath id="clippath">
      <rect class="cls-69" x=".02" y="18.46" width="431.45" height="43.18"/>
    </clipPath>
    <linearGradient id="_未命名的渐变_2" data-name="未命名的渐变 2" x1="84.31" y1="-13.21" x2="98.96" y2="-13.21" gradientTransform="translate(22.18 117.92) rotate(-90)" gradientUnits="userSpaceOnUse">
      <stop offset="0" stop-color="#fff"/>
      <stop offset="1" stop-color="#231815"/>
    </linearGradient>
    <linearGradient id="_未命名的渐变_2-2" data-name="未命名的渐变 2" y1="4.05" y2="4.05" xlink:href="#_未命名的渐变_2"/>
    <linearGradient id="_未命名的渐变_2-3" data-name="未命名的渐变 2" y1="21.32" y2="21.32" xlink:href="#_未命名的渐变_2"/>
    <linearGradient id="_未命名的渐变_2-4" data-name="未命名的渐变 2" y1="38.59" y2="38.59" xlink:href="#_未命名的渐变_2"/>
    <linearGradient id="_未命名的渐变_2-5" data-name="未命名的渐变 2" y1="55.85" y2="55.85" xlink:href="#_未命名的渐变_2"/>
    <linearGradient id="_未命名的渐变_2-6" data-name="未命名的渐变 2" y1="73.12" y2="73.12" xlink:href="#_未命名的渐变_2"/>
    <linearGradient id="_未命名的渐变_2-7" data-name="未命名的渐变 2" y1="90.38" y2="90.38" xlink:href="#_未命名的渐变_2"/>
    <linearGradient id="_未命名的渐变_2-8" data-name="未命名的渐变 2" y1="107.65" y2="107.65" xlink:href="#_未命名的渐变_2"/>
    <linearGradient id="_未命名的渐变_2-9" data-name="未命名的渐变 2" y1="124.92" y2="124.92" xlink:href="#_未命名的渐变_2"/>
    <linearGradient id="_未命名的渐变_2-10" data-name="未命名的渐变 2" y1="142.18" y2="142.18" xlink:href="#_未命名的渐变_2"/>
    <linearGradient id="_未命名的渐变_2-11" data-name="未命名的渐变 2" y1="159.45" y2="159.45" xlink:href="#_未命名的渐变_2"/>
    <linearGradient id="_未命名的渐变_2-12" data-name="未命名的渐变 2" y1="176.72" y2="176.72" xlink:href="#_未命名的渐变_2"/>
    <linearGradient id="_未命名的渐变_2-13" data-name="未命名的渐变 2" y1="193.98" y2="193.98" xlink:href="#_未命名的渐变_2"/>
    <linearGradient id="_未命名的渐变_2-14" data-name="未命名的渐变 2" y1="211.25" y2="211.25" xlink:href="#_未命名的渐变_2"/>
    <linearGradient id="_未命名的渐变_2-15" data-name="未命名的渐变 2" y1="228.52" y2="228.52" xlink:href="#_未命名的渐变_2"/>
    <linearGradient id="_未命名的渐变_2-16" data-name="未命名的渐变 2" y1="245.78" y2="245.78" xlink:href="#_未命名的渐变_2"/>
    <linearGradient id="_未命名的渐变_2-17" data-name="未命名的渐变 2" y1="263.05" y2="263.05" xlink:href="#_未命名的渐变_2"/>
    <linearGradient id="_未命名的渐变_2-18" data-name="未命名的渐变 2" y1="280.31" y2="280.31" xlink:href="#_未命名的渐变_2"/>
    <linearGradient id="_未命名的渐变_2-19" data-name="未命名的渐变 2" y1="297.58" y2="297.58" xlink:href="#_未命名的渐变_2"/>
    <linearGradient id="_未命名的渐变_2-20" data-name="未命名的渐变 2" y1="314.85" y2="314.85" xlink:href="#_未命名的渐变_2"/>
    <linearGradient id="_未命名的渐变_2-21" data-name="未命名的渐变 2" y1="332.11" y2="332.11" xlink:href="#_未命名的渐变_2"/>
    <linearGradient id="_未命名的渐变_2-22" data-name="未命名的渐变 2" y1="349.38" y2="349.38" xlink:href="#_未命名的渐变_2"/>
    <linearGradient id="_未命名的渐变_2-23" data-name="未命名的渐变 2" y1="366.65" y2="366.65" xlink:href="#_未命名的渐变_2"/>
    <linearGradient id="_未命名的渐变_2-24" data-name="未命名的渐变 2" y1="383.91" y2="383.91" xlink:href="#_未命名的渐变_2"/>
    <linearGradient id="_未命名的渐变_2-25" data-name="未命名的渐变 2" y1="401.18" y2="401.18" xlink:href="#_未命名的渐变_2"/>
    <clipPath id="clippath-1">
      <rect class="cls-69" x=".02" y="52.03" width="431.45" height="43.18"/>
    </clipPath>
    <linearGradient id="_未命名的渐变" data-name="未命名的渐变" x1="-565.8" y1="-251.31" x2="-551.15" y2="-251.31" gradientTransform="translate(170.97 645.85) rotate(90.02)" gradientUnits="userSpaceOnUse">
      <stop offset="0" stop-color="#fff"/>
      <stop offset="1" stop-color="#231815"/>
    </linearGradient>
    <linearGradient id="_未命名的渐变-2" data-name="未命名的渐变" x1="-565.8" y1="-234.04" x2="-551.15" y2="-234.04" xlink:href="#_未命名的渐变"/>
    <linearGradient id="_未命名的渐变-3" data-name="未命名的渐变" x1="-565.8" y1="-216.78" x2="-551.15" y2="-216.78" xlink:href="#_未命名的渐变"/>
    <linearGradient id="_未命名的渐变-4" data-name="未命名的渐变" x1="-565.8" y1="-199.51" x2="-551.15" y2="-199.51" xlink:href="#_未命名的渐变"/>
    <linearGradient id="_未命名的渐变-5" data-name="未命名的渐变" x1="-565.8" y1="-182.24" x2="-551.15" y2="-182.24" xlink:href="#_未命名的渐变"/>
    <linearGradient id="_未命名的渐变-6" data-name="未命名的渐变" x1="-565.8" y1="-164.98" x2="-551.15" y2="-164.98" xlink:href="#_未命名的渐变"/>
    <linearGradient id="_未命名的渐变-7" data-name="未命名的渐变" x1="-565.8" y1="-147.71" x2="-551.15" y2="-147.71" xlink:href="#_未命名的渐变"/>
    <linearGradient id="_未命名的渐变-8" data-name="未命名的渐变" x1="-565.8" y1="-130.44" x2="-551.15" y2="-130.44" xlink:href="#_未命名的渐变"/>
    <linearGradient id="_未命名的渐变-9" data-name="未命名的渐变" x1="-565.8" y1="-113.18" x2="-551.15" y2="-113.18" xlink:href="#_未命名的渐变"/>
    <linearGradient id="_未命名的渐变-10" data-name="未命名的渐变" x1="-565.8" y1="-95.91" x2="-551.15" y2="-95.91" xlink:href="#_未命名的渐变"/>
    <linearGradient id="_未命名的渐变-11" data-name="未命名的渐变" x1="-565.8" y1="-78.64" x2="-551.15" y2="-78.64" xlink:href="#_未命名的渐变"/>
    <linearGradient id="_未命名的渐变-12" data-name="未命名的渐变" x1="-565.8" y1="-61.38" x2="-551.15" y2="-61.38" xlink:href="#_未命名的渐变"/>
    <linearGradient id="_未命名的渐变-13" data-name="未命名的渐变" x1="-565.8" y1="-44.11" x2="-551.15" y2="-44.11" xlink:href="#_未命名的渐变"/>
    <linearGradient id="_未命名的渐变-14" data-name="未命名的渐变" x1="-565.8" y1="-26.85" x2="-551.15" y2="-26.85" xlink:href="#_未命名的渐变"/>
    <linearGradient id="_未命名的渐变-15" data-name="未命名的渐变" x1="-565.8" y1="-9.58" x2="-551.15" y2="-9.58" xlink:href="#_未命名的渐变"/>
    <linearGradient id="_未命名的渐变-16" data-name="未命名的渐变" x1="-565.8" y1="7.69" x2="-551.15" y2="7.69" xlink:href="#_未命名的渐变"/>
    <linearGradient id="_未命名的渐变-17" data-name="未命名的渐变" x1="-565.8" y1="24.95" x2="-551.15" y2="24.95" xlink:href="#_未命名的渐变"/>
    <linearGradient id="_未命名的渐变-18" data-name="未命名的渐变" x1="-565.8" y1="42.22" x2="-551.15" y2="42.22" xlink:href="#_未命名的渐变"/>
    <linearGradient id="_未命名的渐变-19" data-name="未命名的渐变" x1="-565.8" y1="59.49" x2="-551.15" y2="59.49" xlink:href="#_未命名的渐变"/>
    <linearGradient id="_未命名的渐变-20" data-name="未命名的渐变" x1="-565.8" y1="76.75" x2="-551.15" y2="76.75" xlink:href="#_未命名的渐变"/>
    <linearGradient id="_未命名的渐变-21" data-name="未命名的渐变" x1="-565.8" y1="94.02" x2="-551.15" y2="94.02" xlink:href="#_未命名的渐变"/>
    <linearGradient id="_未命名的渐变-22" data-name="未命名的渐变" x1="-565.8" y1="111.28" x2="-551.15" y2="111.28" xlink:href="#_未命名的渐变"/>
    <linearGradient id="_未命名的渐变-23" data-name="未命名的渐变" x1="-565.8" y1="128.55" x2="-551.15" y2="128.55" xlink:href="#_未命名的渐变"/>
    <linearGradient id="_未命名的渐变-24" data-name="未命名的渐变" x1="-565.8" y1="145.82" x2="-551.15" y2="145.82" xlink:href="#_未命名的渐变"/>
    <linearGradient id="_未命名的渐变-25" data-name="未命名的渐变" x1="-565.8" y1="163.08" x2="-551.15" y2="163.08" xlink:href="#_未命名的渐变"/>
  </defs>
  <g class="cls-73">
    <g>
      <g>
        <path class="cls-15" d="M8.97,18.96c4.04,0,7.32,3.28,7.32,7.32,0,2.39-1.24,4.69-3.18,6.04-.42.29-2.01,1.36-4.15,1.29-3.28-.11-7.32-2.88-7.32-7.32,0-4.04,3.28-7.32,7.32-7.32Z"/>
        <line class="cls-34" x1="5.11" y1="32.49" x2=".52" y2="55.05"/>
        <path class="cls-34" d="M8.97,33.6c-.03,1.32,1.34,9.06,1.8,12.16.32,2.18.94,6.94,3.88,9.48"/>
      </g>
      <g>
        <path class="cls-2" d="M26.24,18.96c4.04,0,7.32,3.28,7.32,7.32,0,2.39-1.24,4.69-3.18,6.04-.42.29-2.01,1.36-4.15,1.29-3.28-.11-7.32-2.88-7.32-7.32,0-4.04,3.28-7.32,7.32-7.32Z"/>
        <line class="cls-34" x1="22.38" y1="32.49" x2="17.78" y2="55.05"/>
        <path class="cls-34" d="M26.24,33.6c-.03,1.32,1.34,9.06,1.8,12.16.32,2.18.94,6.94,3.88,9.48"/>
      </g>
      <g>
        <path class="cls-31" d="M43.5,18.96c4.04,0,7.32,3.28,7.32,7.32,0,2.39-1.24,4.69-3.18,6.04-.42.29-2.01,1.36-4.15,1.29-3.28-.11-7.32-2.88-7.32-7.32,0-4.04,3.28-7.32,7.32-7.32Z"/>
        <line class="cls-34" x1="39.64" y1="32.49" x2="35.05" y2="55.05"/>
        <path class="cls-34" d="M43.5,33.6c-.03,1.32,1.34,9.06,1.8,12.16.32,2.18.94,6.94,3.88,9.48"/>
      </g>
      <g>
        <path class="cls-33" d="M60.77,18.96c4.04,0,7.32,3.28,7.32,7.32,0,2.39-1.24,4.69-3.18,6.04-.42.29-2.01,1.36-4.15,1.29-3.28-.11-7.32-2.88-7.32-7.32,0-4.04,3.28-7.32,7.32-7.32Z"/>
        <line class="cls-34" x1="56.91" y1="32.49" x2="52.32" y2="55.05"/>
        <path class="cls-34" d="M60.77,33.6c-.03,1.32,1.34,9.06,1.8,12.16.32,2.18.94,6.94,3.88,9.48"/>
      </g>
      <g>
        <path class="cls-16" d="M78.04,18.96c4.04,0,7.32,3.28,7.32,7.32,0,2.39-1.24,4.69-3.18,6.04-.42.29-2.01,1.36-4.15,1.29-3.28-.11-7.32-2.88-7.32-7.32,0-4.04,3.28-7.32,7.32-7.32Z"/>
        <line class="cls-34" x1="74.18" y1="32.49" x2="69.58" y2="55.05"/>
        <path class="cls-34" d="M78.04,33.6c-.03,1.32,1.34,9.06,1.8,12.16.32,2.18.94,6.94,3.88,9.48"/>
      </g>
      <g>
        <path class="cls-46" d="M95.3,18.96c4.04,0,7.32,3.28,7.32,7.32,0,2.39-1.24,4.69-3.18,6.04-.42.29-2.01,1.36-4.15,1.29-3.28-.11-7.32-2.88-7.32-7.32,0-4.04,3.28-7.32,7.32-7.32Z"/>
        <line class="cls-34" x1="91.44" y1="32.49" x2="86.85" y2="55.05"/>
        <path class="cls-34" d="M95.3,33.6c-.03,1.32,1.34,9.06,1.8,12.16.32,2.18.94,6.94,3.88,9.48"/>
      </g>
      <g>
        <path class="cls-37" d="M112.57,18.96c4.04,0,7.32,3.28,7.32,7.32,0,2.39-1.24,4.69-3.18,6.04-.42.29-2.01,1.36-4.15,1.29-3.28-.11-7.32-2.88-7.32-7.32,0-4.04,3.28-7.32,7.32-7.32Z"/>
        <line class="cls-34" x1="108.71" y1="32.49" x2="104.12" y2="55.05"/>
        <path class="cls-34" d="M112.57,33.6c-.03,1.32,1.34,9.06,1.8,12.16.32,2.18.94,6.94,3.88,9.48"/>
      </g>
      <g>
        <path class="cls-25" d="M129.83,18.96c4.04,0,7.32,3.28,7.32,7.32,0,2.39-1.24,4.69-3.18,6.04-.42.29-2.01,1.36-4.15,1.29-3.28-.11-7.32-2.88-7.32-7.32,0-4.04,3.28-7.32,7.32-7.32Z"/>
        <line class="cls-34" x1="125.98" y1="32.49" x2="121.38" y2="55.05"/>
        <path class="cls-34" d="M129.83,33.6c-.03,1.32,1.34,9.06,1.8,12.16.32,2.18.94,6.94,3.88,9.48"/>
      </g>
      <g>
        <path class="cls-17" d="M147.1,18.96c4.04,0,7.32,3.28,7.32,7.32,0,2.39-1.24,4.69-3.18,6.04-.42.29-2.01,1.36-4.15,1.29-3.28-.11-7.32-2.88-7.32-7.32,0-4.04,3.28-7.32,7.32-7.32Z"/>
        <line class="cls-34" x1="143.24" y1="32.49" x2="138.65" y2="55.05"/>
        <path class="cls-34" d="M147.1,33.6c-.03,1.32,1.34,9.06,1.8,12.16.32,2.18.94,6.94,3.88,9.48"/>
      </g>
      <g>
        <path class="cls-49" d="M164.37,18.96c4.04,0,7.32,3.28,7.32,7.32,0,2.39-1.24,4.69-3.18,6.04-.42.29-2.01,1.36-4.15,1.29-3.28-.11-7.32-2.88-7.32-7.32,0-4.04,3.28-7.32,7.32-7.32Z"/>
        <line class="cls-34" x1="160.51" y1="32.49" x2="155.92" y2="55.05"/>
        <path class="cls-34" d="M164.37,33.6c-.03,1.32,1.34,9.06,1.8,12.16.32,2.18.94,6.94,3.88,9.48"/>
      </g>
      <g>
        <path class="cls-28" d="M181.63,18.96c4.04,0,7.32,3.28,7.32,7.32,0,2.39-1.24,4.69-3.18,6.04-.42.29-2.01,1.36-4.15,1.29-3.28-.11-7.32-2.88-7.32-7.32,0-4.04,3.28-7.32,7.32-7.32Z"/>
        <line class="cls-34" x1="177.77" y1="32.49" x2="173.18" y2="55.05"/>
        <path class="cls-34" d="M181.63,33.6c-.03,1.32,1.34,9.06,1.8,12.16.32,2.18.94,6.94,3.88,9.48"/>
      </g>
      <g>
        <path class="cls-43" d="M198.9,18.96c4.04,0,7.32,3.28,7.32,7.32,0,2.39-1.24,4.69-3.18,6.04-.42.29-2.01,1.36-4.15,1.29-3.28-.11-7.32-2.88-7.32-7.32,0-4.04,3.28-7.32,7.32-7.32Z"/>
        <line class="cls-34" x1="195.04" y1="32.49" x2="190.45" y2="55.05"/>
        <path class="cls-34" d="M198.9,33.6c-.03,1.32,1.34,9.06,1.8,12.16.32,2.18.94,6.94,3.88,9.48"/>
      </g>
      <g>
        <path class="cls-56" d="M216.17,18.96c4.04,0,7.32,3.28,7.32,7.32,0,2.39-1.24,4.69-3.18,6.04-.42.29-2.01,1.36-4.15,1.29-3.28-.11-7.32-2.88-7.32-7.32,0-4.04,3.28-7.32,7.32-7.32Z"/>
        <line class="cls-34" x1="212.31" y1="32.49" x2="207.71" y2="55.05"/>
        <path class="cls-34" d="M216.17,33.6c-.03,1.32,1.34,9.06,1.8,12.16.32,2.18.94,6.94,3.88,9.48"/>
      </g>
      <g>
        <path class="cls-51" d="M233.43,18.96c4.04,0,7.32,3.28,7.32,7.32,0,2.39-1.24,4.69-3.18,6.04-.42.29-2.01,1.36-4.15,1.29-3.28-.11-7.32-2.88-7.32-7.32,0-4.04,3.28-7.32,7.32-7.32Z"/>
        <line class="cls-34" x1="229.57" y1="32.49" x2="224.98" y2="55.05"/>
        <path class="cls-34" d="M233.43,33.6c-.03,1.32,1.34,9.06,1.8,12.16.32,2.18.94,6.94,3.88,9.48"/>
      </g>
      <g>
        <path class="cls-5" d="M250.7,18.96c4.04,0,7.32,3.28,7.32,7.32,0,2.39-1.24,4.69-3.18,6.04-.42.29-2.01,1.36-4.15,1.29-3.28-.11-7.32-2.88-7.32-7.32,0-4.04,3.28-7.32,7.32-7.32Z"/>
        <line class="cls-34" x1="246.84" y1="32.49" x2="242.25" y2="55.05"/>
        <path class="cls-34" d="M250.7,33.6c-.03,1.32,1.34,9.06,1.8,12.16.32,2.18.94,6.94,3.88,9.48"/>
      </g>
      <g>
        <path class="cls-42" d="M267.97,18.96c4.04,0,7.32,3.28,7.32,7.32,0,2.39-1.24,4.69-3.18,6.04-.42.29-2.01,1.36-4.15,1.29-3.28-.11-7.32-2.88-7.32-7.32,0-4.04,3.28-7.32,7.32-7.32Z"/>
        <line class="cls-34" x1="264.11" y1="32.49" x2="259.51" y2="55.05"/>
        <path class="cls-34" d="M267.97,33.6c-.03,1.32,1.34,9.06,1.8,12.16.32,2.18.94,6.94,3.88,9.48"/>
      </g>
      <g>
        <path class="cls-55" d="M285.23,18.96c4.04,0,7.32,3.28,7.32,7.32,0,2.39-1.24,4.69-3.18,6.04-.42.29-2.01,1.36-4.15,1.29-3.28-.11-7.32-2.88-7.32-7.32,0-4.04,3.28-7.32,7.32-7.32Z"/>
        <line class="cls-34" x1="281.37" y1="32.49" x2="276.78" y2="55.05"/>
        <path class="cls-34" d="M285.23,33.6c-.03,1.32,1.34,9.06,1.8,12.16.32,2.18.94,6.94,3.88,9.48"/>
      </g>
      <g>
        <path class="cls-12" d="M302.5,18.96c4.04,0,7.32,3.28,7.32,7.32,0,2.39-1.24,4.69-3.18,6.04-.42.29-2.01,1.36-4.15,1.29-3.28-.11-7.32-2.88-7.32-7.32,0-4.04,3.28-7.32,7.32-7.32Z"/>
        <line class="cls-34" x1="298.64" y1="32.49" x2="294.05" y2="55.05"/>
        <path class="cls-34" d="M302.5,33.6c-.03,1.32,1.34,9.06,1.8,12.16.32,2.18.94,6.94,3.88,9.48"/>
      </g>
      <g>
        <path class="cls-30" d="M319.76,18.96c4.04,0,7.32,3.28,7.32,7.32,0,2.39-1.24,4.69-3.18,6.04-.42.29-2.01,1.36-4.15,1.29-3.28-.11-7.32-2.88-7.32-7.32,0-4.04,3.28-7.32,7.32-7.32Z"/>
        <line class="cls-34" x1="315.91" y1="32.49" x2="311.31" y2="55.05"/>
        <path class="cls-34" d="M319.76,33.6c-.03,1.32,1.34,9.06,1.8,12.16.32,2.18.94,6.94,3.88,9.48"/>
      </g>
      <g>
        <path class="cls-27" d="M337.03,18.96c4.04,0,7.32,3.28,7.32,7.32,0,2.39-1.24,4.69-3.18,6.04-.42.29-2.01,1.36-4.15,1.29-3.28-.11-7.32-2.88-7.32-7.32,0-4.04,3.28-7.32,7.32-7.32Z"/>
        <line class="cls-34" x1="333.17" y1="32.49" x2="328.58" y2="55.05"/>
        <path class="cls-34" d="M337.03,33.6c-.03,1.32,1.34,9.06,1.8,12.16.32,2.18.94,6.94,3.88,9.48"/>
      </g>
      <g>
        <path class="cls-45" d="M354.3,18.96c4.04,0,7.32,3.28,7.32,7.32,0,2.39-1.24,4.69-3.18,6.04-.42.29-2.01,1.36-4.15,1.29-3.28-.11-7.32-2.88-7.32-7.32,0-4.04,3.28-7.32,7.32-7.32Z"/>
        <line class="cls-34" x1="350.44" y1="32.49" x2="345.84" y2="55.05"/>
        <path class="cls-34" d="M354.3,33.6c-.03,1.32,1.34,9.06,1.8,12.16.32,2.18.94,6.94,3.88,9.48"/>
      </g>
      <g>
        <path class="cls-50" d="M371.56,18.96c4.04,0,7.32,3.28,7.32,7.32,0,2.39-1.24,4.69-3.18,6.04-.42.29-2.01,1.36-4.15,1.29-3.28-.11-7.32-2.88-7.32-7.32,0-4.04,3.28-7.32,7.32-7.32Z"/>
        <line class="cls-34" x1="367.7" y1="32.49" x2="363.11" y2="55.05"/>
        <path class="cls-34" d="M371.56,33.6c-.03,1.32,1.34,9.06,1.8,12.16.32,2.18.94,6.94,3.88,9.48"/>
      </g>
      <g>
        <path class="cls-38" d="M388.83,18.96c4.04,0,7.32,3.28,7.32,7.32,0,2.39-1.24,4.69-3.18,6.04-.42.29-2.01,1.36-4.15,1.29-3.28-.11-7.32-2.88-7.32-7.32,0-4.04,3.28-7.32,7.32-7.32Z"/>
        <line class="cls-34" x1="384.97" y1="32.49" x2="380.38" y2="55.05"/>
        <path class="cls-34" d="M388.83,33.6c-.03,1.32,1.34,9.06,1.8,12.16.32,2.18.94,6.94,3.88,9.48"/>
      </g>
      <g>
        <path class="cls-6" d="M406.1,18.96c4.04,0,7.32,3.28,7.32,7.32,0,2.39-1.24,4.69-3.18,6.04-.42.29-2.01,1.36-4.15,1.29-3.28-.11-7.32-2.88-7.32-7.32,0-4.04,3.28-7.32,7.32-7.32Z"/>
        <line class="cls-34" x1="402.24" y1="32.49" x2="397.64" y2="55.05"/>
        <path class="cls-34" d="M406.1,33.6c-.03,1.32,1.34,9.06,1.8,12.16.32,2.18.94,6.94,3.88,9.48"/>
      </g>
      <g>
        <path class="cls-57" d="M423.36,18.96c4.04,0,7.32,3.28,7.32,7.32,0,2.39-1.24,4.69-3.18,6.04-.42.29-2.01,1.36-4.15,1.29-3.28-.11-7.32-2.88-7.32-7.32,0-4.04,3.28-7.32,7.32-7.32Z"/>
        <line class="cls-34" x1="419.5" y1="32.49" x2="414.91" y2="55.05"/>
        <path class="cls-34" d="M423.36,33.6c-.03,1.32,1.34,9.06,1.8,12.16.32,2.18.94,6.94,3.88,9.48"/>
      </g>
    </g>
  </g>
  <g class="cls-71">
    <g>
      <g>
        <path class="cls-10" d="M422.51,94.8c-4.04,0-7.32-3.28-7.32-7.33,0-2.39,1.24-4.69,3.18-6.04.42-.29,2.01-1.36,4.15-1.28,3.28.11,7.32,2.88,7.32,7.33,0,4.04-3.28,7.32-7.33,7.32Z"/>
        <line class="cls-34" x1="426.37" y1="81.26" x2="430.98" y2="58.71"/>
        <path class="cls-34" d="M422.52,80.15c.04-1.32-1.34-9.07-1.79-12.16-.32-2.18-.94-6.94-3.87-9.49"/>
      </g>
      <g>
        <path class="cls-40" d="M405.24,94.79c-4.04,0-7.32-3.28-7.32-7.33,0-2.39,1.24-4.69,3.18-6.04.42-.29,2.01-1.36,4.15-1.28,3.28.11,7.32,2.88,7.32,7.33,0,4.04-3.28,7.32-7.33,7.32Z"/>
        <line class="cls-34" x1="409.11" y1="81.26" x2="413.71" y2="58.7"/>
        <path class="cls-34" d="M405.25,80.15c.04-1.32-1.34-9.07-1.79-12.16-.32-2.18-.94-6.94-3.87-9.49"/>
      </g>
      <g>
        <path class="cls-24" d="M387.98,94.78c-4.04,0-7.32-3.28-7.32-7.33,0-2.39,1.24-4.69,3.18-6.04.42-.29,2.01-1.36,4.15-1.28,3.28.11,7.32,2.88,7.32,7.33,0,4.04-3.28,7.32-7.33,7.32Z"/>
        <line class="cls-34" x1="391.84" y1="81.25" x2="396.44" y2="58.69"/>
        <path class="cls-34" d="M387.98,80.14c.04-1.32-1.34-9.07-1.79-12.16-.32-2.18-.94-6.94-3.87-9.49"/>
      </g>
      <g>
        <path class="cls-4" d="M370.71,94.78c-4.04,0-7.32-3.28-7.32-7.33,0-2.39,1.24-4.69,3.18-6.04.42-.29,2.01-1.36,4.15-1.28,3.28.11,7.32,2.88,7.32,7.33,0,4.04-3.28,7.32-7.33,7.32Z"/>
        <line class="cls-34" x1="374.58" y1="81.24" x2="379.18" y2="58.68"/>
        <path class="cls-34" d="M370.72,80.13c.04-1.32-1.34-9.07-1.79-12.16-.32-2.18-.94-6.94-3.87-9.49"/>
      </g>
      <g>
        <path class="cls-36" d="M353.44,94.77c-4.04,0-7.32-3.28-7.32-7.33,0-2.39,1.24-4.69,3.18-6.04.42-.29,2.01-1.36,4.15-1.28,3.28.11,7.32,2.88,7.32,7.33,0,4.04-3.28,7.32-7.33,7.32Z"/>
        <line class="cls-34" x1="357.31" y1="81.23" x2="361.91" y2="58.68"/>
        <path class="cls-34" d="M353.45,80.13c.04-1.32-1.34-9.07-1.79-12.16-.32-2.18-.94-6.94-3.87-9.49"/>
      </g>
      <g>
        <path class="cls-48" d="M336.18,94.76c-4.04,0-7.32-3.28-7.32-7.33,0-2.39,1.24-4.69,3.18-6.04.42-.29,2.01-1.36,4.15-1.28,3.28.11,7.32,2.88,7.32,7.33,0,4.04-3.28,7.32-7.33,7.32Z"/>
        <line class="cls-34" x1="340.04" y1="81.23" x2="344.65" y2="58.67"/>
        <path class="cls-34" d="M336.18,80.12c.04-1.32-1.34-9.07-1.79-12.16-.32-2.18-.94-6.94-3.87-9.49"/>
      </g>
      <g>
        <path class="cls-52" d="M318.91,94.76c-4.04,0-7.32-3.28-7.32-7.33,0-2.39,1.24-4.69,3.18-6.04.42-.29,2.01-1.36,4.15-1.28,3.28.11,7.32,2.88,7.32,7.33,0,4.04-3.28,7.32-7.33,7.32Z"/>
        <line class="cls-34" x1="322.78" y1="81.22" x2="327.38" y2="58.66"/>
        <path class="cls-34" d="M318.92,80.11c.04-1.32-1.34-9.07-1.79-12.16-.32-2.18-.94-6.94-3.87-9.49"/>
      </g>
      <g>
        <path class="cls-44" d="M301.65,94.75c-4.04,0-7.32-3.28-7.32-7.33,0-2.39,1.24-4.69,3.18-6.04.42-.29,2.01-1.36,4.15-1.28,3.28.11,7.32,2.88,7.32,7.33,0,4.04-3.28,7.32-7.33,7.32Z"/>
        <line class="cls-34" x1="305.51" y1="81.21" x2="310.11" y2="58.66"/>
        <path class="cls-34" d="M301.65,80.1c.04-1.32-1.34-9.07-1.79-12.16-.32-2.18-.94-6.94-3.87-9.49"/>
      </g>
      <g>
        <path class="cls-3" d="M284.38,94.74c-4.04,0-7.32-3.28-7.32-7.33,0-2.39,1.24-4.69,3.18-6.04.42-.29,2.01-1.36,4.15-1.28,3.28.11,7.32,2.88,7.32,7.33,0,4.04-3.28,7.32-7.33,7.32Z"/>
        <line class="cls-34" x1="288.24" y1="81.21" x2="292.85" y2="58.65"/>
        <path class="cls-34" d="M284.39,80.1c.04-1.32-1.34-9.07-1.79-12.16-.32-2.18-.94-6.94-3.87-9.49"/>
      </g>
      <g>
        <path class="cls-32" d="M267.11,94.73c-4.04,0-7.32-3.28-7.32-7.33,0-2.39,1.24-4.69,3.18-6.04.42-.29,2.01-1.36,4.15-1.28,3.28.11,7.32,2.88,7.32,7.33,0,4.04-3.28,7.32-7.33,7.32Z"/>
        <line class="cls-34" x1="270.98" y1="81.2" x2="275.58" y2="58.64"/>
        <path class="cls-34" d="M267.12,80.09c.04-1.32-1.34-9.07-1.79-12.16-.32-2.18-.94-6.94-3.87-9.49"/>
      </g>
      <g>
        <path class="cls-29" d="M249.85,94.73c-4.04,0-7.32-3.28-7.32-7.33,0-2.39,1.24-4.69,3.18-6.04.42-.29,2.01-1.36,4.15-1.28,3.28.11,7.32,2.88,7.32,7.33,0,4.04-3.28,7.32-7.33,7.32Z"/>
        <line class="cls-34" x1="253.71" y1="81.19" x2="258.31" y2="58.63"/>
        <path class="cls-34" d="M249.85,80.08c.04-1.32-1.34-9.07-1.79-12.16-.32-2.18-.94-6.94-3.87-9.49"/>
      </g>
      <g>
        <path class="cls-7" d="M232.58,94.72c-4.04,0-7.32-3.28-7.32-7.33,0-2.39,1.24-4.69,3.18-6.04.42-.29,2.01-1.36,4.15-1.28,3.28.11,7.32,2.88,7.32,7.33,0,4.04-3.28,7.32-7.33,7.32Z"/>
        <line class="cls-34" x1="236.44" y1="81.18" x2="241.05" y2="58.63"/>
        <path class="cls-34" d="M232.59,80.07c.04-1.32-1.34-9.07-1.79-12.16-.32-2.18-.94-6.94-3.87-9.49"/>
      </g>
      <g>
        <path class="cls-23" d="M215.31,94.71c-4.04,0-7.32-3.28-7.32-7.33,0-2.39,1.24-4.69,3.18-6.04.42-.29,2.01-1.36,4.15-1.28,3.28.11,7.32,2.88,7.32,7.33,0,4.04-3.28,7.32-7.33,7.32Z"/>
        <line class="cls-34" x1="219.18" y1="81.18" x2="223.78" y2="58.62"/>
        <path class="cls-34" d="M215.32,80.07c.04-1.32-1.34-9.07-1.79-12.16-.32-2.18-.94-6.94-3.87-9.49"/>
      </g>
      <g>
        <path class="cls-19" d="M198.05,94.7c-4.04,0-7.32-3.28-7.32-7.33,0-2.39,1.24-4.69,3.18-6.04.42-.29,2.01-1.36,4.15-1.28,3.28.11,7.32,2.88,7.32,7.33,0,4.04-3.28,7.32-7.33,7.32Z"/>
        <line class="cls-34" x1="201.91" y1="81.17" x2="206.51" y2="58.61"/>
        <path class="cls-34" d="M198.05,80.06c.04-1.32-1.34-9.07-1.79-12.16-.32-2.18-.94-6.94-3.87-9.49"/>
      </g>
      <g>
        <path class="cls-14" d="M180.78,94.7c-4.04,0-7.32-3.28-7.32-7.33,0-2.39,1.24-4.69,3.18-6.04.42-.29,2.01-1.36,4.15-1.28,3.28.11,7.32,2.88,7.32,7.33,0,4.04-3.28,7.32-7.33,7.32Z"/>
        <line class="cls-34" x1="184.65" y1="81.16" x2="189.25" y2="58.6"/>
        <path class="cls-34" d="M180.79,80.05c.04-1.32-1.34-9.07-1.79-12.16-.32-2.18-.94-6.94-3.87-9.49"/>
      </g>
      <g>
        <path class="cls-1" d="M163.51,94.69c-4.04,0-7.32-3.28-7.32-7.33,0-2.39,1.24-4.69,3.18-6.04.42-.29,2.01-1.36,4.15-1.28,3.28.11,7.32,2.88,7.32,7.33,0,4.04-3.28,7.32-7.33,7.32Z"/>
        <line class="cls-34" x1="167.38" y1="81.15" x2="171.98" y2="58.6"/>
        <path class="cls-34" d="M163.52,80.04c.04-1.32-1.34-9.07-1.79-12.16-.32-2.18-.94-6.94-3.87-9.49"/>
      </g>
      <g>
        <path class="cls-20" d="M146.25,94.68c-4.04,0-7.32-3.28-7.32-7.33,0-2.39,1.24-4.69,3.18-6.04.42-.29,2.01-1.36,4.15-1.28,3.28.11,7.32,2.88,7.32,7.33,0,4.04-3.28,7.32-7.33,7.32Z"/>
        <line class="cls-34" x1="150.11" y1="81.15" x2="154.72" y2="58.59"/>
        <path class="cls-34" d="M146.25,80.04c.04-1.32-1.34-9.07-1.79-12.16-.32-2.18-.94-6.94-3.87-9.49"/>
      </g>
      <g>
        <path class="cls-13" d="M128.98,94.67c-4.04,0-7.32-3.28-7.32-7.33,0-2.39,1.24-4.69,3.18-6.04.42-.29,2.01-1.36,4.15-1.28,3.28.11,7.32,2.88,7.32,7.33,0,4.04-3.28,7.32-7.33,7.32Z"/>
        <line class="cls-34" x1="132.85" y1="81.14" x2="137.45" y2="58.58"/>
        <path class="cls-34" d="M128.99,80.03c.04-1.32-1.34-9.07-1.79-12.16-.32-2.18-.94-6.94-3.87-9.49"/>
      </g>
      <g>
        <path class="cls-18" d="M111.72,94.67c-4.04,0-7.32-3.28-7.32-7.33,0-2.39,1.24-4.69,3.18-6.04.42-.29,2.01-1.36,4.15-1.28,3.28.11,7.32,2.88,7.32,7.33,0,4.04-3.28,7.32-7.33,7.32Z"/>
        <line class="cls-34" x1="115.58" y1="81.13" x2="120.18" y2="58.57"/>
        <path class="cls-34" d="M111.72,80.02c.04-1.32-1.34-9.07-1.79-12.16-.32-2.18-.94-6.94-3.87-9.49"/>
      </g>
      <g>
        <path class="cls-22" d="M94.45,94.66c-4.04,0-7.32-3.28-7.32-7.33,0-2.39,1.24-4.69,3.18-6.04.42-.29,2.01-1.36,4.15-1.28,3.28.11,7.32,2.88,7.32,7.33,0,4.04-3.28,7.32-7.33,7.32Z"/>
        <line class="cls-34" x1="98.31" y1="81.12" x2="102.92" y2="58.57"/>
        <path class="cls-34" d="M94.46,80.02c.04-1.32-1.34-9.07-1.79-12.16-.32-2.18-.94-6.94-3.87-9.49"/>
      </g>
      <g>
        <path class="cls-54" d="M77.18,94.65c-4.04,0-7.32-3.28-7.32-7.33,0-2.39,1.24-4.69,3.18-6.04.42-.29,2.01-1.36,4.15-1.28,3.28.11,7.32,2.88,7.32,7.33,0,4.04-3.28,7.32-7.33,7.32Z"/>
        <line class="cls-34" x1="81.05" y1="81.12" x2="85.65" y2="58.56"/>
        <path class="cls-34" d="M77.19,80.01c.04-1.32-1.34-9.07-1.79-12.16-.32-2.18-.94-6.94-3.87-9.49"/>
      </g>
      <g>
        <path class="cls-21" d="M59.92,94.65c-4.04,0-7.32-3.28-7.32-7.33,0-2.39,1.24-4.69,3.18-6.04.42-.29,2.01-1.36,4.15-1.28,3.28.11,7.32,2.88,7.32,7.33,0,4.04-3.28,7.32-7.33,7.32Z"/>
        <line class="cls-34" x1="63.78" y1="81.11" x2="68.38" y2="58.55"/>
        <path class="cls-34" d="M59.92,80c.04-1.32-1.34-9.07-1.79-12.16-.32-2.18-.94-6.94-3.87-9.49"/>
      </g>
      <g>
        <path class="cls-26" d="M42.65,94.64c-4.04,0-7.32-3.28-7.32-7.33,0-2.39,1.24-4.69,3.18-6.04.42-.29,2.01-1.36,4.15-1.28,3.28.11,7.32,2.88,7.32,7.33,0,4.04-3.28,7.32-7.33,7.32Z"/>
        <line class="cls-34" x1="46.51" y1="81.1" x2="51.12" y2="58.55"/>
        <path class="cls-34" d="M42.66,79.99c.04-1.32-1.34-9.07-1.79-12.16-.32-2.18-.94-6.94-3.87-9.49"/>
      </g>
      <g>
        <path class="cls-39" d="M25.38,94.63c-4.04,0-7.32-3.28-7.32-7.33,0-2.39,1.24-4.69,3.18-6.04.42-.29,2.01-1.36,4.15-1.28,3.28.11,7.32,2.88,7.32,7.33,0,4.04-3.28,7.32-7.33,7.32Z"/>
        <line class="cls-34" x1="29.25" y1="81.1" x2="33.85" y2="58.54"/>
        <path class="cls-34" d="M25.39,79.99c.04-1.32-1.34-9.07-1.79-12.16-.32-2.18-.94-6.94-3.87-9.49"/>
      </g>
      <g>
        <path class="cls-8" d="M8.12,94.62c-4.04,0-7.32-3.28-7.32-7.33,0-2.39,1.24-4.69,3.18-6.04.42-.29,2.01-1.36,4.15-1.28,3.28.11,7.32,2.88,7.32,7.33,0,4.04-3.28,7.32-7.33,7.32Z"/>
        <line class="cls-34" x1="11.98" y1="81.09" x2="16.58" y2="58.53"/>
        <path class="cls-34" d="M8.12,79.98c.04-1.32-1.34-9.07-1.79-12.16-.32-2.18-.94-6.94-3.87-9.49"/>
      </g>
    </g>
  </g>
  <text class="cls-59" transform="translate(0 9.7)"><tspan x="0" y="0">细胞膜</tspan></text>
  <text class="cls-59" transform="translate(.79 109.34)"><tspan x="0" y="0">胞浆</tspan></text>
  <text class="cls-59" transform="translate(204.42 130.2)"><tspan x="0" y="0">葡萄糖</tspan></text>
  <text class="cls-60" transform="translate(157 148.34)"><tspan x="0" y="0">己糖激酶</tspan></text>
  <text class="cls-65" transform="translate(239.96 148.34)"><tspan x="0" y="0">-1 ATP</tspan></text>
  <text class="cls-59" transform="translate(183.41 167.7)"><tspan x="0" y="0">葡萄糖-6-磷酸</tspan></text>
  <text class="cls-59" transform="translate(123 187.55)"><tspan x="0" y="0">磷酸己糖异构酶</tspan></text>
  <text class="cls-59" transform="translate(192.59 207.14)"><tspan x="0" y="0">果糖-6-磷酸</tspan></text>
  <text class="cls-60" transform="translate(128.33 224.75)"><tspan x="0" y="0">6磷酸果糖激酶</tspan></text>
  <text class="cls-65" transform="translate(239.96 187.55)"><tspan x="0" y="0">-1 ATP</tspan></text>
  <text class="cls-59" transform="translate(301.16 202.8)"><tspan x="0" y="0">最重要</tspan><tspan x="0" y="14.4">的一步</tspan></text>
  <text class="cls-59" transform="translate(174.91 243.67)"><tspan x="0" y="0">1,6-果糖二磷酸</tspan></text>
  <text class="cls-58" transform="translate(135.77 257.39)"><tspan x="0" y="0">折半分解</tspan></text>
  <text class="cls-59" transform="translate(102.83 276.34)"><tspan x="0" y="0">磷酸二羟丙酮</tspan></text>
  <text class="cls-58" transform="translate(206.47 265.4)"><tspan x="0" y="0">最终</tspan></text>
  <text class="cls-61" transform="translate(198.02 287.13)"><tspan x="0" y="0">互相转化</tspan></text>
  <text class="cls-59" transform="translate(276.37 366.8)"><tspan x="0" y="0">3-磷酸甘油醛</tspan></text>
  <text class="cls-60" transform="translate(280.39 291.29)"><tspan x="0" y="0">（2分子）</tspan></text>
  <text class="cls-59" transform="translate(183.97 310.49)"><tspan x="0" y="0">3-磷酸甘油醛脱氢酶</tspan></text>
  <text class="cls-67" transform="translate(323.19 310.49)"><tspan x="0" y="0">+1 NADH+H</tspan></text>
  <text class="cls-62" transform="translate(255.64 329.21)"><tspan x="0" y="0">1,3-二磷酸甘油酸</tspan></text>
  <text class="cls-62" transform="translate(205.93 348.92)"><tspan x="0" y="0">磷酸甘油酸激酶</tspan></text>
  <text class="cls-62" transform="translate(264.7 276.34)"><tspan x="0" y="0">3-磷酸甘油酸</tspan></text>
  <text class="cls-62" transform="translate(276.91 398.4)"><tspan x="0" y="0">2-磷酸甘油酸</tspan></text>
  <text class="cls-62" transform="translate(239.96 417.97)"><tspan x="0" y="0">烯醇化酶</tspan></text>
  <text class="cls-62" transform="translate(261.86 439.44)"><tspan x="0" y="0">磷酸烯醇式丙酮酸</tspan></text>
  <text class="cls-64" transform="translate(232.42 458.84)"><tspan x="0" y="0">丙酮酸激酶</tspan></text>
  <text class="cls-66" transform="translate(326.03 458.84)"><tspan x="0" y="0">+1 ATP</tspan></text>
  <text class="cls-62" transform="translate(276.91 478.33)"><tspan x="0" y="0">烯醇式丙酮酸</tspan></text>
  <text class="cls-62" transform="translate(291.5 508.33)"><tspan x="0" y="0">丙酮酸</tspan></text>
  <text class="cls-62" transform="translate(298.34 539.24)"><tspan x="0" y="0">乳酸</tspan></text>
  <g>
    <line class="cls-35" x1="222.24" y1="133.74" x2="222.24" y2="153.85"/>
    <polygon class="cls-70" points="222.24 158.09 219.81 152.12 222.24 153.54 224.68 152.12 222.24 158.09"/>
  </g>
  <g>
    <line class="cls-47" x1="222.24" y1="177.42" x2="222.24" y2="193.3"/>
    <polygon class="cls-68" points="222.24 173.19 219.81 179.16 222.24 177.74 224.68 179.16 222.24 173.19"/>
    <polygon class="cls-68" points="222.24 197.54 219.81 191.57 222.24 192.98 224.68 191.57 222.24 197.54"/>
  </g>
  <g>
    <line class="cls-35" x1="222.24" y1="209.72" x2="222.24" y2="229.84"/>
    <polygon class="cls-70" points="222.24 234.07 219.81 228.1 222.24 229.52 224.68 228.1 222.24 234.07"/>
  </g>
  <g>
    <line class="cls-47" x1="309.36" y1="297.59" x2="309.36" y2="313.47"/>
    <polygon class="cls-68" points="309.36 293.35 306.92 299.32 309.36 297.91 311.8 299.32 309.36 293.35"/>
    <polygon class="cls-68" points="309.36 317.71 306.92 311.74 309.36 313.15 311.8 311.74 309.36 317.71"/>
  </g>
  <g>
    <line class="cls-47" x1="309.36" y1="336.31" x2="309.36" y2="352.19"/>
    <polygon class="cls-68" points="309.36 332.07 306.92 338.04 309.36 336.62 311.8 338.04 309.36 332.07"/>
    <polygon class="cls-68" points="309.36 356.42 306.92 350.45 309.36 351.87 311.8 350.45 309.36 356.42"/>
  </g>
  <g>
    <line class="cls-47" x1="309.36" y1="373.52" x2="309.36" y2="383.05"/>
    <polygon class="cls-68" points="309.36 369.29 306.92 375.26 309.36 373.84 311.8 375.26 309.36 369.29"/>
    <polygon class="cls-68" points="309.36 387.29 306.92 381.32 309.36 382.73 311.8 381.32 309.36 387.29"/>
  </g>
  <g>
    <line class="cls-47" x1="309.36" y1="407.2" x2="309.36" y2="424.65"/>
    <polygon class="cls-68" points="309.36 402.96 306.92 408.93 309.36 407.52 311.8 408.93 309.36 402.96"/>
    <polygon class="cls-68" points="309.36 428.88 306.92 422.91 309.36 424.33 311.8 422.91 309.36 428.88"/>
  </g>
  <g>
    <line class="cls-35" x1="309.36" y1="442.08" x2="309.36" y2="462.19"/>
    <polygon class="cls-70" points="309.36 466.43 306.92 460.46 309.36 461.88 311.8 460.46 309.36 466.43"/>
  </g>
  <g>
    <line class="cls-47" x1="309.36" y1="485.17" x2="309.36" y2="493.29"/>
    <polygon class="cls-68" points="309.36 480.93 306.92 486.9 309.36 485.48 311.8 486.9 309.36 480.93"/>
    <polygon class="cls-68" points="309.36 497.53 306.92 491.56 309.36 492.97 311.8 491.56 309.36 497.53"/>
  </g>
  <g>
    <line class="cls-47" x1="309.36" y1="515.48" x2="309.36" y2="523.6"/>
    <polygon class="cls-68" points="309.36 511.24 306.92 517.21 309.36 515.79 311.8 517.21 309.36 511.24"/>
    <polygon class="cls-68" points="309.36 527.83 306.92 521.86 309.36 523.28 311.8 521.86 309.36 527.83"/>
  </g>
  <g>
    <line class="cls-47" x1="201.6" y1="249.24" x2="179.41" y2="263.28"/>
    <polygon class="cls-68" points="175.83 265.55 179.57 260.3 179.67 263.12 182.17 264.42 175.83 265.55"/>
  </g>
  <g>
    <line class="cls-47" x1="247.53" y1="249.24" x2="275.76" y2="263.63"/>
    <polygon class="cls-68" points="279.53 265.55 273.11 265.01 275.48 263.48 275.32 260.67 279.53 265.55"/>
  </g>
  <g>
    <line class="cls-47" x1="179.28" y1="269.48" x2="256.95" y2="269.48"/>
    <polygon class="cls-68" points="261.19 269.48 255.22 271.92 256.64 269.48 255.22 267.04 261.19 269.48"/>
  </g>
  <g>
    <line class="cls-47" x1="183.52" y1="276.34" x2="261.19" y2="276.34"/>
    <polygon class="cls-68" points="179.28 276.34 185.25 278.78 183.84 276.34 185.25 273.9 179.28 276.34"/>
  </g>
  <text class="cls-63" transform="translate(389.89 305.53)"><tspan x="0" y="0">+</tspan></text>
  <g>
    <g>
      <line class="cls-53" x1="398.24" y1="305.53" x2="400.24" y2="305.53"/>
      <line class="cls-11" x1="403.68" y1="305.53" x2="415.69" y2="305.53"/>
      <line class="cls-53" x1="417.41" y1="305.53" x2="419.41" y2="305.53"/>
    </g>
    <g>
      <line class="cls-53" x1="419.41" y1="305.53" x2="419.41" y2="307.53"/>
      <line class="cls-9" x1="419.41" y1="311.49" x2="419.41" y2="515.56"/>
      <line class="cls-53" x1="419.41" y1="517.54" x2="419.41" y2="519.54"/>
    </g>
    <g>
      <line class="cls-53" x1="419.41" y1="519.54" x2="417.41" y2="519.54"/>
      <line class="cls-41" x1="413.32" y1="519.54" x2="325.49" y2="519.54"/>
      <line class="cls-53" x1="323.45" y1="519.54" x2="321.45" y2="519.54"/>
      <polygon class="cls-72" points="317.21 519.54 323.18 517.1 321.77 519.54 323.18 521.98 317.21 519.54"/>
    </g>
  </g>
  <text class="cls-62" transform="translate(10.84 164.86)"><tspan x="0" y="0">引</tspan><tspan x="0" y="14.4">发</tspan><tspan x="0" y="28.8">阶</tspan><tspan x="0" y="43.2">段</tspan></text>
  <text class="cls-62" transform="translate(11.33 256.1)"><tspan x="0" y="0">裂</tspan><tspan x="0" y="14.4">解</tspan><tspan x="0" y="28.8">阶</tspan><tspan x="0" y="43.2">段</tspan></text>
  <text class="cls-62" transform="translate(12.24 387.29)"><tspan x="0" y="0">氧</tspan><tspan x="0" y="14.4">化</tspan><tspan x="0" y="28.8">还</tspan><tspan x="0" y="43.2">原</tspan><tspan x="0" y="57.6">阶</tspan><tspan x="0" y="72">段</tspan></text>
  <line class="cls-47" x1="201.6" y1="126.51" y2="126.51"/>
  <line class="cls-47" x1="170.58" y1="241.09" y2="241.09"/>
  <line class="cls-47" x1="179.37" y1="306.58" y2="306.58"/>
  <line class="cls-47" x1="292.88" y1="536.32" y2="536.32"/>
</svg>