<?xml version="1.0" encoding="UTF-8"?>
<svg id="_图层_1" data-name="图层 1" xmlns="http://www.w3.org/2000/svg" xmlns:xlink="http://www.w3.org/1999/xlink" viewBox="0 0 468.96 318.88">
  <defs>
    <style>
      .cls-1 {
        fill: url(#_未命名的渐变_2-5);
      }

      .cls-1, .cls-2, .cls-3, .cls-4, .cls-5, .cls-6, .cls-7, .cls-8, .cls-9, .cls-10, .cls-11, .cls-12, .cls-13, .cls-14, .cls-15, .cls-16, .cls-17, .cls-18, .cls-19, .cls-20, .cls-21, .cls-22, .cls-23, .cls-24, .cls-25, .cls-26, .cls-27, .cls-28, .cls-29, .cls-30, .cls-31, .cls-32, .cls-33, .cls-34, .cls-35, .cls-36, .cls-37, .cls-38, .cls-39, .cls-40, .cls-41, .cls-42, .cls-43, .cls-44, .cls-45, .cls-46, .cls-47, .cls-48, .cls-49, .cls-50, .cls-51, .cls-52, .cls-53, .cls-54, .cls-55, .cls-56, .cls-57, .cls-58, .cls-59, .cls-60, .cls-61, .cls-62, .cls-63, .cls-64, .cls-65, .cls-66, .cls-67, .cls-68, .cls-69, .cls-70, .cls-71, .cls-72, .cls-73, .cls-74, .cls-75, .cls-76, .cls-77, .cls-78, .cls-79, .cls-80, .cls-81, .cls-82, .cls-83, .cls-84 {
        stroke-miterlimit: 10;
      }

      .cls-1, .cls-2, .cls-3, .cls-4, .cls-5, .cls-6, .cls-7, .cls-8, .cls-9, .cls-10, .cls-11, .cls-12, .cls-13, .cls-14, .cls-15, .cls-16, .cls-17, .cls-18, .cls-19, .cls-20, .cls-21, .cls-22, .cls-23, .cls-24, .cls-25, .cls-26, .cls-27, .cls-28, .cls-29, .cls-30, .cls-31, .cls-32, .cls-33, .cls-34, .cls-35, .cls-36, .cls-37, .cls-38, .cls-39, .cls-40, .cls-41, .cls-42, .cls-43, .cls-44, .cls-45, .cls-46, .cls-47, .cls-48, .cls-49, .cls-50, .cls-51, .cls-52, .cls-53, .cls-54, .cls-56, .cls-57, .cls-58, .cls-59, .cls-60, .cls-61, .cls-62, .cls-63, .cls-64, .cls-65, .cls-66, .cls-68, .cls-69, .cls-72, .cls-74, .cls-75, .cls-76, .cls-77, .cls-78, .cls-79, .cls-80, .cls-81, .cls-82, .cls-83, .cls-84 {
        stroke: #898989;
      }

      .cls-2 {
        fill: url(#_未命名的渐变_2-26);
      }

      .cls-3 {
        fill: url(#_未命名的渐变_2-34);
      }

      .cls-4 {
        fill: url(#_未命名的渐变_2-65);
      }

      .cls-5 {
        fill: url(#_未命名的渐变_2-47);
      }

      .cls-6 {
        fill: url(#_未命名的渐变_2-73);
      }

      .cls-7 {
        fill: url(#_未命名的渐变_2-4);
      }

      .cls-8 {
        fill: url(#_未命名的渐变_2-12);
      }

      .cls-9 {
        fill: url(#_未命名的渐变_2-17);
      }

      .cls-10 {
        fill: url(#_未命名的渐变_2-43);
      }

      .cls-11 {
        fill: url(#_未命名的渐变_2-15);
      }

      .cls-12 {
        fill: url(#_未命名的渐变_2-58);
      }

      .cls-13 {
        fill: url(#_未命名的渐变_2-74);
      }

      .cls-14 {
        fill: url(#_未命名的渐变_2-51);
      }

      .cls-15 {
        fill: url(#_未命名的渐变_2-9);
      }

      .cls-16 {
        fill: url(#_未命名的渐变_2-3);
      }

      .cls-17 {
        fill: url(#_未命名的渐变_2-27);
      }

      .cls-18 {
        fill: url(#_未命名的渐变_2-24);
      }

      .cls-19 {
        fill: url(#_未命名的渐变_2-29);
      }

      .cls-20 {
        fill: url(#_未命名的渐变_2-42);
      }

      .cls-21 {
        fill: url(#_未命名的渐变_2-46);
      }

      .cls-22 {
        fill: url(#_未命名的渐变_2-56);
      }

      .cls-23 {
        fill: url(#_未命名的渐变_2-10);
      }

      .cls-24 {
        fill: url(#_未命名的渐变_2-63);
      }

      .cls-25 {
        fill: url(#_未命名的渐变_2-38);
      }

      .cls-26 {
        fill: url(#_未命名的渐变_2-75);
      }

      .cls-85, .cls-70 {
        fill: #fff;
      }

      .cls-27 {
        fill: url(#_未命名的渐变_2-48);
      }

      .cls-28 {
        fill: url(#_未命名的渐变_2-49);
      }

      .cls-86 {
        font-size: 12px;
      }

      .cls-86, .cls-87, .cls-88, .cls-89, .cls-90 {
        fill: #231815;
      }

      .cls-86, .cls-88, .cls-89, .cls-90 {
        font-family: DengXian, DengXian;
      }

      .cls-29 {
        fill: url(#_未命名的渐变_2-19);
      }

      .cls-30 {
        fill: url(#_未命名的渐变_2-69);
      }

      .cls-31 {
        fill: url(#_未命名的渐变_2-76);
      }

      .cls-32 {
        fill: url(#_未命名的渐变_2-52);
      }

      .cls-91, .cls-55, .cls-67, .cls-71, .cls-80 {
        fill: none;
      }

      .cls-33 {
        fill: url(#_未命名的渐变_2-22);
      }

      .cls-34 {
        fill: url(#_未命名的渐变_2-16);
      }

      .cls-35 {
        fill: url(#_未命名的渐变_2-67);
      }

      .cls-36 {
        fill: url(#_未命名的渐变_2-37);
      }

      .cls-37 {
        fill: url(#_未命名的渐变_2-66);
      }

      .cls-92 {
        clip-path: url(#clippath-1);
      }

      .cls-38 {
        fill: url(#_未命名的渐变_2-71);
      }

      .cls-39 {
        fill: url(#_未命名的渐变_2-78);
      }

      .cls-40 {
        fill: url(#_未命名的渐变_2-62);
      }

      .cls-41 {
        fill: url(#_未命名的渐变_2-60);
      }

      .cls-42 {
        fill: url(#_未命名的渐变_2-13);
      }

      .cls-43 {
        fill: url(#_未命名的渐变_2-55);
      }

      .cls-44 {
        fill: url(#_未命名的渐变_2-6);
      }

      .cls-93, .cls-89 {
        font-size: 18px;
      }

      .cls-45 {
        fill: url(#_未命名的渐变_2-45);
      }

      .cls-46 {
        fill: url(#_未命名的渐变_2-32);
      }

      .cls-47 {
        fill: url(#_未命名的渐变_2-50);
      }

      .cls-48 {
        fill: url(#_未命名的渐变_2-7);
      }

      .cls-49 {
        fill: url(#_未命名的渐变_2-21);
      }

      .cls-50 {
        fill: url(#_未命名的渐变_2-18);
      }

      .cls-51 {
        fill: url(#_未命名的渐变_2-77);
      }

      .cls-52 {
        fill: url(#_未命名的渐变_2-14);
      }

      .cls-88 {
        font-size: 8.73px;
      }

      .cls-53 {
        fill: url(#_未命名的渐变_2-44);
      }

      .cls-54 {
        fill: url(#_未命名的渐变_2-23);
      }

      .cls-55, .cls-67, .cls-70, .cls-71, .cls-73 {
        stroke: #231815;
      }

      .cls-55, .cls-71, .cls-80 {
        stroke-linecap: round;
      }

      .cls-56 {
        fill: url(#_未命名的渐变_2-41);
      }

      .cls-57 {
        fill: url(#_未命名的渐变_2-39);
      }

      .cls-58 {
        fill: url(#_未命名的渐变_2-53);
      }

      .cls-59 {
        fill: url(#_未命名的渐变_2-61);
      }

      .cls-60 {
        fill: url(#_未命名的渐变_2-59);
      }

      .cls-61 {
        fill: url(#_未命名的渐变_2-31);
      }

      .cls-62 {
        fill: url(#_未命名的渐变_2-40);
      }

      .cls-63 {
        fill: url(#_未命名的渐变_2-28);
      }

      .cls-64 {
        fill: url(#_未命名的渐变_2-70);
      }

      .cls-65 {
        fill: url(#_未命名的渐变_2-25);
      }

      .cls-94, .cls-95 {
        font-size: 10px;
      }

      .cls-66 {
        fill: url(#_未命名的渐变_2-11);
      }

      .cls-68 {
        fill: url(#_未命名的渐变_2-57);
      }

      .cls-69 {
        fill: url(#_未命名的渐变_2-2);
      }

      .cls-71 {
        stroke-width: 2px;
      }

      .cls-72 {
        fill: url(#_未命名的渐变_2-35);
      }

      .cls-73 {
        fill: #b5b5b6;
      }

      .cls-74 {
        fill: url(#_未命名的渐变_2);
      }

      .cls-95 {
        letter-spacing: 0em;
      }

      .cls-75 {
        fill: url(#_未命名的渐变_2-64);
      }

      .cls-76 {
        fill: url(#_未命名的渐变_2-68);
      }

      .cls-96 {
        clip-path: url(#clippath);
      }

      .cls-77 {
        fill: url(#_未命名的渐变_2-72);
      }

      .cls-78 {
        fill: url(#_未命名的渐变_2-8);
      }

      .cls-79 {
        fill: url(#_未命名的渐变_2-20);
      }

      .cls-81 {
        fill: url(#_未命名的渐变_2-54);
      }

      .cls-82 {
        fill: url(#_未命名的渐变_2-30);
      }

      .cls-83 {
        fill: url(#_未命名的渐变_2-36);
      }

      .cls-84 {
        fill: url(#_未命名的渐变_2-33);
      }
    </style>
    <clipPath id="clippath">
      <rect class="cls-91" x="42.59" y="70.35" width="426.26" height="25.18"/>
    </clipPath>
    <radialGradient id="_未命名的渐变_2" data-name="未命名的渐变 2" cx="47.62" cy="75.38" fx="47.62" fy="75.38" r="4.52" gradientUnits="userSpaceOnUse">
      <stop offset="0" stop-color="#fff"/>
      <stop offset="1" stop-color="#231815"/>
    </radialGradient>
    <radialGradient id="_未命名的渐变_2-2" data-name="未命名的渐变 2" cx="58.56" fx="58.56" xlink:href="#_未命名的渐变_2"/>
    <radialGradient id="_未命名的渐变_2-3" data-name="未命名的渐变 2" cx="69.5" fx="69.5" xlink:href="#_未命名的渐变_2"/>
    <radialGradient id="_未命名的渐变_2-4" data-name="未命名的渐变 2" cx="80.44" fx="80.44" xlink:href="#_未命名的渐变_2"/>
    <radialGradient id="_未命名的渐变_2-5" data-name="未命名的渐变 2" cx="91.38" fx="91.38" xlink:href="#_未命名的渐变_2"/>
    <radialGradient id="_未命名的渐变_2-6" data-name="未命名的渐变 2" cx="102.32" fx="102.32" xlink:href="#_未命名的渐变_2"/>
    <radialGradient id="_未命名的渐变_2-7" data-name="未命名的渐变 2" cx="113.26" fx="113.26" xlink:href="#_未命名的渐变_2"/>
    <radialGradient id="_未命名的渐变_2-8" data-name="未命名的渐变 2" cx="124.2" fx="124.2" xlink:href="#_未命名的渐变_2"/>
    <radialGradient id="_未命名的渐变_2-9" data-name="未命名的渐变 2" cx="135.14" fx="135.14" xlink:href="#_未命名的渐变_2"/>
    <radialGradient id="_未命名的渐变_2-10" data-name="未命名的渐变 2" cx="146.08" fx="146.08" xlink:href="#_未命名的渐变_2"/>
    <radialGradient id="_未命名的渐变_2-11" data-name="未命名的渐变 2" cx="157.02" fx="157.02" xlink:href="#_未命名的渐变_2"/>
    <radialGradient id="_未命名的渐变_2-12" data-name="未命名的渐变 2" cx="167.96" fx="167.96" xlink:href="#_未命名的渐变_2"/>
    <radialGradient id="_未命名的渐变_2-13" data-name="未命名的渐变 2" cx="178.9" fx="178.9" xlink:href="#_未命名的渐变_2"/>
    <radialGradient id="_未命名的渐变_2-14" data-name="未命名的渐变 2" cx="189.84" fx="189.84" xlink:href="#_未命名的渐变_2"/>
    <radialGradient id="_未命名的渐变_2-15" data-name="未命名的渐变 2" cx="200.78" fx="200.78" xlink:href="#_未命名的渐变_2"/>
    <radialGradient id="_未命名的渐变_2-16" data-name="未命名的渐变 2" cx="211.72" fx="211.72" xlink:href="#_未命名的渐变_2"/>
    <radialGradient id="_未命名的渐变_2-17" data-name="未命名的渐变 2" cx="222.66" fx="222.66" xlink:href="#_未命名的渐变_2"/>
    <radialGradient id="_未命名的渐变_2-18" data-name="未命名的渐变 2" cx="233.6" fx="233.6" xlink:href="#_未命名的渐变_2"/>
    <radialGradient id="_未命名的渐变_2-19" data-name="未命名的渐变 2" cx="244.54" fx="244.54" xlink:href="#_未命名的渐变_2"/>
    <radialGradient id="_未命名的渐变_2-20" data-name="未命名的渐变 2" cx="255.48" fx="255.48" xlink:href="#_未命名的渐变_2"/>
    <radialGradient id="_未命名的渐变_2-21" data-name="未命名的渐变 2" cx="266.42" fx="266.42" r="4.52" xlink:href="#_未命名的渐变_2"/>
    <radialGradient id="_未命名的渐变_2-22" data-name="未命名的渐变 2" cx="277.36" fx="277.36" r="4.52" xlink:href="#_未命名的渐变_2"/>
    <radialGradient id="_未命名的渐变_2-23" data-name="未命名的渐变 2" cx="288.3" fx="288.3" r="4.52" xlink:href="#_未命名的渐变_2"/>
    <radialGradient id="_未命名的渐变_2-24" data-name="未命名的渐变 2" cx="299.24" fx="299.24" r="4.52" xlink:href="#_未命名的渐变_2"/>
    <radialGradient id="_未命名的渐变_2-25" data-name="未命名的渐变 2" cx="310.18" fx="310.18" r="4.52" xlink:href="#_未命名的渐变_2"/>
    <radialGradient id="_未命名的渐变_2-26" data-name="未命名的渐变 2" cx="321.12" fx="321.12" r="4.52" xlink:href="#_未命名的渐变_2"/>
    <radialGradient id="_未命名的渐变_2-27" data-name="未命名的渐变 2" cx="332.06" fx="332.06" r="4.52" xlink:href="#_未命名的渐变_2"/>
    <radialGradient id="_未命名的渐变_2-28" data-name="未命名的渐变 2" cx="343" fx="343" r="4.52" xlink:href="#_未命名的渐变_2"/>
    <radialGradient id="_未命名的渐变_2-29" data-name="未命名的渐变 2" cx="353.94" fx="353.94" r="4.52" xlink:href="#_未命名的渐变_2"/>
    <radialGradient id="_未命名的渐变_2-30" data-name="未命名的渐变 2" cx="364.88" fx="364.88" r="4.52" xlink:href="#_未命名的渐变_2"/>
    <radialGradient id="_未命名的渐变_2-31" data-name="未命名的渐变 2" cx="375.82" fx="375.82" r="4.52" xlink:href="#_未命名的渐变_2"/>
    <radialGradient id="_未命名的渐变_2-32" data-name="未命名的渐变 2" cx="386.76" fx="386.76" r="4.52" xlink:href="#_未命名的渐变_2"/>
    <radialGradient id="_未命名的渐变_2-33" data-name="未命名的渐变 2" cx="397.7" fx="397.7" r="4.52" xlink:href="#_未命名的渐变_2"/>
    <radialGradient id="_未命名的渐变_2-34" data-name="未命名的渐变 2" cx="408.64" fx="408.64" r="4.52" xlink:href="#_未命名的渐变_2"/>
    <radialGradient id="_未命名的渐变_2-35" data-name="未命名的渐变 2" cx="419.58" fx="419.58" r="4.52" xlink:href="#_未命名的渐变_2"/>
    <radialGradient id="_未命名的渐变_2-36" data-name="未命名的渐变 2" cx="430.53" fx="430.53" r="4.52" xlink:href="#_未命名的渐变_2"/>
    <radialGradient id="_未命名的渐变_2-37" data-name="未命名的渐变 2" cx="441.47" fx="441.47" r="4.52" xlink:href="#_未命名的渐变_2"/>
    <radialGradient id="_未命名的渐变_2-38" data-name="未命名的渐变 2" cx="452.41" fx="452.41" r="4.52" xlink:href="#_未命名的渐变_2"/>
    <radialGradient id="_未命名的渐变_2-39" data-name="未命名的渐变 2" cx="463.35" fx="463.35" r="4.52" xlink:href="#_未命名的渐变_2"/>
    <clipPath id="clippath-1">
      <rect class="cls-91" x="243.13" y="-106.69" width="25.18" height="426.26" transform="translate(148.09 361.65) rotate(-89.73)"/>
    </clipPath>
    <radialGradient id="_未命名的渐变_2-40" data-name="未命名的渐变 2" cx="546.67" cy="437.69" fx="546.67" fy="437.69" gradientTransform="translate(1008.4 555.21) rotate(-179.73)" xlink:href="#_未命名的渐变_2"/>
    <radialGradient id="_未命名的渐变_2-41" data-name="未命名的渐变 2" cx="557.61" cy="437.69" fx="557.61" fy="437.69" r="4.52" gradientTransform="translate(1008.4 555.21) rotate(-179.73)" xlink:href="#_未命名的渐变_2"/>
    <radialGradient id="_未命名的渐变_2-42" data-name="未命名的渐变 2" cx="568.55" cy="437.69" fx="568.55" fy="437.69" gradientTransform="translate(1008.4 555.21) rotate(-179.73)" xlink:href="#_未命名的渐变_2"/>
    <radialGradient id="_未命名的渐变_2-43" data-name="未命名的渐变 2" cx="579.49" cy="437.69" fx="579.49" fy="437.69" r="4.52" gradientTransform="translate(1008.4 555.21) rotate(-179.73)" xlink:href="#_未命名的渐变_2"/>
    <radialGradient id="_未命名的渐变_2-44" data-name="未命名的渐变 2" cx="590.43" cy="437.69" fx="590.43" fy="437.69" gradientTransform="translate(1008.4 555.21) rotate(-179.73)" xlink:href="#_未命名的渐变_2"/>
    <radialGradient id="_未命名的渐变_2-45" data-name="未命名的渐变 2" cx="601.37" cy="437.69" fx="601.37" fy="437.69" gradientTransform="translate(1008.4 555.21) rotate(-179.73)" xlink:href="#_未命名的渐变_2"/>
    <radialGradient id="_未命名的渐变_2-46" data-name="未命名的渐变 2" cx="612.31" cy="437.69" fx="612.31" fy="437.69" gradientTransform="translate(1008.4 555.21) rotate(-179.73)" xlink:href="#_未命名的渐变_2"/>
    <radialGradient id="_未命名的渐变_2-47" data-name="未命名的渐变 2" cx="623.25" cy="437.69" fx="623.25" fy="437.69" gradientTransform="translate(1008.4 555.21) rotate(-179.73)" xlink:href="#_未命名的渐变_2"/>
    <radialGradient id="_未命名的渐变_2-48" data-name="未命名的渐变 2" cx="634.19" cy="437.69" fx="634.19" fy="437.69" gradientTransform="translate(1008.4 555.21) rotate(-179.73)" xlink:href="#_未命名的渐变_2"/>
    <radialGradient id="_未命名的渐变_2-49" data-name="未命名的渐变 2" cx="645.13" cy="437.69" fx="645.13" fy="437.69" r="4.52" gradientTransform="translate(1008.4 555.21) rotate(-179.73)" xlink:href="#_未命名的渐变_2"/>
    <radialGradient id="_未命名的渐变_2-50" data-name="未命名的渐变 2" cx="656.07" cy="437.69" fx="656.07" fy="437.69" r="4.52" gradientTransform="translate(1008.4 555.21) rotate(-179.73)" xlink:href="#_未命名的渐变_2"/>
    <radialGradient id="_未命名的渐变_2-51" data-name="未命名的渐变 2" cx="667.02" cy="437.69" fx="667.02" fy="437.69" r="4.52" gradientTransform="translate(1008.4 555.21) rotate(-179.73)" xlink:href="#_未命名的渐变_2"/>
    <radialGradient id="_未命名的渐变_2-52" data-name="未命名的渐变 2" cx="677.96" cy="437.69" fx="677.96" fy="437.69" r="4.52" gradientTransform="translate(1008.4 555.21) rotate(-179.73)" xlink:href="#_未命名的渐变_2"/>
    <radialGradient id="_未命名的渐变_2-53" data-name="未命名的渐变 2" cx="688.9" cy="437.69" fx="688.9" fy="437.69" r="4.52" gradientTransform="translate(1008.4 555.21) rotate(-179.73)" xlink:href="#_未命名的渐变_2"/>
    <radialGradient id="_未命名的渐变_2-54" data-name="未命名的渐变 2" cx="699.84" cy="437.69" fx="699.84" fy="437.69" r="4.52" gradientTransform="translate(1008.4 555.21) rotate(-179.73)" xlink:href="#_未命名的渐变_2"/>
    <radialGradient id="_未命名的渐变_2-55" data-name="未命名的渐变 2" cx="710.78" cy="437.69" fx="710.78" fy="437.69" r="4.52" gradientTransform="translate(1008.4 555.21) rotate(-179.73)" xlink:href="#_未命名的渐变_2"/>
    <radialGradient id="_未命名的渐变_2-56" data-name="未命名的渐变 2" cx="721.72" cy="437.69" fx="721.72" fy="437.69" gradientTransform="translate(1008.4 555.21) rotate(-179.73)" xlink:href="#_未命名的渐变_2"/>
    <radialGradient id="_未命名的渐变_2-57" data-name="未命名的渐变 2" cx="732.66" cy="437.69" fx="732.66" fy="437.69" gradientTransform="translate(1008.4 555.21) rotate(-179.73)" xlink:href="#_未命名的渐变_2"/>
    <radialGradient id="_未命名的渐变_2-58" data-name="未命名的渐变 2" cx="743.6" cy="437.69" fx="743.6" fy="437.69" gradientTransform="translate(1008.4 555.21) rotate(-179.73)" xlink:href="#_未命名的渐变_2"/>
    <radialGradient id="_未命名的渐变_2-59" data-name="未命名的渐变 2" cx="754.54" cy="437.69" fx="754.54" fy="437.69" gradientTransform="translate(1008.4 555.21) rotate(-179.73)" xlink:href="#_未命名的渐变_2"/>
    <radialGradient id="_未命名的渐变_2-60" data-name="未命名的渐变 2" cx="765.48" cy="437.69" fx="765.48" fy="437.69" r="4.52" gradientTransform="translate(1008.4 555.21) rotate(-179.73)" xlink:href="#_未命名的渐变_2"/>
    <radialGradient id="_未命名的渐变_2-61" data-name="未命名的渐变 2" cx="776.42" cy="437.69" fx="776.42" fy="437.69" gradientTransform="translate(1008.4 555.21) rotate(-179.73)" xlink:href="#_未命名的渐变_2"/>
    <radialGradient id="_未命名的渐变_2-62" data-name="未命名的渐变 2" cx="787.36" cy="437.69" fx="787.36" fy="437.69" gradientTransform="translate(1008.4 555.21) rotate(-179.73)" xlink:href="#_未命名的渐变_2"/>
    <radialGradient id="_未命名的渐变_2-63" data-name="未命名的渐变 2" cx="798.3" cy="437.69" fx="798.3" fy="437.69" gradientTransform="translate(1008.4 555.21) rotate(-179.73)" xlink:href="#_未命名的渐变_2"/>
    <radialGradient id="_未命名的渐变_2-64" data-name="未命名的渐变 2" cx="809.24" cy="437.69" fx="809.24" fy="437.69" r="4.52" gradientTransform="translate(1008.4 555.21) rotate(-179.73)" xlink:href="#_未命名的渐变_2"/>
    <radialGradient id="_未命名的渐变_2-65" data-name="未命名的渐变 2" cx="820.18" cy="437.69" fx="820.18" fy="437.69" gradientTransform="translate(1008.4 555.21) rotate(-179.73)" xlink:href="#_未命名的渐变_2"/>
    <radialGradient id="_未命名的渐变_2-66" data-name="未命名的渐变 2" cx="831.12" cy="437.69" fx="831.12" fy="437.69" gradientTransform="translate(1008.4 555.21) rotate(-179.73)" xlink:href="#_未命名的渐变_2"/>
    <radialGradient id="_未命名的渐变_2-67" data-name="未命名的渐变 2" cx="842.06" cy="437.69" fx="842.06" fy="437.69" gradientTransform="translate(1008.4 555.21) rotate(-179.73)" xlink:href="#_未命名的渐变_2"/>
    <radialGradient id="_未命名的渐变_2-68" data-name="未命名的渐变 2" cx="853" cy="437.69" fx="853" fy="437.69" r="4.52" gradientTransform="translate(1008.4 555.21) rotate(-179.73)" xlink:href="#_未命名的渐变_2"/>
    <radialGradient id="_未命名的渐变_2-69" data-name="未命名的渐变 2" cx="863.94" cy="437.69" fx="863.94" fy="437.69" gradientTransform="translate(1008.4 555.21) rotate(-179.73)" xlink:href="#_未命名的渐变_2"/>
    <radialGradient id="_未命名的渐变_2-70" data-name="未命名的渐变 2" cx="874.88" cy="437.69" fx="874.88" fy="437.69" gradientTransform="translate(1008.4 555.21) rotate(-179.73)" xlink:href="#_未命名的渐变_2"/>
    <radialGradient id="_未命名的渐变_2-71" data-name="未命名的渐变 2" cx="885.82" cy="437.69" fx="885.82" fy="437.69" r="4.52" gradientTransform="translate(1008.4 555.21) rotate(-179.73)" xlink:href="#_未命名的渐变_2"/>
    <radialGradient id="_未命名的渐变_2-72" data-name="未命名的渐变 2" cx="896.76" cy="437.69" fx="896.76" fy="437.69" r="4.52" gradientTransform="translate(1008.4 555.21) rotate(-179.73)" xlink:href="#_未命名的渐变_2"/>
    <radialGradient id="_未命名的渐变_2-73" data-name="未命名的渐变 2" cx="907.7" cy="437.69" fx="907.7" fy="437.69" r="4.52" gradientTransform="translate(1008.4 555.21) rotate(-179.73)" xlink:href="#_未命名的渐变_2"/>
    <radialGradient id="_未命名的渐变_2-74" data-name="未命名的渐变 2" cx="918.64" cy="437.69" fx="918.64" fy="437.69" r="4.52" gradientTransform="translate(1008.4 555.21) rotate(-179.73)" xlink:href="#_未命名的渐变_2"/>
    <radialGradient id="_未命名的渐变_2-75" data-name="未命名的渐变 2" cx="929.58" cy="437.69" fx="929.58" fy="437.69" gradientTransform="translate(1008.4 555.21) rotate(-179.73)" xlink:href="#_未命名的渐变_2"/>
    <radialGradient id="_未命名的渐变_2-76" data-name="未命名的渐变 2" cx="940.52" cy="437.69" fx="940.52" fy="437.69" r="4.52" gradientTransform="translate(1008.4 555.21) rotate(-179.73)" xlink:href="#_未命名的渐变_2"/>
    <radialGradient id="_未命名的渐变_2-77" data-name="未命名的渐变 2" cx="951.46" cy="437.69" fx="951.46" fy="437.69" gradientTransform="translate(1008.4 555.21) rotate(-179.73)" xlink:href="#_未命名的渐变_2"/>
    <radialGradient id="_未命名的渐变_2-78" data-name="未命名的渐变 2" cx="962.4" cy="437.69" fx="962.4" fy="437.69" gradientTransform="translate(1008.4 555.21) rotate(-179.73)" xlink:href="#_未命名的渐变_2"/>
  </defs>
  <g class="cls-96">
    <g>
      <g>
        <circle class="cls-74" cx="47.62" cy="75.38" r="4.52"/>
        <line class="cls-80" x1="45.61" y1="79.42" x2="45.7" y2="91.87"/>
        <line class="cls-80" x1="49.56" y1="79.42" x2="49.65" y2="91.87"/>
      </g>
      <g>
        <circle class="cls-69" cx="58.56" cy="75.38" r="4.52"/>
        <line class="cls-80" x1="56.55" y1="79.42" x2="56.64" y2="91.87"/>
        <line class="cls-80" x1="60.5" y1="79.42" x2="60.59" y2="91.87"/>
      </g>
      <g>
        <circle class="cls-16" cx="69.5" cy="75.38" r="4.52"/>
        <line class="cls-80" x1="67.49" y1="79.42" x2="67.58" y2="91.87"/>
        <line class="cls-80" x1="71.44" y1="79.42" x2="71.53" y2="91.87"/>
      </g>
      <g>
        <circle class="cls-7" cx="80.44" cy="75.38" r="4.52"/>
        <line class="cls-80" x1="78.43" y1="79.42" x2="78.52" y2="91.87"/>
        <line class="cls-80" x1="82.38" y1="79.42" x2="82.47" y2="91.87"/>
      </g>
      <g>
        <circle class="cls-1" cx="91.38" cy="75.38" r="4.52"/>
        <line class="cls-80" x1="89.37" y1="79.42" x2="89.46" y2="91.87"/>
        <line class="cls-80" x1="93.32" y1="79.42" x2="93.41" y2="91.87"/>
      </g>
      <g>
        <circle class="cls-44" cx="102.32" cy="75.38" r="4.52"/>
        <line class="cls-80" x1="100.31" y1="79.42" x2="100.4" y2="91.87"/>
        <line class="cls-80" x1="104.26" y1="79.42" x2="104.35" y2="91.87"/>
      </g>
      <g>
        <circle class="cls-48" cx="113.26" cy="75.38" r="4.52"/>
        <line class="cls-80" x1="111.25" y1="79.42" x2="111.34" y2="91.87"/>
        <line class="cls-80" x1="115.2" y1="79.42" x2="115.29" y2="91.87"/>
      </g>
      <g>
        <circle class="cls-78" cx="124.2" cy="75.38" r="4.52"/>
        <line class="cls-80" x1="122.19" y1="79.42" x2="122.28" y2="91.87"/>
        <line class="cls-80" x1="126.14" y1="79.42" x2="126.23" y2="91.87"/>
      </g>
      <g>
        <circle class="cls-15" cx="135.14" cy="75.38" r="4.52"/>
        <line class="cls-80" x1="133.13" y1="79.42" x2="133.22" y2="91.87"/>
        <line class="cls-80" x1="137.08" y1="79.42" x2="137.17" y2="91.87"/>
      </g>
      <g>
        <circle class="cls-23" cx="146.08" cy="75.38" r="4.52"/>
        <line class="cls-80" x1="144.07" y1="79.42" x2="144.16" y2="91.87"/>
        <line class="cls-80" x1="148.02" y1="79.42" x2="148.11" y2="91.87"/>
      </g>
      <g>
        <circle class="cls-66" cx="157.02" cy="75.38" r="4.52"/>
        <line class="cls-80" x1="155.01" y1="79.42" x2="155.1" y2="91.87"/>
        <line class="cls-80" x1="158.96" y1="79.42" x2="159.05" y2="91.87"/>
      </g>
      <g>
        <circle class="cls-8" cx="167.96" cy="75.38" r="4.52"/>
        <line class="cls-80" x1="165.95" y1="79.42" x2="166.04" y2="91.87"/>
        <line class="cls-80" x1="169.9" y1="79.42" x2="169.99" y2="91.87"/>
      </g>
      <g>
        <circle class="cls-42" cx="178.9" cy="75.38" r="4.52"/>
        <line class="cls-80" x1="176.89" y1="79.42" x2="176.98" y2="91.87"/>
        <line class="cls-80" x1="180.84" y1="79.42" x2="180.93" y2="91.87"/>
      </g>
      <g>
        <circle class="cls-52" cx="189.84" cy="75.38" r="4.52"/>
        <line class="cls-80" x1="187.83" y1="79.42" x2="187.92" y2="91.87"/>
        <line class="cls-80" x1="191.78" y1="79.42" x2="191.87" y2="91.87"/>
      </g>
      <g>
        <circle class="cls-11" cx="200.78" cy="75.38" r="4.52"/>
        <line class="cls-80" x1="198.77" y1="79.42" x2="198.86" y2="91.87"/>
        <line class="cls-80" x1="202.72" y1="79.42" x2="202.81" y2="91.87"/>
      </g>
      <g>
        <circle class="cls-34" cx="211.72" cy="75.38" r="4.52"/>
        <line class="cls-80" x1="209.71" y1="79.42" x2="209.8" y2="91.87"/>
        <line class="cls-80" x1="213.66" y1="79.42" x2="213.75" y2="91.87"/>
      </g>
      <g>
        <circle class="cls-9" cx="222.66" cy="75.38" r="4.52"/>
        <line class="cls-80" x1="220.65" y1="79.42" x2="220.74" y2="91.87"/>
        <line class="cls-80" x1="224.6" y1="79.42" x2="224.69" y2="91.87"/>
      </g>
      <g>
        <circle class="cls-50" cx="233.6" cy="75.38" r="4.52"/>
        <line class="cls-80" x1="231.59" y1="79.42" x2="231.68" y2="91.87"/>
        <line class="cls-80" x1="235.54" y1="79.42" x2="235.63" y2="91.87"/>
      </g>
      <g>
        <circle class="cls-29" cx="244.54" cy="75.38" r="4.52"/>
        <line class="cls-80" x1="242.53" y1="79.42" x2="242.62" y2="91.87"/>
        <line class="cls-80" x1="246.49" y1="79.42" x2="246.57" y2="91.87"/>
      </g>
      <g>
        <circle class="cls-79" cx="255.48" cy="75.38" r="4.52"/>
        <line class="cls-80" x1="253.47" y1="79.42" x2="253.56" y2="91.87"/>
        <line class="cls-80" x1="257.43" y1="79.42" x2="257.51" y2="91.87"/>
      </g>
      <g>
        <circle class="cls-49" cx="266.42" cy="75.38" r="4.52"/>
        <line class="cls-80" x1="264.41" y1="79.42" x2="264.5" y2="91.87"/>
        <line class="cls-80" x1="268.37" y1="79.42" x2="268.46" y2="91.87"/>
      </g>
      <g>
        <circle class="cls-33" cx="277.36" cy="75.38" r="4.52"/>
        <line class="cls-80" x1="275.35" y1="79.42" x2="275.44" y2="91.87"/>
        <line class="cls-80" x1="279.31" y1="79.42" x2="279.4" y2="91.87"/>
      </g>
      <g>
        <circle class="cls-54" cx="288.3" cy="75.38" r="4.52"/>
        <line class="cls-80" x1="286.29" y1="79.42" x2="286.38" y2="91.87"/>
        <line class="cls-80" x1="290.25" y1="79.42" x2="290.34" y2="91.87"/>
      </g>
      <g>
        <circle class="cls-18" cx="299.24" cy="75.38" r="4.52"/>
        <line class="cls-80" x1="297.23" y1="79.42" x2="297.32" y2="91.87"/>
        <line class="cls-80" x1="301.19" y1="79.42" x2="301.28" y2="91.87"/>
      </g>
      <g>
        <circle class="cls-65" cx="310.18" cy="75.38" r="4.52"/>
        <line class="cls-80" x1="308.17" y1="79.42" x2="308.26" y2="91.87"/>
        <line class="cls-80" x1="312.13" y1="79.42" x2="312.22" y2="91.87"/>
      </g>
      <g>
        <circle class="cls-2" cx="321.12" cy="75.38" r="4.52"/>
        <line class="cls-80" x1="319.11" y1="79.42" x2="319.2" y2="91.87"/>
        <line class="cls-80" x1="323.07" y1="79.42" x2="323.16" y2="91.87"/>
      </g>
      <g>
        <circle class="cls-17" cx="332.06" cy="75.38" r="4.52"/>
        <line class="cls-80" x1="330.05" y1="79.42" x2="330.14" y2="91.87"/>
        <line class="cls-80" x1="334.01" y1="79.42" x2="334.1" y2="91.87"/>
      </g>
      <g>
        <circle class="cls-63" cx="343" cy="75.38" r="4.52"/>
        <line class="cls-80" x1="340.99" y1="79.42" x2="341.08" y2="91.87"/>
        <line class="cls-80" x1="344.95" y1="79.42" x2="345.04" y2="91.87"/>
      </g>
      <g>
        <circle class="cls-19" cx="353.94" cy="75.38" r="4.52"/>
        <line class="cls-80" x1="351.93" y1="79.42" x2="352.02" y2="91.87"/>
        <line class="cls-80" x1="355.89" y1="79.42" x2="355.98" y2="91.87"/>
      </g>
      <g>
        <circle class="cls-82" cx="364.88" cy="75.38" r="4.52"/>
        <line class="cls-80" x1="362.87" y1="79.42" x2="362.96" y2="91.87"/>
        <line class="cls-80" x1="366.83" y1="79.42" x2="366.92" y2="91.87"/>
      </g>
      <g>
        <circle class="cls-61" cx="375.82" cy="75.38" r="4.52"/>
        <line class="cls-80" x1="373.81" y1="79.42" x2="373.9" y2="91.87"/>
        <line class="cls-80" x1="377.77" y1="79.42" x2="377.86" y2="91.87"/>
      </g>
      <g>
        <circle class="cls-46" cx="386.76" cy="75.38" r="4.52"/>
        <line class="cls-80" x1="384.76" y1="79.42" x2="384.84" y2="91.87"/>
        <line class="cls-80" x1="388.71" y1="79.42" x2="388.8" y2="91.87"/>
      </g>
      <g>
        <circle class="cls-84" cx="397.7" cy="75.38" r="4.52"/>
        <line class="cls-80" x1="395.7" y1="79.42" x2="395.78" y2="91.87"/>
        <line class="cls-80" x1="399.65" y1="79.42" x2="399.74" y2="91.87"/>
      </g>
      <g>
        <circle class="cls-3" cx="408.64" cy="75.38" r="4.52"/>
        <line class="cls-80" x1="406.64" y1="79.42" x2="406.72" y2="91.87"/>
        <line class="cls-80" x1="410.59" y1="79.42" x2="410.68" y2="91.87"/>
      </g>
      <g>
        <circle class="cls-72" cx="419.58" cy="75.38" r="4.52"/>
        <line class="cls-80" x1="417.58" y1="79.42" x2="417.67" y2="91.87"/>
        <line class="cls-80" x1="421.53" y1="79.42" x2="421.62" y2="91.87"/>
      </g>
      <g>
        <circle class="cls-83" cx="430.53" cy="75.38" r="4.52"/>
        <line class="cls-80" x1="428.52" y1="79.42" x2="428.61" y2="91.87"/>
        <line class="cls-80" x1="432.47" y1="79.42" x2="432.56" y2="91.87"/>
      </g>
      <g>
        <circle class="cls-36" cx="441.47" cy="75.38" r="4.52"/>
        <line class="cls-80" x1="439.46" y1="79.42" x2="439.55" y2="91.87"/>
        <line class="cls-80" x1="443.41" y1="79.42" x2="443.5" y2="91.87"/>
      </g>
      <g>
        <circle class="cls-25" cx="452.41" cy="75.38" r="4.52"/>
        <line class="cls-80" x1="450.4" y1="79.42" x2="450.49" y2="91.87"/>
        <line class="cls-80" x1="454.35" y1="79.42" x2="454.44" y2="91.87"/>
      </g>
      <g>
        <circle class="cls-57" cx="463.35" cy="75.38" r="4.52"/>
        <line class="cls-80" x1="461.34" y1="79.42" x2="461.43" y2="91.87"/>
        <line class="cls-80" x1="465.29" y1="79.42" x2="465.38" y2="91.87"/>
      </g>
    </g>
  </g>
  <g class="cls-92">
    <g>
      <g>
        <circle class="cls-62" cx="463.78" cy="114.97" r="4.52"/>
        <line class="cls-80" x1="465.81" y1="110.93" x2="465.78" y2="98.48"/>
        <line class="cls-80" x1="461.86" y1="110.91" x2="461.83" y2="98.47"/>
      </g>
      <g>
        <circle class="cls-56" cx="452.84" cy="114.92" r="4.52"/>
        <line class="cls-80" x1="454.87" y1="110.88" x2="454.84" y2="98.43"/>
        <line class="cls-80" x1="450.92" y1="110.86" x2="450.88" y2="98.41"/>
      </g>
      <g>
        <circle class="cls-20" cx="441.9" cy="114.87" r="4.52"/>
        <line class="cls-80" x1="443.93" y1="110.83" x2="443.9" y2="98.38"/>
        <line class="cls-80" x1="439.98" y1="110.81" x2="439.94" y2="98.36"/>
      </g>
      <g>
        <circle class="cls-10" cx="430.96" cy="114.82" r="4.52"/>
        <line class="cls-80" x1="432.99" y1="110.78" x2="432.96" y2="98.33"/>
        <line class="cls-80" x1="429.04" y1="110.76" x2="429" y2="98.31"/>
      </g>
      <g>
        <circle class="cls-53" cx="420.02" cy="114.77" r="4.52"/>
        <line class="cls-80" x1="422.05" y1="110.73" x2="422.02" y2="98.28"/>
        <line class="cls-80" x1="418.1" y1="110.71" x2="418.06" y2="98.26"/>
      </g>
      <g>
        <circle class="cls-45" cx="409.08" cy="114.72" r="4.52"/>
        <line class="cls-80" x1="411.11" y1="110.68" x2="411.08" y2="98.23"/>
        <line class="cls-80" x1="407.16" y1="110.66" x2="407.12" y2="98.21"/>
      </g>
      <g>
        <circle class="cls-21" cx="398.14" cy="114.66" r="4.52"/>
        <line class="cls-80" x1="400.17" y1="110.63" x2="400.14" y2="98.18"/>
        <line class="cls-80" x1="396.22" y1="110.61" x2="396.18" y2="98.16"/>
      </g>
      <g>
        <circle class="cls-5" cx="387.2" cy="114.61" r="4.52"/>
        <line class="cls-80" x1="389.23" y1="110.58" x2="389.2" y2="98.13"/>
        <line class="cls-80" x1="385.28" y1="110.56" x2="385.24" y2="98.11"/>
      </g>
      <g>
        <circle class="cls-27" cx="376.26" cy="114.56" r="4.52"/>
        <line class="cls-80" x1="378.29" y1="110.52" x2="378.26" y2="98.07"/>
        <line class="cls-80" x1="374.33" y1="110.51" x2="374.3" y2="98.06"/>
      </g>
      <g>
        <circle class="cls-28" cx="365.32" cy="114.51" r="4.52"/>
        <line class="cls-80" x1="367.35" y1="110.47" x2="367.32" y2="98.02"/>
        <line class="cls-80" x1="363.39" y1="110.45" x2="363.36" y2="98.01"/>
      </g>
      <g>
        <circle class="cls-47" cx="354.38" cy="114.46" r="4.52"/>
        <line class="cls-80" x1="356.41" y1="110.42" x2="356.38" y2="97.97"/>
        <line class="cls-80" x1="352.45" y1="110.4" x2="352.42" y2="97.95"/>
      </g>
      <g>
        <circle class="cls-14" cx="343.44" cy="114.41" r="4.52"/>
        <line class="cls-80" x1="345.47" y1="110.37" x2="345.44" y2="97.92"/>
        <line class="cls-80" x1="341.51" y1="110.35" x2="341.48" y2="97.9"/>
      </g>
      <g>
        <circle class="cls-32" cx="332.5" cy="114.36" r="4.52"/>
        <line class="cls-80" x1="334.53" y1="110.32" x2="334.5" y2="97.87"/>
        <line class="cls-80" x1="330.57" y1="110.3" x2="330.54" y2="97.85"/>
      </g>
      <g>
        <circle class="cls-58" cx="321.56" cy="114.31" r="4.52"/>
        <line class="cls-80" x1="323.59" y1="110.27" x2="323.56" y2="97.82"/>
        <line class="cls-80" x1="319.63" y1="110.25" x2="319.6" y2="97.8"/>
      </g>
      <g>
        <circle class="cls-81" cx="310.62" cy="114.26" r="4.52"/>
        <line class="cls-80" x1="312.65" y1="110.22" x2="312.62" y2="97.77"/>
        <line class="cls-80" x1="308.69" y1="110.2" x2="308.66" y2="97.75"/>
      </g>
      <g>
        <circle class="cls-43" cx="299.68" cy="114.2" r="4.52"/>
        <line class="cls-80" x1="301.71" y1="110.17" x2="301.68" y2="97.72"/>
        <line class="cls-80" x1="297.75" y1="110.15" x2="297.72" y2="97.7"/>
      </g>
      <g>
        <circle class="cls-22" cx="288.74" cy="114.15" r="4.52"/>
        <line class="cls-80" x1="290.77" y1="110.11" x2="290.74" y2="97.67"/>
        <line class="cls-80" x1="286.81" y1="110.1" x2="286.78" y2="97.65"/>
      </g>
      <g>
        <circle class="cls-68" cx="277.8" cy="114.1" r="4.52"/>
        <line class="cls-80" x1="279.83" y1="110.06" x2="279.8" y2="97.61"/>
        <line class="cls-80" x1="275.87" y1="110.04" x2="275.84" y2="97.6"/>
      </g>
      <g>
        <circle class="cls-12" cx="266.86" cy="114.05" r="4.52"/>
        <line class="cls-80" x1="268.89" y1="110.01" x2="268.86" y2="97.56"/>
        <line class="cls-80" x1="264.93" y1="109.99" x2="264.9" y2="97.54"/>
      </g>
      <g>
        <circle class="cls-60" cx="255.92" cy="114" r="4.52"/>
        <line class="cls-80" x1="257.95" y1="109.96" x2="257.92" y2="97.51"/>
        <line class="cls-80" x1="253.99" y1="109.94" x2="253.96" y2="97.49"/>
      </g>
      <g>
        <circle class="cls-41" cx="244.98" cy="113.95" r="4.52"/>
        <line class="cls-80" x1="247.01" y1="109.91" x2="246.98" y2="97.46"/>
        <line class="cls-80" x1="243.05" y1="109.89" x2="243.02" y2="97.44"/>
      </g>
      <g>
        <circle class="cls-59" cx="234.04" cy="113.9" r="4.52"/>
        <line class="cls-80" x1="236.07" y1="109.86" x2="236.04" y2="97.41"/>
        <line class="cls-80" x1="232.11" y1="109.84" x2="232.08" y2="97.39"/>
      </g>
      <g>
        <circle class="cls-40" cx="223.1" cy="113.85" r="4.52"/>
        <line class="cls-80" x1="225.13" y1="109.81" x2="225.1" y2="97.36"/>
        <line class="cls-80" x1="221.17" y1="109.79" x2="221.14" y2="97.34"/>
      </g>
      <g>
        <circle class="cls-24" cx="212.16" cy="113.79" r="4.52"/>
        <line class="cls-80" x1="214.19" y1="109.76" x2="214.16" y2="97.31"/>
        <line class="cls-80" x1="210.23" y1="109.74" x2="210.2" y2="97.29"/>
      </g>
      <g>
        <circle class="cls-75" cx="201.22" cy="113.74" r="4.52"/>
        <line class="cls-80" x1="203.25" y1="109.71" x2="203.21" y2="97.26"/>
        <line class="cls-80" x1="199.29" y1="109.69" x2="199.26" y2="97.24"/>
      </g>
      <g>
        <circle class="cls-4" cx="190.28" cy="113.69" r="4.52"/>
        <line class="cls-80" x1="192.31" y1="109.65" x2="192.27" y2="97.21"/>
        <line class="cls-80" x1="188.35" y1="109.64" x2="188.32" y2="97.19"/>
      </g>
      <g>
        <circle class="cls-37" cx="179.34" cy="113.64" r="4.52"/>
        <line class="cls-80" x1="181.37" y1="109.6" x2="181.33" y2="97.15"/>
        <line class="cls-80" x1="177.41" y1="109.58" x2="177.38" y2="97.14"/>
      </g>
      <g>
        <circle class="cls-35" cx="168.4" cy="113.59" r="4.52"/>
        <line class="cls-80" x1="170.43" y1="109.55" x2="170.39" y2="97.1"/>
        <line class="cls-80" x1="166.47" y1="109.53" x2="166.44" y2="97.08"/>
      </g>
      <g>
        <circle class="cls-76" cx="157.46" cy="113.54" r="4.52"/>
        <line class="cls-80" x1="159.49" y1="109.5" x2="159.45" y2="97.05"/>
        <line class="cls-80" x1="155.53" y1="109.48" x2="155.5" y2="97.03"/>
      </g>
      <g>
        <circle class="cls-30" cx="146.52" cy="113.49" r="4.52"/>
        <line class="cls-80" x1="148.55" y1="109.45" x2="148.51" y2="97"/>
        <line class="cls-80" x1="144.59" y1="109.43" x2="144.56" y2="96.98"/>
      </g>
      <g>
        <circle class="cls-64" cx="135.58" cy="113.44" r="4.52"/>
        <line class="cls-80" x1="137.61" y1="109.4" x2="137.57" y2="96.95"/>
        <line class="cls-80" x1="133.65" y1="109.38" x2="133.62" y2="96.93"/>
      </g>
      <g>
        <circle class="cls-38" cx="124.64" cy="113.39" r="4.52"/>
        <line class="cls-80" x1="126.67" y1="109.35" x2="126.63" y2="96.9"/>
        <line class="cls-80" x1="122.71" y1="109.33" x2="122.68" y2="96.88"/>
      </g>
      <g>
        <circle class="cls-77" cx="113.7" cy="113.33" r="4.52"/>
        <line class="cls-80" x1="115.72" y1="109.3" x2="115.69" y2="96.85"/>
        <line class="cls-80" x1="111.77" y1="109.28" x2="111.74" y2="96.83"/>
      </g>
      <g>
        <circle class="cls-6" cx="102.76" cy="113.28" r="4.52"/>
        <line class="cls-80" x1="104.78" y1="109.25" x2="104.75" y2="96.8"/>
        <line class="cls-80" x1="100.83" y1="109.23" x2="100.8" y2="96.78"/>
      </g>
      <g>
        <circle class="cls-13" cx="91.82" cy="113.23" r="4.52"/>
        <line class="cls-80" x1="93.84" y1="109.19" x2="93.81" y2="96.74"/>
        <line class="cls-80" x1="89.89" y1="109.18" x2="89.86" y2="96.73"/>
      </g>
      <g>
        <circle class="cls-26" cx="80.88" cy="113.18" r="4.52"/>
        <line class="cls-80" x1="82.9" y1="109.14" x2="82.87" y2="96.69"/>
        <line class="cls-80" x1="78.95" y1="109.12" x2="78.92" y2="96.68"/>
      </g>
      <g>
        <circle class="cls-31" cx="69.94" cy="113.13" r="4.52"/>
        <line class="cls-80" x1="71.96" y1="109.09" x2="71.93" y2="96.64"/>
        <line class="cls-80" x1="68.01" y1="109.07" x2="67.98" y2="96.62"/>
      </g>
      <g>
        <circle class="cls-51" cx="59" cy="113.08" r="4.52"/>
        <line class="cls-80" x1="61.02" y1="109.04" x2="60.99" y2="96.59"/>
        <line class="cls-80" x1="57.07" y1="109.02" x2="57.04" y2="96.57"/>
      </g>
      <g>
        <circle class="cls-39" cx="48.06" cy="113.03" r="4.52"/>
        <line class="cls-80" x1="50.08" y1="108.99" x2="50.05" y2="96.54"/>
        <line class="cls-80" x1="46.13" y1="108.97" x2="46.1" y2="96.52"/>
      </g>
    </g>
  </g>
  <path class="cls-70" d="M86.1,58.12c-2.01-.66-5.76-1.88-9.55-2.04-2.2-.09-7.8-.33-11.06,2.72-2.36,2.21-2.52,5.23-2.51,8.83.01,9.14,1.03,15.19,1.51,19.71,1.29,12.24,2.1,19.86-2.26,27.41-2.41,4.17-5.56,6.87-4.27,9.51,1.5,3.09,7.73,3.33,9.55,3.4,8.4.32,19.23-3.69,21.37-10.65.95-3.1-.52-4.5-2.26-11.55,0,0-2.21-8.93-2.17-17.44.08-15.48,8.54-25.93,4.18-29-.23-.16-.99-.41-2.51-.91Z"/>
  <path class="cls-70" d="M138.97,104.95c-3.64.91-4.95-1.27-15.43-3.52-3.2-.69-4.53-.8-5.46,0-.66.56-1.45,1.87.16,9.11,1.66,7.48,2.5,11.22,5.46,13.42,1.38,1.03,3.57,1.45,7.87,2.24,7.78,1.43,11.67,2.14,14.14.64,2.5-1.52,3.38-5.27,5.14-12.78,0,0,1.52-6.45.16-13.74-.19-1-.56-2.7-1.45-2.88-.92-.18-1.81,1.42-2.89,2.72-2.62,3.15-6.31,4.44-7.71,4.79Z"/>
  <path class="cls-70" d="M218.56,47.41c-3.51-.36-6.45,2.77-7.77,4.18-2.3,2.46-3.44,5.12-3.95,6.42-2.76,7.1-2.37,14.24-2.23,22.59.18,10.46-.07,20.06-.2,25.3-.21,8.06-.56,14.88,2.21,22.65.85,2.37,1.91,4.62,3.96,6.13,3.54,2.6,8.66,2,11.75-.93,3.04-2.88,3.54-7.48,3.78-9.98,1.61-16.67,1.56-31.65,1.59-36.9.12-18.21,2.05-27.23-2.79-34.52-.87-1.31-3.05-4.6-6.37-4.93Z"/>
  <path class="cls-70" d="M307.33,43.62c-2.98.33-4.94,2.98-8.73,8.28-4.56,6.38-7.13,12.32-8.54,15.94-3.56,9.15-5.02,17.18-5.69,22.15-1.74,12.84-3.12,23.05,1.52,30.63,1.21,1.98,3.02,4.07,4.56,8.28,2.1,5.75,1.42,9.18,3.04,9.73,2.49.84,7.42-6.21,9.3-8.9,1.8-2.58,2.17-3.62,3.23-3.73,3.45-.34,5.36,10.28,8.73,10.14.88-.04,2.52-.83,5.31-9.73,2.22-7.08,3.15-12.86,3.99-18.84,0,0,1.43-10.26,1.9-24.84.15-4.7.16-8.7-2.28-11.59-1.92-2.28-3.91-2.16-4.93-4.55-1.33-3.1,1.13-5.36,1.14-9.31,0-6.61-6.84-14.28-12.53-13.66Z"/>
  <path class="cls-70" d="M394,216.49c-1.94,5.68-4.5,9.12-7.29,9.12-6.09,0-11.03-16.38-11.03-36.58s4.94-36.58,11.03-36.58"/>
  <path class="cls-70" d="M386.71,152.45c6.09,0,11.03,16.38,11.03,36.58,0,10.94-1.45,20.75-3.74,27.46"/>
  <path class="cls-70" d="M421.13,216.22c-2.24-6.7-3.65-16.4-3.65-27.19,0-20.2,4.94-36.58,11.03-36.58s11.03,16.38,11.03,36.58-4.94,36.58-11.03,36.58c-2.84,0-5.43-3.55-7.38-9.39"/>
  <path class="cls-70" d="M394.18,56.66c2.19,2.02,3.56,4.9,3.56,8.11"/>
  <line class="cls-67" x1="397.74" y1="64.78" x2="397.74" y2="126.49"/>
  <path class="cls-70" d="M417.48,64.78c0-3.05,1.24-5.82,3.25-7.82"/>
  <line class="cls-70" x1="417.48" y1="64.78" x2="417.48" y2="126.49"/>
  <line class="cls-73" x1="386.71" y1="137.52" x2="386.71" y2="152.45"/>
  <line class="cls-73" x1="428.51" y1="137.52" x2="428.51" y2="152.45"/>
  <line class="cls-73" x1="394.17" y1="56.67" x2="420.73" y2="56.96"/>
  <line class="cls-73" x1="393.99" y1="216.49" x2="421.13" y2="216.22"/>
  <g>
    <path class="cls-73" d="M421.13,215.97c-2.24-6.7-3.65-16.4-3.65-27.19,0-20.2,4.94-36.58,11.03-36.58v-14.93c-6.09,0-11.03-4.94-11.03-11.03v-61.71c0-3.05,1.24-5.82,3.25-7.82,0,0-26.55-.29-26.55-.29h0c2.19,2.01,3.56,4.9,3.56,8.1v61.71c0,6.09-4.94,11.03-11.03,11.03v14.93c6.09,0,11.03,16.38,11.03,36.58,0,10.94-1.45,20.75-3.74,27.46"/>
    <line class="cls-67" x1="394" y1="216.24" x2="421.13" y2="215.97"/>
  </g>
  <rect class="cls-85" x="385" y="94.29" width=".06" height=".13"/>
  <circle class="cls-70" cx="279.3" cy="55.2" r="14.87"/>
  <circle class="cls-70" cx="386.71" cy="63.33" r="10.77"/>
  <polyline class="cls-70" points="375.93 63.33 375.93 126.49 397.74 126.49 397.74 63.33"/>
  <path class="cls-70" d="M397.74,125.52c0,6.49-4.88,11.74-10.9,11.74s-10.9-5.26-10.9-11.74"/>
  <circle class="cls-70" cx="428.26" cy="64.05" r="10.77"/>
  <polyline class="cls-70" points="417.48 64.05 417.48 127.22 439.03 127.22 439.03 64.05"/>
  <path class="cls-70" d="M439.03,126.25c0,6.49-4.82,11.74-10.77,11.74s-10.77-5.26-10.77-11.74"/>
  <text class="cls-89" transform="translate(260.34 26.95)"><tspan x="0" y="0">Cyt c</tspan></text>
  <g>
    <text class="cls-89" transform="translate(70.36 33.63)"><tspan x="0" y="0">H</tspan></text>
    <text class="cls-86" transform="translate(82.41 27.55)"><tspan x="0" y="0">+</tspan></text>
  </g>
  <text class="cls-89" transform="translate(89.86 70.08)"><tspan x="0" y="0">+</tspan></text>
  <text class="cls-89" transform="translate(49.71 70.35)"><tspan x="0" y="0">+</tspan></text>
  <text class="cls-89" transform="translate(122.35 70.35)"><tspan x="0" y="0">+</tspan></text>
  <text class="cls-89" transform="translate(192.67 70.08)"><tspan x="0" y="0">+</tspan></text>
  <text class="cls-89" transform="translate(266.48 69.01)"><tspan x="0" y="0">+</tspan></text>
  <text class="cls-89" transform="translate(105.45 70.35)"><tspan x="0" y="0">+</tspan></text>
  <text class="cls-89" transform="translate(292.94 69.01)"><tspan x="0" y="0">+</tspan></text>
  <text class="cls-89" transform="translate(155.79 70.35)"><tspan x="0" y="0">+</tspan></text>
  <text class="cls-89" transform="translate(353.08 67.95)"><tspan x="0" y="0">+</tspan></text>
  <text class="cls-89" transform="translate(138.89 70.35)"><tspan x="0" y="0">+</tspan></text>
  <g>
    <text class="cls-89" transform="translate(0 155.57)"><tspan x="0" y="0">NADH+H</tspan></text>
    <text class="cls-86" transform="translate(72.28 149.87)"><tspan x="0" y="0">+</tspan></text>
  </g>
  <g>
    <text class="cls-89" transform="translate(62.38 183.06)"><tspan x="0" y="0">NAD</tspan></text>
    <text class="cls-86" transform="translate(98.31 176.98)"><tspan x="0" y="0">+</tspan></text>
  </g>
  <g>
    <text class="cls-89" transform="translate(210.21 19.52)"><tspan x="0" y="0">H</tspan></text>
    <text class="cls-86" transform="translate(222.26 13.44)"><tspan x="0" y="0">+</tspan></text>
  </g>
  <g>
    <text class="cls-89" transform="translate(301.61 15.78)"><tspan x="0" y="0">H</tspan></text>
    <text class="cls-86" transform="translate(313.66 9.7)"><tspan x="0" y="0">+</tspan></text>
  </g>
  <g>
    <line class="cls-71" x1="70.19" y1="140.77" x2="76.19" y2="46.98"/>
    <polygon class="cls-87" points="76.91 35.7 82.39 52 76.14 47.82 69.41 51.17 76.91 35.7"/>
  </g>
  <g>
    <path class="cls-71" d="M34.23,141.26c.78-1.11,9.96-13.64,26.06-13.42,1.46.02,17.57.52,25.81,14.45,3.32,5.63,4.12,11.33,3.92,16.05"/>
    <polygon class="cls-87" points="87.65 169.39 84.26 152.53 89.94 157.47 97.04 154.98 87.65 169.39"/>
  </g>
  <g>
    <line class="cls-71" x1="216.24" y1="154.94" x2="216.24" y2="34.36"/>
    <polygon class="cls-87" points="216.24 23.07 222.74 38.99 216.24 35.21 209.73 38.99 216.24 23.07"/>
  </g>
  <g>
    <line class="cls-71" x1="307.64" y1="130.68" x2="307.64" y2="29.98"/>
    <polygon class="cls-87" points="307.64 18.68 314.14 34.6 307.64 30.82 301.13 34.6 307.64 18.68"/>
  </g>
  <g>
    <line class="cls-71" x1="407.61" y1="32.1" x2="407.61" y2="287.64"/>
    <polygon class="cls-87" points="407.61 298.94 401.11 283.02 407.61 286.8 414.11 283.02 407.61 298.94"/>
  </g>
  <g>
    <path class="cls-71" d="M378.22,257.17c-3.91-11.78-1.07-18.81.26-21.42,9.64-18.95,49.58-16.4,58.85-.78,2.43,4.09,2.54,7.93,1.63,11.57"/>
    <polygon class="cls-87" points="434.48 256.91 434.45 239.71 439.06 245.66 446.5 244.61 434.48 256.91"/>
  </g>
  <g>
    <path class="cls-71" d="M143.39,158.03c-.95-.82-7.9-7.04-7.23-16,.75-10,10.57-17.65,20.13-17.55,1.48.02,2.86.22,4.15.54"/>
    <polygon class="cls-87" points="170.23 130.68 153.12 128.94 159.51 124.97 159.24 117.46 170.23 130.68"/>
  </g>
  <g>
    <path class="cls-71" d="M147,130.68c-1.4-1.33-5.76-5.79-5.68-11.87.08-5.9,10.6-15.15,20.78-20.28"/>
    <polygon class="cls-87" points="172.81 94.91 160.01 106.39 161.38 99 155.63 94.14 172.81 94.91"/>
  </g>
  <g>
    <path class="cls-71" d="M186.75,94.03c5.42-1.02,10.84-2.04,16.25-3.07"/>
    <polygon class="cls-87" points="214.1 88.87 199.66 98.22 202.17 91.12 197.25 85.43 214.1 88.87"/>
  </g>
  <g>
    <path class="cls-71" d="M219.26,87.84c9.7-.95,15.54-4.3,19.1-7.23,7.63-6.27,7.8-13.06,15.48-19.61,2.32-1.98,4.78-3.47,7.22-4.6"/>
    <polygon class="cls-87" points="271.91 53.26 258.65 64.21 260.32 56.88 254.77 51.79 271.91 53.26"/>
  </g>
  <g>
    <path class="cls-71" d="M287.39,52.74c2.68,5.87,5.22,12.59,7.23,20.13,5.23,19.68,4.87,37.56,3,51.33"/>
    <polygon class="cls-87" points="295.65 135.33 291.93 118.54 297.7 123.36 304.75 120.74 295.65 135.33"/>
  </g>
  <g>
    <path class="cls-71" d="M272.54,157c1.4-9.53,8.07-17.41,17.03-20.13,6.75-2.05,14.01,1.69,19.92,7.07"/>
    <polygon class="cls-87" points="316.93 152.45 301.44 144.98 308.8 143.43 311.11 136.27 316.93 152.45"/>
  </g>
  <g>
    <path class="cls-55" d="M69.52,128.62c-1.44-7.07-4.82-28.45,7.35-43.74,16.1-20.22,55.14-24.41,90.74-1.62"/>
    <polygon class="cls-87" points="172.3 86.42 163.86 84.76 167.23 83.08 167.44 79.33 172.3 86.42"/>
  </g>
  <text class="cls-89" transform="translate(140.69 149.88)"><tspan x="0" y="0">延胡索酸</tspan></text>
  <text class="cls-89" transform="translate(120.14 174.19)"><tspan x="0" y="0">琥珀酸</tspan></text>
  <text class="cls-89" transform="translate(51.51 290.11)"><tspan x="0" y="0">线粒体基质</tspan></text>
  <g>
    <text class="cls-90" transform="translate(222.32 173.77)"><tspan class="cls-93" x="0" y="0">1/2O</tspan><tspan class="cls-94" x="39.4" y="0">2</tspan><tspan class="cls-93" x="44.67" y="0">+2H</tspan></text>
    <text class="cls-86" transform="translate(300.53 167.69)"><tspan x="0" y="0">+</tspan></text>
  </g>
  <text class="cls-90" transform="translate(316.93 162.56)"><tspan class="cls-93" x="0" y="0">H</tspan><tspan class="cls-94" x="12.48" y="0">2</tspan><tspan class="cls-93" x="17.75" y="0">O</tspan></text>
  <text class="cls-89" transform="translate(338.28 272.21)"><tspan x="0" y="0" xml:space="preserve">ADP+Pi     ATP</tspan></text>
  <g>
    <text class="cls-89" transform="translate(400.25 314.32)"><tspan x="0" y="0">H</tspan></text>
    <text class="cls-86" transform="translate(412.3 308.24)"><tspan x="0" y="0">+</tspan></text>
  </g>
  <text class="cls-90" transform="translate(379.8 99.81)"><tspan class="cls-93" x="0" y="0">F</tspan><tspan class="cls-94" x="8.58" y="0">0</tspan></text>
  <text class="cls-90" transform="translate(421.13 196.5)"><tspan class="cls-93" x="0" y="0">F</tspan><tspan class="cls-95" x="8.58" y="0">1</tspan></text>
  <g>
    <text class="cls-89" transform="translate(173.69 96.84)"><tspan x="0" y="0">e</tspan></text>
    <text class="cls-88" transform="translate(182.24 90.34) scale(1.22 1)"><tspan x="0" y="0">-</tspan></text>
  </g>
  <text class="cls-89" transform="translate(42.59 125.52)"><tspan x="0" y="0">-</tspan></text>
  <text class="cls-89" transform="translate(312.46 125.52)"><tspan x="0" y="0">-</tspan></text>
  <text class="cls-89" transform="translate(245.59 125.52)"><tspan x="0" y="0">-</tspan></text>
  <text class="cls-89" transform="translate(232.34 125.52)"><tspan x="0" y="0">-</tspan></text>
  <text class="cls-89" transform="translate(194.47 125.52)"><tspan x="0" y="0">-</tspan></text>
  <text class="cls-89" transform="translate(182.24 125.52)"><tspan x="0" y="0">-</tspan></text>
  <text class="cls-89" transform="translate(172.3 125.52)"><tspan x="0" y="0">-</tspan></text>
  <text class="cls-89" transform="translate(89.21 126.49)"><tspan x="0" y="0">-</tspan></text>
</svg>