<?xml version="1.0" encoding="UTF-8"?>
<svg id="_图层_2" data-name="图层_2" xmlns="http://www.w3.org/2000/svg" viewBox="0 0 551.91 78.97">
  <defs>
    <style>
      .cls-1 {
        fill: #ea5514;
      }

      .cls-2, .cls-3, .cls-4 {
        fill: none;
      }

      .cls-3 {
        stroke: #ea5514;
      }

      .cls-3, .cls-4 {
        stroke-miterlimit: 10;
      }

      .cls-4 {
        stroke: #231815;
      }
    </style>
  </defs>
  <g id="_图层_1-2" data-name="图层_1">
    <rect class="cls-2" width="551.91" height="78.97"/>
    <path class="cls-4" d="M160.02,47.78c6.85-4.02,16.23-8.26,27.87-10.32,4.47-.79,21.99-3.52,42.84,3.61,10.64,3.64,24.34,10.31,29.48,14.06"/>
    <g>
      <line class="cls-3" x1="172.92" y1="40.92" x2="170.52" y2="34.42"/>
      <polygon class="cls-1" points="169.04 30.45 173.41 35.2 170.63 34.72 168.83 36.89 169.04 30.45"/>
    </g>
    <g>
      <line class="cls-3" x1="245.12" y1="46.6" x2="248.58" y2="40.59"/>
      <polygon class="cls-1" points="250.7 36.93 249.83 43.31 248.43 40.87 245.61 40.88 250.7 36.93"/>
    </g>
    <g>
      <line class="cls-3" x1="232.44" y1="41.53" x2="234.79" y2="35.01"/>
      <polygon class="cls-1" points="236.23 31.03 236.5 37.47 234.69 35.31 231.91 35.82 236.23 31.03"/>
    </g>
    <g>
      <line class="cls-3" x1="217.5" y1="37" x2="219.02" y2="30.24"/>
      <polygon class="cls-1" points="219.95 26.1 221.02 32.46 218.95 30.55 216.26 31.39 219.95 26.1"/>
    </g>
    <g>
      <line class="cls-3" x1="203.46" y1="35.95" x2="203.67" y2="29.02"/>
      <polygon class="cls-1" points="203.79 24.79 206.06 30.83 203.66 29.34 201.18 30.68 203.79 24.79"/>
    </g>
    <g>
      <line class="cls-3" x1="188.25" y1="36.96" x2="187.48" y2="30.07"/>
      <polygon class="cls-1" points="187.01 25.86 190.1 31.53 187.51 30.39 185.25 32.07 187.01 25.86"/>
    </g>
    <g>
      <line class="cls-3" x1="256.27" y1="52.33" x2="259.73" y2="46.33"/>
      <polygon class="cls-1" points="261.85 42.66 260.98 49.05 259.58 46.6 256.76 46.61 261.85 42.66"/>
    </g>
    <g>
      <line class="cls-3" x1="161.31" y1="46.6" x2="157.84" y2="40.59"/>
      <polygon class="cls-1" points="155.72 36.93 160.82 40.88 158 40.87 156.6 43.31 155.72 36.93"/>
    </g>
    <g>
      <line class="cls-3" x1="240.07" y1="35.53" x2="243.69" y2="28.63"/>
      <polygon class="cls-1" points="245.65 24.88 245.04 31.3 243.54 28.91 240.72 29.03 245.65 24.88"/>
    </g>
    <g>
      <line class="cls-3" x1="227.39" y1="29.95" x2="229.86" y2="22.41"/>
      <polygon class="cls-1" points="231.18 18.38 231.64 24.82 229.76 22.71 227 23.3 231.18 18.38"/>
    </g>
    <g>
      <line class="cls-3" x1="212.45" y1="24.96" x2="214.05" y2="17.11"/>
      <polygon class="cls-1" points="214.89 12.96 216.09 19.29 213.99 17.42 211.31 18.32 214.89 12.96"/>
    </g>
    <g>
      <line class="cls-3" x1="198.41" y1="23.8" x2="198.63" y2="15.74"/>
      <polygon class="cls-1" points="198.74 11.51 201.02 17.54 198.62 16.06 196.15 17.41 198.74 11.51"/>
    </g>
    <g>
      <line class="cls-3" x1="183.2" y1="24.92" x2="182.39" y2="16.91"/>
      <polygon class="cls-1" points="181.96 12.69 184.99 18.39 182.42 17.22 180.13 18.88 181.96 12.69"/>
    </g>
    <g>
      <line class="cls-3" x1="174.25" y1="55.57" x2="171.84" y2="49.07"/>
      <polygon class="cls-1" points="170.37 45.1 174.73 49.85 171.95 49.37 170.16 51.55 170.37 45.1"/>
    </g>
    <g>
      <line class="cls-3" x1="246.44" y1="61.25" x2="249.91" y2="55.25"/>
      <polygon class="cls-1" points="252.03 51.58 251.15 57.97 249.75 55.52 246.93 55.53 252.03 51.58"/>
    </g>
    <g>
      <line class="cls-3" x1="233.76" y1="56.19" x2="236.12" y2="49.67"/>
      <polygon class="cls-1" points="237.56 45.69 237.82 52.13 236.01 49.97 233.24 50.47 237.56 45.69"/>
    </g>
    <g>
      <line class="cls-3" x1="218.83" y1="51.65" x2="220.34" y2="44.89"/>
      <polygon class="cls-1" points="221.27 40.76 222.34 47.12 220.27 45.2 217.58 46.05 221.27 40.76"/>
    </g>
    <g>
      <line class="cls-3" x1="204.79" y1="50.6" x2="204.99" y2="43.68"/>
      <polygon class="cls-1" points="205.12 39.44 207.38 45.48 204.98 43.99 202.5 45.34 205.12 39.44"/>
    </g>
    <g>
      <line class="cls-3" x1="189.57" y1="51.62" x2="188.8" y2="44.73"/>
      <polygon class="cls-1" points="188.33 40.52 191.42 46.18 188.84 45.04 186.57 46.72 188.33 40.52"/>
    </g>
    <g>
      <line class="cls-3" x1="237" y1="73.26" x2="237.81" y2="66.38"/>
      <polygon class="cls-1" points="238.31 62.17 240.03 68.39 237.78 66.7 235.19 67.82 238.31 62.17"/>
    </g>
    <g>
      <line class="cls-3" x1="224.7" y1="69.15" x2="225.51" y2="62.27"/>
      <polygon class="cls-1" points="226 58.06 227.73 64.27 225.47 62.58 222.88 63.7 226 58.06"/>
    </g>
    <g>
      <line class="cls-3" x1="209.44" y1="66.79" x2="210.29" y2="59.5"/>
      <polygon class="cls-1" points="210.79 55.29 212.51 61.51 210.26 59.82 207.67 60.94 210.79 55.29"/>
    </g>
    <g>
      <line class="cls-3" x1="196.21" y1="66.62" x2="196.42" y2="59.7"/>
      <polygon class="cls-1" points="196.54 55.46 198.8 61.5 196.41 60.01 193.93 61.36 196.54 55.46"/>
    </g>
    <g>
      <line class="cls-3" x1="182.79" y1="70.55" x2="181.63" y2="63.72"/>
      <polygon class="cls-1" points="180.93 59.54 184.33 65.02 181.69 64.03 179.52 65.84 180.93 59.54"/>
    </g>
  </g>
</svg>