<?xml version="1.0" encoding="UTF-8"?>
<svg id="_图层_2" data-name="图层_2" xmlns="http://www.w3.org/2000/svg" viewBox="0 0 551.91 78.97">
  <defs>
    <style>
      .cls-1 {
        fill: #036eb8;
      }

      .cls-2, .cls-3 {
        fill: none;
      }

      .cls-3 {
        stroke: #036eb8;
        stroke-miterlimit: 10;
      }
    </style>
  </defs>
  <g id="_图层_1-2" data-name="图层_1">
    <rect class="cls-2" width="551.91" height="78.97"/>
    <g>
      <line class="cls-3" x1="254.34" y1="40.15" x2="261.22" y2="39.32"/>
      <polygon class="cls-1" points="265.42 38.81 259.79 41.95 260.9 39.36 259.2 37.11 265.42 38.81"/>
    </g>
    <g>
      <line class="cls-3" x1="247.36" y1="41" x2="240.48" y2="41.83"/>
      <polygon class="cls-1" points="236.27 42.34 241.91 39.2 240.79 41.79 242.49 44.04 236.27 42.34"/>
    </g>
    <g>
      <line class="cls-3" x1="251.95" y1="43.76" x2="252.4" y2="50.67"/>
      <polygon class="cls-1" points="252.68 54.9 249.85 49.1 252.38 50.36 254.72 48.78 252.68 54.9"/>
    </g>
    <g>
      <line class="cls-3" x1="251.17" y1="38.07" x2="250.47" y2="31.18"/>
      <polygon class="cls-1" points="250.05 26.96 253.08 32.66 250.51 31.49 248.22 33.15 250.05 26.96"/>
    </g>
    <g>
      <line class="cls-3" x1="268.98" y1="38.38" x2="275.86" y2="37.55"/>
      <polygon class="cls-1" points="280.07 37.04 274.43 40.18 275.55 37.59 273.85 35.34 280.07 37.04"/>
    </g>
    <g>
      <line class="cls-3" x1="253.19" y1="57.97" x2="253.89" y2="64.87"/>
      <polygon class="cls-1" points="254.31 69.08 251.28 63.39 253.85 64.55 256.14 62.89 254.31 69.08"/>
    </g>
    <g>
      <line class="cls-3" x1="249.84" y1="24.88" x2="249.14" y2="17.98"/>
      <polygon class="cls-1" points="248.71 13.77 251.74 19.46 249.17 18.3 246.89 19.95 248.71 13.77"/>
    </g>
    <g>
      <line class="cls-3" x1="232.26" y1="42.82" x2="225.38" y2="43.66"/>
      <polygon class="cls-1" points="221.17 44.16 226.81 41.03 225.69 43.62 227.39 45.87 221.17 44.16"/>
    </g>
    <g>
      <line class="cls-3" x1="242.4" y1="52.54" x2="238.15" y2="58.01"/>
      <polygon class="cls-1" points="235.55 61.35 237.29 55.14 238.34 57.76 241.14 58.14 235.55 61.35"/>
    </g>
    <g>
      <line class="cls-3" x1="263.34" y1="48.4" x2="268.68" y2="52.82"/>
      <polygon class="cls-1" points="271.94 55.52 265.79 53.59 268.43 52.62 268.9 49.83 271.94 55.52"/>
    </g>
    <g>
      <line class="cls-3" x1="260.73" y1="28.97" x2="264.98" y2="23.5"/>
      <polygon class="cls-1" points="267.59 20.15 265.85 26.36 264.79 23.75 262 23.37 267.59 20.15"/>
    </g>
    <g>
      <line class="cls-3" x1="241.27" y1="30.8" x2="236.37" y2="25.9"/>
      <polygon class="cls-1" points="233.38 22.9 239.32 25.4 236.6 26.12 235.87 28.85 233.38 22.9"/>
    </g>
  </g>
</svg>