<?xml version="1.0" encoding="UTF-8"?>
<svg id="_图层_2" data-name="图层_2" xmlns="http://www.w3.org/2000/svg" viewBox="0 0 565.16 104.77">
  <defs>
    <style>
      .cls-1 {
        fill: #ea5514;
      }

      .cls-2, .cls-3, .cls-4 {
        fill: none;
      }

      .cls-3 {
        stroke: #ea5514;
      }

      .cls-3, .cls-4 {
        stroke-miterlimit: 10;
      }

      .cls-4 {
        stroke: #231815;
      }
    </style>
  </defs>
  <g id="_图层_1-2" data-name="图层_1">
    <rect class="cls-2" width="565.16" height="104.77"/>
    <path class="cls-4" d="M198.74,70.59c6.85-4.02,16.23-8.26,27.87-10.32,4.47-.79,21.99-3.52,42.84,3.61,10.64,3.64,24.34,10.31,29.48,14.06"/>
    <path class="cls-4" d="M200.03,26.79c10.84-10.45,19.97-12.38,28.52-12.39,10.66,0,44.09,9.97,58.9,19.1"/>
    <line class="cls-4" x1="200.03" y1="26.79" x2="198.74" y2="70.59"/>
    <line class="cls-4" x1="287.44" y1="33.5" x2="298.93" y2="77.94"/>
    <g>
      <line class="cls-3" x1="211.64" y1="63.73" x2="209.24" y2="57.23"/>
      <polygon class="cls-1" points="207.76 53.26 212.12 58.01 209.35 57.53 207.55 59.7 207.76 53.26"/>
    </g>
    <g>
      <line class="cls-3" x1="283.84" y1="69.4" x2="287.3" y2="63.4"/>
      <polygon class="cls-1" points="289.42 59.73 288.55 66.12 287.14 63.68 284.32 63.68 289.42 59.73"/>
    </g>
    <g>
      <line class="cls-3" x1="271.16" y1="64.34" x2="273.51" y2="57.82"/>
      <polygon class="cls-1" points="274.95 53.84 275.22 60.28 273.4 58.12 270.63 58.62 274.95 53.84"/>
    </g>
    <g>
      <line class="cls-3" x1="256.22" y1="59.81" x2="257.74" y2="53.05"/>
      <polygon class="cls-1" points="258.66 48.91 259.74 55.27 257.67 53.35 254.98 54.2 258.66 48.91"/>
    </g>
    <g>
      <line class="cls-3" x1="242.18" y1="58.76" x2="242.39" y2="51.83"/>
      <polygon class="cls-1" points="242.51 47.6 244.77 53.64 242.38 52.15 239.9 53.49 242.51 47.6"/>
    </g>
    <g>
      <line class="cls-3" x1="226.97" y1="59.77" x2="226.2" y2="52.88"/>
      <polygon class="cls-1" points="225.73 48.67 228.82 54.33 226.23 53.2 223.97 54.87 225.73 48.67"/>
    </g>
    <g>
      <line class="cls-3" x1="294.99" y1="75.14" x2="298.45" y2="69.13"/>
      <polygon class="cls-1" points="300.57 65.47 299.7 71.86 298.29 69.41 295.47 69.42 300.57 65.47"/>
    </g>
    <g>
      <line class="cls-3" x1="200.03" y1="69.4" x2="196.56" y2="63.4"/>
      <polygon class="cls-1" points="194.44 59.73 199.54 63.68 196.72 63.68 195.32 66.12 194.44 59.73"/>
    </g>
    <g>
      <line class="cls-3" x1="206.59" y1="52.08" x2="204.06" y2="44.56"/>
      <polygon class="cls-1" points="202.71 40.55 206.93 45.43 204.16 44.86 202.3 46.98 202.71 40.55"/>
    </g>
    <g>
      <line class="cls-3" x1="278.79" y1="58.34" x2="282.4" y2="51.44"/>
      <polygon class="cls-1" points="284.37 47.68 283.76 54.1 282.26 51.72 279.44 51.84 284.37 47.68"/>
    </g>
    <g>
      <line class="cls-3" x1="266.11" y1="52.76" x2="268.58" y2="45.22"/>
      <polygon class="cls-1" points="269.9 41.19 270.36 47.62 268.48 45.52 265.72 46.1 269.9 41.19"/>
    </g>
    <g>
      <line class="cls-3" x1="251.17" y1="47.77" x2="252.77" y2="39.92"/>
      <polygon class="cls-1" points="253.61 35.76 254.81 42.1 252.71 40.23 250.03 41.13 253.61 35.76"/>
    </g>
    <g>
      <line class="cls-3" x1="237.13" y1="46.61" x2="237.35" y2="38.55"/>
      <polygon class="cls-1" points="237.46 34.32 239.74 40.35 237.34 38.87 234.86 40.22 237.46 34.32"/>
    </g>
    <g>
      <line class="cls-3" x1="221.92" y1="47.72" x2="221.11" y2="39.72"/>
      <polygon class="cls-1" points="220.68 35.5 223.71 41.19 221.14 40.03 218.85 41.69 220.68 35.5"/>
    </g>
    <g>
      <line class="cls-3" x1="289.94" y1="64.65" x2="293.55" y2="57.75"/>
      <polygon class="cls-1" points="295.52 54 294.91 60.42 293.41 58.03 290.59 58.15 295.52 54"/>
    </g>
    <g>
      <line class="cls-3" x1="204.69" y1="40.84" x2="202.04" y2="32.13"/>
      <polygon class="cls-1" points="200.81 28.08 204.88 33.08 202.13 32.43 200.21 34.5 200.81 28.08"/>
    </g>
    <g>
      <line class="cls-3" x1="278.79" y1="46.36" x2="282.56" y2="38.4"/>
      <polygon class="cls-1" points="284.37 34.57 284.02 41.01 282.42 38.68 279.61 38.92 284.37 34.57"/>
    </g>
    <g>
      <line class="cls-3" x1="264.55" y1="40.41" x2="267.14" y2="31.66"/>
      <polygon class="cls-1" points="268.35 27.6 268.99 34.02 267.05 31.97 264.31 32.63 268.35 27.6"/>
    </g>
    <g>
      <line class="cls-3" x1="249.27" y1="36.06" x2="250.94" y2="26.95"/>
      <polygon class="cls-1" points="251.71 22.78 253.03 29.09 250.89 27.26 248.23 28.21 251.71 22.78"/>
    </g>
    <g>
      <line class="cls-3" x1="236.04" y1="33.43" x2="235.19" y2="24.09"/>
      <polygon class="cls-1" points="234.8 19.87 237.78 25.6 235.22 24.41 232.92 26.04 234.8 19.87"/>
    </g>
    <g>
      <line class="cls-3" x1="220.01" y1="36.02" x2="219.16" y2="26.71"/>
      <polygon class="cls-1" points="218.77 22.49 221.75 28.21 219.19 27.02 216.89 28.65 218.77 22.49"/>
    </g>
    <g>
      <line class="cls-3" x1="288.03" y1="54.75" x2="291.8" y2="46.79"/>
      <polygon class="cls-1" points="293.62 42.96 293.27 49.4 291.67 47.08 288.86 47.32 293.62 42.96"/>
    </g>
    <g>
      <line class="cls-3" x1="204.39" y1="26.88" x2="201.94" y2="20.04"/>
      <polygon class="cls-1" points="200.51 16.06 204.82 20.85 202.05 20.34 200.23 22.5 200.51 16.06"/>
    </g>
    <g>
      <line class="cls-3" x1="276.88" y1="30.24" x2="280.4" y2="23.94"/>
      <polygon class="cls-1" points="282.47 20.24 281.69 26.64 280.25 24.21 277.43 24.26 282.47 20.24"/>
    </g>
    <g>
      <line class="cls-3" x1="264.55" y1="25.67" x2="266.95" y2="18.81"/>
      <polygon class="cls-1" points="268.35 14.81 268.68 21.25 266.85 19.11 264.08 19.64 268.35 14.81"/>
    </g>
    <g>
      <line class="cls-3" x1="249.67" y1="21.47" x2="250.7" y2="14.25"/>
      <polygon class="cls-1" points="251.31 10.06 252.87 16.31 250.66 14.56 248.04 15.62 251.31 10.06"/>
    </g>
    <g>
      <line class="cls-3" x1="234.93" y1="19.7" x2="235.14" y2="12.39"/>
      <polygon class="cls-1" points="235.26 8.15 237.53 14.19 235.13 12.71 232.65 14.05 235.26 8.15"/>
    </g>
    <g>
      <line class="cls-3" x1="219.48" y1="19.99" x2="217.65" y2="12.92"/>
      <polygon class="cls-1" points="216.59 8.82 220.45 13.99 217.73 13.23 215.72 15.21 216.59 8.82"/>
    </g>
    <g>
      <line class="cls-3" x1="287.74" y1="35.24" x2="291.26" y2="28.94"/>
      <polygon class="cls-1" points="293.32 25.24 292.54 31.64 291.1 29.21 288.28 29.26 293.32 25.24"/>
    </g>
    <g>
      <line class="cls-3" x1="212.97" y1="78.38" x2="210.56" y2="71.88"/>
      <polygon class="cls-1" points="209.09 67.91 213.45 72.66 210.67 72.18 208.88 74.35 209.09 67.91"/>
    </g>
    <g>
      <line class="cls-3" x1="285.16" y1="84.06" x2="288.63" y2="78.06"/>
      <polygon class="cls-1" points="290.75 74.39 289.87 80.78 288.47 78.33 285.65 78.34 290.75 74.39"/>
    </g>
    <g>
      <line class="cls-3" x1="272.48" y1="78.99" x2="274.84" y2="72.48"/>
      <polygon class="cls-1" points="276.28 68.49 276.54 74.94 274.73 72.78 271.95 73.28 276.28 68.49"/>
    </g>
    <g>
      <line class="cls-3" x1="257.55" y1="74.46" x2="259.06" y2="67.7"/>
      <polygon class="cls-1" points="259.99 63.57 261.06 69.92 258.99 68.01 256.3 68.86 259.99 63.57"/>
    </g>
    <g>
      <line class="cls-3" x1="243.51" y1="73.41" x2="243.71" y2="66.49"/>
      <polygon class="cls-1" points="243.84 62.25 246.1 68.29 243.7 66.8 241.22 68.15 243.84 62.25"/>
    </g>
    <g>
      <line class="cls-3" x1="228.29" y1="74.42" x2="227.52" y2="67.54"/>
      <polygon class="cls-1" points="227.05 63.33 230.14 68.99 227.56 67.85 225.29 69.53 227.05 63.33"/>
    </g>
    <g>
      <line class="cls-3" x1="275.72" y1="96.07" x2="276.53" y2="89.19"/>
      <polygon class="cls-1" points="277.03 84.98 278.75 91.2 276.49 89.5 273.91 90.62 277.03 84.98"/>
    </g>
    <g>
      <line class="cls-3" x1="263.42" y1="91.96" x2="264.23" y2="85.08"/>
      <polygon class="cls-1" points="264.72 80.87 266.45 87.08 264.19 85.39 261.6 86.51 264.72 80.87"/>
    </g>
    <g>
      <line class="cls-3" x1="248.15" y1="89.6" x2="249.01" y2="82.31"/>
      <polygon class="cls-1" points="249.51 78.1 251.23 84.32 248.98 82.62 246.39 83.75 249.51 78.1"/>
    </g>
    <g>
      <line class="cls-3" x1="234.93" y1="89.43" x2="235.14" y2="82.5"/>
      <polygon class="cls-1" points="235.26 78.27 237.52 84.31 235.13 82.82 232.65 84.17 235.26 78.27"/>
    </g>
    <g>
      <line class="cls-3" x1="221.51" y1="93.36" x2="220.35" y2="86.53"/>
      <polygon class="cls-1" points="219.65 82.35 223.05 87.83 220.41 86.84 218.24 88.65 219.65 82.35"/>
    </g>
  </g>
</svg>