<?xml version="1.0" encoding="UTF-8"?>
<svg id="_图层_2" data-name="图层_2" xmlns="http://www.w3.org/2000/svg" viewBox="0 0 565.16 104.77">
  <defs>
    <style>
      .cls-1 {
        fill: #036eb8;
      }

      .cls-2, .cls-3, .cls-4 {
        fill: none;
      }

      .cls-3 {
        stroke: #231815;
      }

      .cls-3, .cls-4 {
        stroke-miterlimit: 10;
      }

      .cls-4 {
        stroke: #036eb8;
      }
    </style>
  </defs>
  <g id="_图层_1-2" data-name="图层_1">
    <rect class="cls-2" width="565.16" height="104.77"/>
    <path class="cls-3" d="M198.74,70.59c6.85-4.02,16.23-8.26,27.87-10.32,4.47-.79,21.99-3.52,42.84,3.61,10.64,3.64,24.34,10.31,29.48,14.06"/>
    <path class="cls-3" d="M200.03,26.79c10.84-10.45,19.97-12.38,28.52-12.39,10.66,0,44.09,9.97,58.9,19.1"/>
    <line class="cls-3" x1="200.03" y1="26.79" x2="198.74" y2="70.59"/>
    <line class="cls-3" x1="287.44" y1="33.5" x2="298.93" y2="77.94"/>
    <g>
      <line class="cls-4" x1="204.54" y1="60.62" x2="210.95" y2="57.98"/>
      <polygon class="cls-1" points="214.86 56.36 210.28 60.89 210.66 58.1 208.42 56.38 214.86 56.36"/>
    </g>
    <g>
      <line class="cls-4" x1="284.05" y1="63.09" x2="289.39" y2="67.51"/>
      <polygon class="cls-1" points="292.65 70.21 286.5 68.28 289.14 67.3 289.61 64.52 292.65 70.21"/>
    </g>
    <g>
      <line class="cls-4" x1="270.3" y1="58.17" x2="276.81" y2="60.56"/>
      <polygon class="cls-1" points="280.78 62.02 274.34 62.25 276.51 60.45 276.02 57.67 280.78 62.02"/>
    </g>
    <g>
      <line class="cls-4" x1="253.4" y1="54.31" x2="260.11" y2="56.06"/>
      <polygon class="cls-1" points="264.2 57.13 257.81 57.98 259.8 55.98 259.05 53.26 264.2 57.13"/>
    </g>
    <g>
      <line class="cls-4" x1="236.79" y1="52.67" x2="243.69" y2="53.3"/>
      <polygon class="cls-1" points="247.91 53.68 241.74 55.57 243.37 53.27 242.18 50.71 247.91 53.68"/>
    </g>
    <g>
      <line class="cls-4" x1="220.81" y1="54.89" x2="227.69" y2="54.06"/>
      <polygon class="cls-1" points="231.89 53.55 226.26 56.69 227.37 54.1 225.67 51.85 231.89 53.55"/>
    </g>
    <g>
      <line class="cls-4" x1="203.92" y1="51.49" x2="209.92" y2="48.02"/>
      <polygon class="cls-1" points="213.59 45.9 209.64 51 209.65 48.18 207.2 46.78 213.59 45.9"/>
    </g>
    <g>
      <line class="cls-4" x1="283.1" y1="53.29" x2="288.44" y2="57.71"/>
      <polygon class="cls-1" points="291.7 60.41 285.55 58.48 288.2 57.51 288.66 54.73 291.7 60.41"/>
    </g>
    <g>
      <line class="cls-4" x1="269.36" y1="48.37" x2="275.86" y2="50.77"/>
      <polygon class="cls-1" points="279.84 52.23 273.39 52.46 275.56 50.66 275.08 47.88 279.84 52.23"/>
    </g>
    <g>
      <line class="cls-4" x1="252.45" y1="44.51" x2="259.16" y2="46.27"/>
      <polygon class="cls-1" points="263.26 47.34 256.87 48.19 258.85 46.19 258.1 43.47 263.26 47.34"/>
    </g>
    <g>
      <line class="cls-4" x1="235.84" y1="42.88" x2="242.74" y2="43.5"/>
      <polygon class="cls-1" points="246.96 43.89 240.8 45.78 242.43 43.48 241.24 40.92 246.96 43.89"/>
    </g>
    <g>
      <line class="cls-4" x1="218.35" y1="44.05" x2="225.23" y2="43.22"/>
      <polygon class="cls-1" points="229.44 42.71 223.8 45.85 224.92 43.26 223.22 41.01 229.44 42.71"/>
    </g>
    <g>
      <line class="cls-4" x1="201.72" y1="40.76" x2="207.72" y2="37.29"/>
      <polygon class="cls-1" points="211.39 35.17 207.44 40.27 207.45 37.45 205 36.04 211.39 35.17"/>
    </g>
    <g>
      <line class="cls-4" x1="280.9" y1="42.56" x2="286.24" y2="46.98"/>
      <polygon class="cls-1" points="289.5 49.68 283.35 47.75 286 46.78 286.46 43.99 289.5 49.68"/>
    </g>
    <g>
      <line class="cls-4" x1="267.16" y1="37.64" x2="273.66" y2="40.03"/>
      <polygon class="cls-1" points="277.63 41.5 271.19 41.72 273.36 39.92 272.87 37.15 277.63 41.5"/>
    </g>
    <g>
      <line class="cls-4" x1="250.25" y1="33.78" x2="256.96" y2="35.53"/>
      <polygon class="cls-1" points="261.06 36.6 254.66 37.45 256.65 35.45 255.9 32.74 261.06 36.6"/>
    </g>
    <g>
      <line class="cls-4" x1="233.64" y1="32.14" x2="240.54" y2="32.77"/>
      <polygon class="cls-1" points="244.76 33.16 238.59 35.04 240.23 32.74 239.04 30.19 244.76 33.16"/>
    </g>
    <g>
      <line class="cls-4" x1="217.05" y1="33.32" x2="223.93" y2="32.49"/>
      <polygon class="cls-1" points="228.14 31.98 222.51 35.12 223.62 32.53 221.92 30.28 228.14 31.98"/>
    </g>
    <g>
      <line class="cls-4" x1="201.05" y1="30.65" x2="206.62" y2="26.53"/>
      <polygon class="cls-1" points="210.03 24.01 206.68 29.52 206.37 26.71 203.78 25.6 210.03 24.01"/>
    </g>
    <g>
      <line class="cls-4" x1="279.89" y1="31.92" x2="285.23" y2="36.34"/>
      <polygon class="cls-1" points="288.49 39.04 282.34 37.12 284.98 36.14 285.45 33.36 288.49 39.04"/>
    </g>
    <g>
      <line class="cls-4" x1="266.14" y1="27" x2="272.65" y2="29.4"/>
      <polygon class="cls-1" points="276.62 30.86 270.18 31.09 272.35 29.29 271.86 26.51 276.62 30.86"/>
    </g>
    <g>
      <line class="cls-4" x1="249.24" y1="23.14" x2="255.94" y2="24.9"/>
      <polygon class="cls-1" points="260.04 25.97 253.65 26.82 255.64 24.82 254.88 22.1 260.04 25.97"/>
    </g>
    <g>
      <line class="cls-4" x1="232.63" y1="21.51" x2="239.53" y2="22.14"/>
      <polygon class="cls-1" points="243.75 22.52 237.58 24.41 239.21 22.11 238.02 19.55 243.75 22.52"/>
    </g>
    <g>
      <line class="cls-4" x1="217.05" y1="21.9" x2="223.93" y2="21.07"/>
      <polygon class="cls-1" points="228.14 20.56 222.51 23.7 223.62 21.11 221.92 18.86 228.14 20.56"/>
    </g>
    <g>
      <line class="cls-4" x1="203.59" y1="74.6" x2="210" y2="71.95"/>
      <polygon class="cls-1" points="213.92 70.34 209.33 74.87 209.71 72.07 207.47 70.36 213.92 70.34"/>
    </g>
    <g>
      <line class="cls-4" x1="283.1" y1="77.06" x2="288.44" y2="81.48"/>
      <polygon class="cls-1" points="291.7 84.18 285.55 82.25 288.2 81.28 288.66 78.5 291.7 84.18"/>
    </g>
    <g>
      <line class="cls-4" x1="269.36" y1="72.14" x2="275.86" y2="74.54"/>
      <polygon class="cls-1" points="279.84 76 273.39 76.23 275.56 74.43 275.08 71.65 279.84 76"/>
    </g>
    <g>
      <line class="cls-4" x1="252.45" y1="68.28" x2="259.16" y2="70.04"/>
      <polygon class="cls-1" points="263.26 71.11 256.87 71.96 258.85 69.96 258.1 67.24 263.26 71.11"/>
    </g>
    <g>
      <line class="cls-4" x1="235.84" y1="66.65" x2="242.74" y2="67.28"/>
      <polygon class="cls-1" points="246.96 67.66 240.8 69.55 242.43 67.25 241.24 64.69 246.96 67.66"/>
    </g>
    <g>
      <line class="cls-4" x1="219.86" y1="68.87" x2="226.74" y2="68.03"/>
      <polygon class="cls-1" points="230.94 67.53 225.31 70.66 226.42 68.07 224.72 65.82 230.94 67.53"/>
    </g>
    <g>
      <line class="cls-4" x1="269.08" y1="82.78" x2="275.58" y2="85.17"/>
      <polygon class="cls-1" points="279.55 86.64 273.11 86.86 275.28 85.06 274.79 82.29 279.55 86.64"/>
    </g>
    <g>
      <line class="cls-4" x1="252.17" y1="78.92" x2="258.88" y2="80.67"/>
      <polygon class="cls-1" points="262.98 81.74 256.58 82.59 258.57 80.59 257.82 77.88 262.98 81.74"/>
    </g>
    <g>
      <line class="cls-4" x1="235.56" y1="77.28" x2="242.46" y2="77.91"/>
      <polygon class="cls-1" points="246.68 78.3 240.51 80.18 242.15 77.88 240.96 75.33 246.68 78.3"/>
    </g>
    <g>
      <line class="cls-4" x1="219.58" y1="79.5" x2="226.46" y2="78.67"/>
      <polygon class="cls-1" points="230.66 78.16 225.03 81.3 226.14 78.71 224.44 76.46 230.66 78.16"/>
    </g>
    <g>
      <line class="cls-4" x1="251.42" y1="89.05" x2="258.13" y2="90.8"/>
      <polygon class="cls-1" points="262.23 91.87 255.83 92.72 257.82 90.72 257.07 88 262.23 91.87"/>
    </g>
    <g>
      <line class="cls-4" x1="234.81" y1="87.41" x2="241.71" y2="88.04"/>
      <polygon class="cls-1" points="245.93 88.42 239.76 90.31 241.4 88.01 240.21 85.45 245.93 88.42"/>
    </g>
  </g>
</svg>