<?xml version="1.0" encoding="UTF-8"?>
<svg id="_图层_2" data-name="图层_2" xmlns="http://www.w3.org/2000/svg" viewBox="0 0 551.91 78.97">
  <defs>
    <style>
      .cls-1 {
        fill: #ea5514;
      }

      .cls-2, .cls-3 {
        fill: none;
      }

      .cls-3 {
        stroke: #ea5514;
        stroke-miterlimit: 10;
      }
    </style>
  </defs>
  <g id="_图层_1-2" data-name="图层_1">
    <rect class="cls-2" width="551.91" height="78.97"/>
    <g>
      <g>
        <line class="cls-3" x1="244.62" y1="56.57" x2="238.1" y2="55.36"/>
        <polygon class="cls-1" points="233.94 54.58 240.25 53.28 238.41 55.41 239.36 58.07 233.94 54.58"/>
      </g>
      <g>
        <line class="cls-3" x1="229.63" y1="52.54" x2="225.88" y2="47.07"/>
        <polygon class="cls-1" points="223.49 43.58 228.88 47.12 226.06 47.33 224.85 49.88 223.49 43.58"/>
      </g>
      <g>
        <line class="cls-3" x1="221.89" y1="39.09" x2="223.1" y2="32.57"/>
        <polygon class="cls-1" points="223.88 28.41 225.18 34.72 223.05 32.88 220.39 33.83 223.88 28.41"/>
      </g>
      <g>
        <line class="cls-3" x1="225.92" y1="24.1" x2="231.39" y2="20.35"/>
        <polygon class="cls-1" points="234.88 17.96 231.34 23.35 231.13 20.53 228.58 19.32 234.88 17.96"/>
      </g>
      <g>
        <line class="cls-3" x1="239.37" y1="16.36" x2="245.89" y2="17.57"/>
        <polygon class="cls-1" points="250.05 18.35 243.74 19.65 245.58 17.52 244.63 14.86 250.05 18.35"/>
      </g>
      <g>
        <line class="cls-3" x1="254.35" y1="20.39" x2="258.1" y2="25.86"/>
        <polygon class="cls-1" points="260.5 29.35 255.11 25.81 257.93 25.6 259.14 23.05 260.5 29.35"/>
      </g>
      <g>
        <line class="cls-3" x1="262.1" y1="33.84" x2="260.89" y2="40.36"/>
        <polygon class="cls-1" points="260.11 44.52 258.8 38.21 260.94 40.05 263.6 39.1 260.11 44.52"/>
      </g>
      <g>
        <line class="cls-3" x1="258.07" y1="48.83" x2="252.6" y2="52.58"/>
        <polygon class="cls-1" points="249.1 54.97 252.65 49.58 252.86 52.4 255.41 53.61 249.1 54.97"/>
      </g>
    </g>
    <g>
      <g>
        <line class="cls-3" x1="254.79" y1="59.27" x2="248.38" y2="60.99"/>
        <polygon class="cls-1" points="244.29 62.09 249.42 58.18 248.69 60.91 250.69 62.89 244.29 62.09"/>
      </g>
      <g>
        <line class="cls-3" x1="234.69" y1="61.69" x2="228.94" y2="58.38"/>
        <polygon class="cls-1" points="225.27 56.26 231.66 57.13 229.22 58.54 229.23 61.36 225.27 56.26"/>
      </g>
      <g>
        <line class="cls-3" x1="218.76" y1="49.18" x2="217.04" y2="42.78"/>
        <polygon class="cls-1" points="215.94 38.69 219.85 43.82 217.12 43.09 215.14 45.09 215.94 38.69"/>
      </g>
      <g>
        <line class="cls-3" x1="216.34" y1="29.08" x2="219.65" y2="23.34"/>
        <polygon class="cls-1" points="221.77 19.67 220.9 26.06 219.49 23.61 216.67 23.62 221.77 19.67"/>
      </g>
      <g>
        <line class="cls-3" x1="228.85" y1="13.16" x2="235.25" y2="11.44"/>
        <polygon class="cls-1" points="239.34 10.34 234.21 14.24 234.94 11.52 232.94 9.53 239.34 10.34"/>
      </g>
      <g>
        <line class="cls-3" x1="248.95" y1="10.74" x2="254.69" y2="14.05"/>
        <polygon class="cls-1" points="258.36 16.17 251.97 15.3 254.42 13.89 254.41 11.07 258.36 16.17"/>
      </g>
      <g>
        <line class="cls-3" x1="264.87" y1="23.24" x2="266.59" y2="29.65"/>
        <polygon class="cls-1" points="267.69 33.74 263.79 28.61 266.51 29.34 268.5 27.34 267.69 33.74"/>
      </g>
      <g>
        <line class="cls-3" x1="267.29" y1="43.34" x2="263.98" y2="49.09"/>
        <polygon class="cls-1" points="261.86 52.76 262.73 46.37 264.14 48.81 266.96 48.8 261.86 52.76"/>
      </g>
    </g>
    <g>
      <g>
        <line class="cls-3" x1="240.68" y1="49.54" x2="234.65" y2="45.41"/>
        <polygon class="cls-1" points="231.15 43.02 237.45 44.38 234.91 45.59 234.7 48.4 231.15 43.02"/>
      </g>
      <g>
        <line class="cls-3" x1="228.98" y1="35.21" x2="233.11" y2="29.18"/>
        <polygon class="cls-1" points="235.5 25.68 234.14 31.99 232.93 29.44 230.12 29.23 235.5 25.68"/>
      </g>
      <g>
        <line class="cls-3" x1="243.31" y1="23.52" x2="249.34" y2="27.64"/>
        <polygon class="cls-1" points="252.84 30.04 246.53 28.68 249.08 27.46 249.29 24.65 252.84 30.04"/>
      </g>
      <g>
        <line class="cls-3" x1="255.01" y1="37.84" x2="250.88" y2="43.87"/>
        <polygon class="cls-1" points="248.49 47.37 249.84 41.07 251.06 43.61 253.87 43.82 248.49 47.37"/>
      </g>
    </g>
  </g>
</svg>