<?xml version="1.0" encoding="UTF-8"?>
<svg id="_图层_2" data-name="图层_2" xmlns="http://www.w3.org/2000/svg" viewBox="0 0 551.91 78.97">
  <defs>
    <style>
      .cls-1 {
        fill: #036eb8;
      }

      .cls-2, .cls-3, .cls-4 {
        fill: none;
      }

      .cls-3 {
        stroke: #231815;
      }

      .cls-3, .cls-4 {
        stroke-miterlimit: 10;
      }

      .cls-4 {
        stroke: #036eb8;
      }
    </style>
  </defs>
  <g id="_图层_1-2" data-name="图层_1">
    <rect class="cls-2" width="551.91" height="78.97"/>
    <path class="cls-3" d="M163.99,44.36c6.72-4.21,15.93-8.65,27.35-10.81,4.39-.83,21.58-3.68,42.04,3.78,10.44,3.81,23.89,10.8,28.94,14.73"/>
    <g>
      <line class="cls-4" x1="169.79" y1="33.85" x2="176.2" y2="31.21"/>
      <polygon class="cls-1" points="180.11 29.6 175.53 34.13 175.91 31.33 173.67 29.62 180.11 29.6"/>
    </g>
    <g>
      <line class="cls-4" x1="249.3" y1="36.32" x2="254.64" y2="40.74"/>
      <polygon class="cls-1" points="257.9 43.44 251.75 41.51 254.39 40.54 254.86 37.76 257.9 43.44"/>
    </g>
    <g>
      <line class="cls-4" x1="235.55" y1="31.4" x2="242.06" y2="33.79"/>
      <polygon class="cls-1" points="246.03 35.26 239.59 35.48 241.76 33.68 241.27 30.91 246.03 35.26"/>
    </g>
    <g>
      <line class="cls-4" x1="218.65" y1="27.54" x2="225.36" y2="29.29"/>
      <polygon class="cls-1" points="229.46 30.36 223.06 31.22 225.05 29.21 224.3 26.5 229.46 30.36"/>
    </g>
    <g>
      <line class="cls-4" x1="202.04" y1="25.9" x2="208.94" y2="26.53"/>
      <polygon class="cls-1" points="213.16 26.92 206.99 28.8 208.62 26.5 207.43 23.95 213.16 26.92"/>
    </g>
    <g>
      <line class="cls-4" x1="186.06" y1="28.12" x2="192.94" y2="27.29"/>
      <polygon class="cls-1" points="197.14 26.78 191.51 29.92 192.62 27.33 190.92 25.08 197.14 26.78"/>
    </g>
    <g>
      <line class="cls-4" x1="234.61" y1="21.6" x2="241.11" y2="24"/>
      <polygon class="cls-1" points="245.09 25.46 238.64 25.69 240.81 23.89 240.33 21.11 245.09 25.46"/>
    </g>
    <g>
      <line class="cls-4" x1="217.71" y1="17.75" x2="224.41" y2="19.5"/>
      <polygon class="cls-1" points="228.51 20.57 222.12 21.42 224.1 19.42 223.35 16.7 228.51 20.57"/>
    </g>
    <g>
      <line class="cls-4" x1="183.6" y1="17.29" x2="190.48" y2="16.45"/>
      <polygon class="cls-1" points="194.69 15.95 189.05 19.08 190.17 16.49 188.47 14.24 194.69 15.95"/>
    </g>
    <g>
      <line class="cls-4" x1="168.85" y1="47.83" x2="175.25" y2="45.19"/>
      <polygon class="cls-1" points="179.17 43.57 174.58 48.1 174.96 45.31 172.72 43.59 179.17 43.57"/>
    </g>
    <g>
      <line class="cls-4" x1="248.35" y1="50.29" x2="253.69" y2="54.72"/>
      <polygon class="cls-1" points="256.95 57.42 250.8 55.49 253.45 54.51 253.91 51.73 256.95 57.42"/>
    </g>
    <g>
      <line class="cls-4" x1="234.61" y1="45.37" x2="241.11" y2="47.77"/>
      <polygon class="cls-1" points="245.09 49.23 238.64 49.46 240.81 47.66 240.33 44.88 245.09 49.23"/>
    </g>
    <g>
      <line class="cls-4" x1="217.71" y1="41.52" x2="224.41" y2="43.27"/>
      <polygon class="cls-1" points="228.51 44.34 222.12 45.19 224.1 43.19 223.35 40.47 228.51 44.34"/>
    </g>
    <g>
      <line class="cls-4" x1="201.09" y1="39.88" x2="207.99" y2="40.51"/>
      <polygon class="cls-1" points="212.21 40.89 206.05 42.78 207.68 40.48 206.49 37.92 212.21 40.89"/>
    </g>
    <g>
      <line class="cls-4" x1="185.11" y1="42.1" x2="191.99" y2="41.27"/>
      <polygon class="cls-1" points="196.19 40.76 190.56 43.9 191.67 41.31 189.98 39.05 196.19 40.76"/>
    </g>
    <g>
      <line class="cls-4" x1="234.33" y1="56.01" x2="240.83" y2="58.41"/>
      <polygon class="cls-1" points="244.8 59.87 238.36 60.1 240.53 58.3 240.05 55.52 244.8 59.87"/>
    </g>
    <g>
      <line class="cls-4" x1="217.42" y1="52.15" x2="224.13" y2="53.91"/>
      <polygon class="cls-1" points="228.23 54.98 221.83 55.83 223.82 53.83 223.07 51.11 228.23 54.98"/>
    </g>
    <g>
      <line class="cls-4" x1="200.81" y1="50.52" x2="207.71" y2="51.15"/>
      <polygon class="cls-1" points="211.93 51.53 205.76 53.42 207.4 51.12 206.21 48.56 211.93 51.53"/>
    </g>
    <g>
      <line class="cls-4" x1="184.83" y1="52.74" x2="191.71" y2="51.9"/>
      <polygon class="cls-1" points="195.91 51.4 190.28 54.53 191.39 51.94 189.69 49.69 195.91 51.4"/>
    </g>
  </g>
</svg>