<?xml version="1.0" encoding="UTF-8"?>
<svg id="_图层_2" data-name="图层_2" xmlns="http://www.w3.org/2000/svg" xmlns:xlink="http://www.w3.org/1999/xlink" viewBox="0 0 440.58 151.45">
  <defs>
    <style>
      .cls-1 {
        stroke: url(#_未命名的渐变_219-9);
      }

      .cls-1, .cls-2, .cls-3, .cls-4, .cls-5, .cls-6, .cls-7, .cls-8, .cls-9, .cls-10, .cls-11, .cls-12, .cls-13, .cls-14, .cls-15, .cls-16, .cls-17, .cls-18, .cls-19, .cls-20, .cls-21, .cls-22 {
        stroke-miterlimit: 10;
      }

      .cls-1, .cls-2, .cls-5, .cls-10, .cls-11, .cls-12, .cls-13, .cls-14, .cls-17, .cls-19, .cls-20, .cls-21 {
        fill: #13ae67;
      }

      .cls-2 {
        stroke: url(#_未命名的渐变_219-8);
      }

      .cls-3 {
        stroke: url(#_未命名的渐变_253-7);
      }

      .cls-3, .cls-4, .cls-6, .cls-7, .cls-8, .cls-9, .cls-15, .cls-16, .cls-18, .cls-22 {
        fill: none;
      }

      .cls-4 {
        stroke: url(#_未命名的渐变_253);
      }

      .cls-5 {
        stroke: url(#_未命名的渐变_219-2);
      }

      .cls-6 {
        stroke: #f39800;
        stroke-dasharray: 4 1 0;
        stroke-linecap: round;
      }

      .cls-23 {
        fill: url(#_未命名的渐变_247-2);
      }

      .cls-7 {
        stroke: url(#_未命名的渐变_253-3);
      }

      .cls-24 {
        fill: url(#_未命名的渐变_253-8);
      }

      .cls-8 {
        stroke: url(#_未命名的渐变_247-4);
      }

      .cls-25 {
        fill: url(#_未命名的渐变_253-2);
      }

      .cls-9 {
        stroke: url(#_未命名的渐变_247);
      }

      .cls-10 {
        stroke: url(#_未命名的渐变_219-4);
      }

      .cls-11 {
        stroke: url(#_未命名的渐变_219-5);
      }

      .cls-12 {
        stroke: url(#_未命名的渐变_219-11);
      }

      .cls-13 {
        stroke: url(#_未命名的渐变_219-7);
      }

      .cls-14 {
        stroke: url(#_未命名的渐变_219);
      }

      .cls-26 {
        fill: url(#_未命名的渐变_253-6);
      }

      .cls-27 {
        fill: url(#_未命名的渐变_253-4);
      }

      .cls-15 {
        stroke: url(#_未命名的渐变_247-3);
      }

      .cls-16 {
        stroke: url(#_未命名的渐变_247-6);
      }

      .cls-17 {
        stroke: url(#_未命名的渐变_219-12);
      }

      .cls-18 {
        stroke: url(#_未命名的渐变_247-5);
      }

      .cls-19 {
        stroke: url(#_未命名的渐变_219-6);
      }

      .cls-20 {
        stroke: url(#_未命名的渐变_219-3);
      }

      .cls-28 {
        fill: #fff;
        font-family: Bauhaus93, 'Bauhaus 93';
        font-size: 48px;
      }

      .cls-21 {
        stroke: url(#_未命名的渐变_219-10);
      }

      .cls-22 {
        stroke: url(#_未命名的渐变_253-5);
      }
    </style>
    <linearGradient id="_未命名的渐变_219" data-name="未命名的渐变 219" x1="0" y1="35.93" x2="50.1" y2="35.93" gradientUnits="userSpaceOnUse">
      <stop offset="0" stop-color="#daecd7"/>
      <stop offset="0" stop-color="#d6ead3"/>
      <stop offset=".02" stop-color="#b4dbb2"/>
      <stop offset=".03" stop-color="#9acf97"/>
      <stop offset=".04" stop-color="#87c784"/>
      <stop offset=".06" stop-color="#7bc279"/>
      <stop offset=".07" stop-color="#78c176"/>
      <stop offset=".45" stop-color="#39af4b"/>
      <stop offset=".8" stop-color="#006636"/>
      <stop offset="1" stop-color="#003018"/>
    </linearGradient>
    <linearGradient id="_未命名的渐变_219-2" data-name="未命名的渐变 219" x1="77.65" y1="35.34" x2="127.75" y2="35.34" gradientTransform="translate(80.92 -70.67) rotate(60)" xlink:href="#_未命名的渐变_219"/>
    <linearGradient id="_未命名的渐变_219-3" data-name="未命名的渐变 219" x1="152.5" y1="34.14" x2="202.6" y2="34.14" gradientTransform="translate(294.86 -100.76) rotate(120)" xlink:href="#_未命名的渐变_219"/>
    <linearGradient id="_未命名的渐变_219-4" data-name="未命名的渐变 219" x1="249.6" y1="280.77" x2="299.7" y2="280.77" gradientTransform="translate(527.46 316.71) rotate(-180)" xlink:href="#_未命名的渐变_219"/>
    <linearGradient id="_未命名的渐变_219-5" data-name="未命名的渐变 219" x1="274.81" y1="50.21" x2="324.91" y2="50.21" gradientTransform="translate(435.17 320.73) rotate(-120)" xlink:href="#_未命名的渐变_219"/>
    <linearGradient id="_未命名的渐变_219-6" data-name="未命名的渐变 219" x1="415.16" y1="219.18" x2="465.26" y2="219.18" gradientTransform="translate(-5.27 307.57) rotate(-60)" xlink:href="#_未命名的渐变_219"/>
    <linearGradient id="_未命名的渐变_219-7" data-name="未命名的渐变 219" x1="0" y1="115.51" x2="50.1" y2="115.51" gradientTransform="translate(50.1) rotate(-180) scale(1 -1)" xlink:href="#_未命名的渐变_219"/>
    <linearGradient id="_未命名的渐变_219-8" data-name="未命名的渐变 219" x1="-127.03" y1="288.51" x2="-76.93" y2="288.51" gradientTransform="translate(300.53 -117.06) rotate(-120) scale(1 -1)" xlink:href="#_未命名的渐变_219"/>
    <linearGradient id="_未命名的渐变_219-9" data-name="未命名的渐变 219" x1="-264.63" y1="266.53" x2="-214.53" y2="266.53" gradientTransform="translate(527.13 41.29) rotate(-60) scale(1 -1)" xlink:href="#_未命名的渐变_219"/>
    <linearGradient id="_未命名的渐变_219-10" data-name="未命名的渐变 219" x1="-275.53" y1="201.19" x2="-225.43" y2="201.19" gradientTransform="translate(503.28 316.71) scale(1 -1)" xlink:href="#_未命名的渐变_219"/>
    <linearGradient id="_未命名的渐变_219-11" data-name="未命名的渐变 219" x1="-262.72" y1="224.84" x2="-212.63" y2="224.84" gradientTransform="translate(252.85 433.77) rotate(60) scale(1 -1)" xlink:href="#_未命名的渐变_219"/>
    <linearGradient id="_未命名的渐变_219-12" data-name="未命名的渐变 219" x1="-352.72" y1="247.75" x2="-302.62" y2="247.75" gradientTransform="translate(26.26 275.41) rotate(120) scale(1 -1)" xlink:href="#_未命名的渐变_219"/>
    <linearGradient id="_未命名的渐变_247" data-name="未命名的渐变 247" x1="101.66" y1="6.01" x2="132.79" y2="6.01" gradientUnits="userSpaceOnUse">
      <stop offset="0" stop-color="#187fc4" stop-opacity="0"/>
      <stop offset="1" stop-color="#187fc4"/>
    </linearGradient>
    <linearGradient id="_未命名的渐变_247-2" data-name="未命名的渐变 247" x1="101.66" y1="12.32" x2="132.79" y2="12.32" xlink:href="#_未命名的渐变_247"/>
    <linearGradient id="_未命名的渐变_253" data-name="未命名的渐变 253" x1="206.77" y1="41.12" x2="212.45" y2="41.12" gradientUnits="userSpaceOnUse">
      <stop offset="0" stop-color="#187fc4" stop-opacity="0"/>
      <stop offset="0" stop-color="#187fc4"/>
    </linearGradient>
    <linearGradient id="_未命名的渐变_253-2" data-name="未命名的渐变 253" y1="47.35" y2="47.35" xlink:href="#_未命名的渐变_253"/>
    <linearGradient id="_未命名的渐变_247-3" data-name="未命名的渐变 247" x1="176.52" y1="17.97" x2="212.45" y2="17.97" xlink:href="#_未命名的渐变_247"/>
    <linearGradient id="_未命名的渐变_253-3" data-name="未命名的渐变 253" x1="252.62" y1="53.43" x2="288.55" y2="53.43" xlink:href="#_未命名的渐变_253"/>
    <linearGradient id="_未命名的渐变_253-4" data-name="未命名的渐变 253" x1="252.62" y1="69.71" x2="288.55" y2="69.71" xlink:href="#_未命名的渐变_253"/>
    <linearGradient id="_未命名的渐变_247-4" data-name="未命名的渐变 247" x1="252.62" y1="17.97" x2="288.55" y2="17.97" xlink:href="#_未命名的渐变_247"/>
    <linearGradient id="_未命名的渐变_253-5" data-name="未命名的渐变 253" x1="297.61" y1="55.09" x2="364.58" y2="55.09" xlink:href="#_未命名的渐变_253"/>
    <linearGradient id="_未命名的渐变_253-6" data-name="未命名的渐变 253" x1="297.61" y1="59.55" x2="364.58" y2="59.55" xlink:href="#_未命名的渐变_253"/>
    <linearGradient id="_未命名的渐变_247-5" data-name="未命名的渐变 247" x1="328.73" y1="19.19" x2="364.66" y2="19.19" xlink:href="#_未命名的渐变_247"/>
    <linearGradient id="_未命名的渐变_253-7" data-name="未命名的渐变 253" x1="368.71" y1="48.71" x2="440.58" y2="48.71" xlink:href="#_未命名的渐变_253"/>
    <linearGradient id="_未命名的渐变_253-8" data-name="未命名的渐变 253" x1="368.71" y1="24.52" x2="440.58" y2="24.52" xlink:href="#_未命名的渐变_253"/>
    <linearGradient id="_未命名的渐变_247-6" data-name="未命名的渐变 247" x1="404.65" y1="17.97" x2="440.58" y2="17.97" xlink:href="#_未命名的渐变_247"/>
  </defs>
  <g id="_图层_1-2" data-name="图层_1">
    <g>
      <polygon class="cls-14" points="49.6 50.11 49.6 21.76 25.05 7.59 .5 21.76 .5 50.11 25.05 64.28 49.6 50.11"/>
      <text class="cls-28" transform="translate(10.6 50.9)"><tspan x="0" y="0">R</tspan></text>
    </g>
    <g>
      <polygon class="cls-5" points="101.66 64.28 126.21 50.11 126.21 21.76 101.66 7.59 77.12 21.76 77.12 50.11 101.66 64.28"/>
      <text class="cls-28" transform="translate(81.48 30.9) rotate(60)"><tspan x="0" y="0">R</tspan></text>
    </g>
    <g>
      <polygon class="cls-20" points="151.97 50.11 176.52 64.28 201.06 50.11 201.06 21.76 176.52 7.59 151.97 21.76 151.97 50.11"/>
      <text class="cls-28" transform="translate(170.78 15.93) rotate(120)"><tspan x="0" y="0">R</tspan></text>
    </g>
    <g>
      <polygon class="cls-10" points="228.26 21.76 228.26 50.11 252.81 64.28 277.36 50.11 277.36 21.76 252.81 7.59 228.26 21.76"/>
      <text class="cls-28" transform="translate(267.26 20.96) rotate(-180)"><tspan x="0" y="0">R</tspan></text>
    </g>
    <g>
      <polygon class="cls-11" points="328.73 7.59 304.18 21.76 304.18 50.11 328.73 64.28 353.28 50.11 353.28 21.76 328.73 7.59"/>
      <text class="cls-28" transform="translate(348.91 40.97) rotate(-120)"><tspan x="0" y="0">R</tspan></text>
    </g>
    <g>
      <polygon class="cls-19" points="429.19 21.76 404.65 7.59 380.1 21.76 380.1 50.11 404.65 64.28 429.19 50.11 429.19 21.76"/>
      <text class="cls-28" transform="translate(410.38 55.93) rotate(-60)"><tspan x="0" y="0">R</tspan></text>
    </g>
    <g>
      <polygon class="cls-13" points=".5 129.69 .5 101.34 25.05 87.17 49.6 101.34 49.6 129.69 25.05 143.86 .5 129.69"/>
      <text class="cls-28" transform="translate(39.5 130.48) rotate(-180) scale(1 -1)"><tspan x="0" y="0">R</tspan></text>
    </g>
    <g>
      <polygon class="cls-2" points="77.12 101.34 101.66 87.17 126.21 101.34 126.21 129.69 101.66 143.86 77.12 129.69 77.12 101.34"/>
      <text class="cls-28" transform="translate(95.93 135.51) rotate(-120) scale(1 -1)"><tspan x="0" y="0">R</tspan></text>
    </g>
    <g>
      <polygon class="cls-1" points="176.52 87.17 201.06 101.34 201.06 129.69 176.52 143.86 151.97 129.69 151.97 101.34 176.52 87.17"/>
      <text class="cls-28" transform="translate(156.33 120.55) rotate(-60) scale(1 -1)"><tspan x="0" y="0">R</tspan></text>
    </g>
    <g>
      <polygon class="cls-21" points="277.36 101.34 277.36 129.69 252.81 143.86 228.26 129.69 228.26 101.34 252.81 87.17 277.36 101.34"/>
      <text class="cls-28" transform="translate(238.36 100.55) scale(1 -1)"><tspan x="0" y="0">R</tspan></text>
    </g>
    <g>
      <polygon class="cls-12" points="353.28 129.69 328.73 143.86 304.18 129.69 304.18 101.34 328.73 87.17 353.28 101.34 353.28 129.69"/>
      <text class="cls-28" transform="translate(334.46 95.51) rotate(60) scale(1 -1)"><tspan x="0" y="0">R</tspan></text>
    </g>
    <g>
      <polygon class="cls-17" points="404.65 143.86 380.1 129.69 380.1 101.34 404.65 87.17 429.19 101.34 429.19 129.69 404.65 143.86"/>
      <text class="cls-28" transform="translate(424.83 110.48) rotate(120) scale(1 -1)"><tspan x="0" y="0">R</tspan></text>
    </g>
    <g>
      <path class="cls-9" d="M101.66.5c10.18,0,19.36,4.29,25.82,11.17"/>
      <path class="cls-23" d="M126.25,10.36l1.5-3.94.14.05,1.76,6.07c.9,1.89,1.8,3.78,2.7,5.68-1.61-1.34-3.22-2.68-4.84-4.02l-5.45-3.21-.03-.13,4.21-.49Z"/>
    </g>
    <g>
      <path class="cls-4" d="M211.95,35.93c0,3.56-.52,7-1.5,10.24"/>
      <path class="cls-25" d="M210.96,44.44l4.16-.67.03.14-4.38,4.56c-1.19,1.73-2.38,3.45-3.57,5.18.36-2.07.71-4.13,1.07-6.2l.06-6.32.1-.09,2.53,3.4Z"/>
    </g>
    <path class="cls-15" d="M176.52.5c19.57,0,35.43,15.86,35.43,35.43"/>
    <g>
      <path class="cls-7" d="M288.05,35.93c0,16.78-11.66,30.83-27.33,34.5"/>
      <path class="cls-27" d="M262.47,69.99l2.67,3.27-.11.1-6.14-1.5c-2.09-.16-4.18-.33-6.27-.49,1.97-.73,3.93-1.46,5.9-2.19l5.5-3.12.13.04-1.67,3.89Z"/>
    </g>
    <path class="cls-8" d="M252.62.5c19.57,0,35.43,15.86,35.43,35.43"/>
    <g>
      <path class="cls-22" d="M364.08,38.35c-1.24,18.44-16.59,33.02-35.35,33.02-10.18,0-19.36-4.29-25.82-11.17"/>
      <path class="cls-26" d="M304.15,61.51l-1.5,3.94-.14-.05-1.77-6.07c-.9-1.89-1.8-3.78-2.7-5.68,1.61,1.34,3.22,2.68,4.84,4.02l5.45,3.2.03.13-4.21.49Z"/>
    </g>
    <path class="cls-18" d="M328.73.5c19.57,0,35.43,15.86,35.43,35.43,0,.81-.03,1.62-.08,2.41"/>
    <g>
      <path class="cls-3" d="M440.08,35.93c0,19.57-15.86,35.43-35.43,35.43s-35.43-15.86-35.43-35.43c0-3.56.53-7,1.5-10.24"/>
      <path class="cls-24" d="M370.2,27.42l-4.16.67-.03-.14,4.38-4.56c1.19-1.73,2.38-3.45,3.57-5.18-.36,2.07-.71,4.13-1.07,6.2l-.06,6.32-.1.09-2.53-3.4Z"/>
    </g>
    <path class="cls-16" d="M404.65.5c19.57,0,35.43,15.86,35.43,35.43"/>
    <line class="cls-6" x1="25.05" y1="150.95" x2="25.05" y2="80.08"/>
    <line class="cls-6" x1="83.95" y1="146.2" x2="119.38" y2="84.83"/>
    <line class="cls-6" x1="145.83" y1="133.23" x2="207.2" y2="97.8"/>
    <line class="cls-6" x1="217.19" y1="115.51" x2="288.05" y2="115.51"/>
    <line class="cls-6" x1="298.04" y1="97.8" x2="359.41" y2="133.23"/>
    <line class="cls-6" x1="386.93" y1="84.83" x2="422.36" y2="146.2"/>
  </g>
</svg>