<?xml version="1.0" encoding="UTF-8"?>
<svg id="_图层_2" data-name="图层_2" xmlns="http://www.w3.org/2000/svg" xmlns:xlink="http://www.w3.org/1999/xlink" viewBox="0 0 516.57 176.12">
  <defs>
    <style>
      .cls-1, .cls-2, .cls-3, .cls-4, .cls-5, .cls-6, .cls-7, .cls-8, .cls-9, .cls-10, .cls-11 {
        stroke-miterlimit: 10;
      }

      .cls-1, .cls-3, .cls-4, .cls-8, .cls-9, .cls-11 {
        fill: none;
      }

      .cls-1, .cls-3, .cls-11 {
        stroke: #9fa0a0;
        stroke-linecap: square;
      }

      .cls-12 {
        mask: url(#mask-1);
      }

      .cls-13 {
        font-family: TimesNewRomanPSMT, 'Times New Roman';
        font-size: 12px;
      }

      .cls-13, .cls-2 {
        fill: #231815;
      }

      .cls-14 {
        mask: url(#mask);
      }

      .cls-2, .cls-8 {
        stroke: #231815;
      }

      .cls-3 {
        stroke-dasharray: .02 10.52 .96 0;
      }

      .cls-4, .cls-7 {
        stroke: #f8b62d;
      }

      .cls-5 {
        fill: #22ac38;
      }

      .cls-5, .cls-9, .cls-10 {
        stroke: #009a3e;
      }

      .cls-6 {
        fill: #f7f8f8;
        stroke: #f7f8f8;
      }

      .cls-7 {
        fill: #f8b62d;
      }

      .cls-15 {
        fill: #9fa0a0;
      }

      .cls-10 {
        fill: #009a3e;
      }

      .cls-11 {
        stroke-dasharray: 10.53 .95 .02 10.52 .96 0;
      }

      .cls-16 {
        filter: url(#luminosity-noclip);
      }
    </style>
    <filter id="luminosity-noclip" x="161.66" y="1.71" width="167.87" height="173.3" color-interpolation-filters="sRGB" filterUnits="userSpaceOnUse">
      <feFlood flood-color="#fff" result="bg"/>
      <feBlend in="SourceGraphic" in2="bg"/>
    </filter>
    <filter id="luminosity-noclip-2" x="238.86" y="-8595.54" width="12.52" height="32766" color-interpolation-filters="sRGB" filterUnits="userSpaceOnUse">
      <feFlood flood-color="#fff" result="bg"/>
      <feBlend in="SourceGraphic" in2="bg"/>
    </filter>
    <mask id="mask-1" x="238.86" y="-8595.54" width="12.52" height="32766" maskUnits="userSpaceOnUse"/>
    <mask id="mask" x="161.66" y="1.71" width="167.87" height="173.3" maskUnits="userSpaceOnUse">
      <g class="cls-16">
        <g>
          <g class="cls-12">
            <circle cx="245.12" cy="7.96" r="6.26"/>
          </g>
          <circle cx="167.92" cy="68.76" r="6.26" transform="translate(-8.85 27.79) rotate(-9.22)"/>
          <circle cx="189.01" cy="114.89" r="6.26"/>
          <circle cx="245.28" cy="88.03" r="6.26"/>
          <circle cx="245.2" cy="168.74" r="6.26" transform="translate(-23.86 41.46) rotate(-9.22)"/>
          <circle cx="323.28" cy="107.45" r="6.26" transform="translate(-16.04 77.15) rotate(-13.28)"/>
          <circle cx="298.89" cy="63.32" r="6.26" transform="translate(42.77 229.89) rotate(-45)"/>
        </g>
      </g>
    </mask>
  </defs>
  <g id="_图层_1-2" data-name="图层_1">
    <g>
      <g class="cls-14">
        <g>
          <line class="cls-10" x1="245.44" y1="168.26" x2="245.28" y2="88.2"/>
          <line class="cls-5" x1="241.99" y1="90.03" x2="298.89" y2="63.32"/>
          <line class="cls-5" x1="167.92" y1="68.76" x2="245.28" y2="88.03"/>
          <polygon class="cls-8" points="323.28 107.45 189.01 114.89 167.92 68.76 298.89 63.32 323.28 107.45"/>
          <line class="cls-9" x1="245.28" y1="88.03" x2="245.12" y2="7.96"/>
          <line class="cls-2" x1="167.92" y1="68.76" x2="245.12" y2="7.96"/>
          <line class="cls-8" x1="298.89" y1="63.32" x2="245.12" y2="7.96"/>
          <line class="cls-8" x1="189.01" y1="114.89" x2="245.12" y2="7.96"/>
          <line class="cls-8" x1="323.28" y1="107.45" x2="245.12" y2="7.96"/>
          <line class="cls-8" x1="189.01" y1="114.89" x2="245.44" y2="168.26"/>
          <line class="cls-8" x1="323.28" y1="107.45" x2="245.44" y2="168.26"/>
          <line class="cls-8" x1="298.89" y1="63.32" x2="245.44" y2="168.26"/>
          <line class="cls-8" x1="167.92" y1="68.76" x2="245.44" y2="168.26"/>
          <line class="cls-5" x1="189.01" y1="114.89" x2="245.92" y2="88.18"/>
          <line class="cls-5" x1="245.92" y1="88.18" x2="323.28" y2="107.45"/>
        </g>
      </g>
      <text class="cls-13" transform="translate(241.62 92.63)"><tspan x="0" y="0">S</tspan></text>
      <text class="cls-13" transform="translate(165.35 72.61)"><tspan x="0" y="0">F</tspan></text>
      <text class="cls-13" transform="translate(187.13 118.51)"><tspan x="0" y="0">F</tspan></text>
      <text class="cls-13" transform="translate(242.36 172.44)"><tspan x="0" y="0">F</tspan></text>
      <text class="cls-13" transform="translate(296.74 67.55)"><tspan x="0" y="0">F</tspan></text>
      <text class="cls-13" transform="translate(318.36 112.06)"><tspan x="0" y="0">F</tspan></text>
    </g>
    <g>
      <path class="cls-7" d="M9.01,114.18s0,0,0,0l8.88-4.14c-2.94,1.36-5.9,2.74-8.88,4.13Z"/>
      <path class="cls-7" d="M17.89,110.05c14.24-6.59,28.1-12.87,42.59-19.85l-42.59,19.85Z"/>
      <path class="cls-4" d="M122.37,95.83c-16.21-2.35-32.27-5.7-48.54-7.67"/>
      <path class="cls-4" d="M66.28,33.74c-.41,15.84,1.05,31.67.79,47.51"/>
      <path class="cls-8" d="M10.12,117.86c27.25,7.54,55.25,13.54,83.08,19.24"/>
      <path class="cls-8" d="M102.92,132.99c7.28-10.38,14.86-20.54,22.29-30.81"/>
      <path class="cls-8" d="M10.18,115.53c37.19-6.12,75.19-12.12,112.48-17.91"/>
      <path class="cls-8" d="M7.98,110.44c13.57-20.77,28.93-40.28,43.04-60.67,4.04-5.84,7.98-11.75,11.75-17.76"/>
      <path class="cls-8" d="M124.51,91.66c-18.14-20.26-36.14-40.26-53.31-60.03"/>
      <path class="cls-8" d="M68.45,32.77c8.92,33.64,18.92,66.64,28.85,99.2"/>
      <text class="cls-13" transform="translate(63.19 92.45)"><tspan x="0" y="0">C</tspan></text>
      <text class="cls-13" transform="translate(62.77 31.63)"><tspan x="0" y="0">H</tspan></text>
      <text class="cls-13" transform="translate(122.66 100.13)"><tspan x="0" y="0">H</tspan></text>
      <text class="cls-13" transform="translate(93.2 141.65)"><tspan x="0" y="0">H</tspan></text>
      <text class="cls-13" transform="translate(0 120.69)"><tspan x="0" y="0">H</tspan></text>
      <path class="cls-4" d="M95.7,132.68c-7.87-13.1-16.31-25.86-24.39-38.83"/>
    </g>
    <g>
      <line class="cls-8" x1="441.15" y1="63.52" x2="441.15" y2="91.65"/>
      <g>
        <line class="cls-1" x1="441.15" y1="13.83" x2="441.15" y2="19.33"/>
        <line class="cls-3" x1="441.15" y1="20.28" x2="441.15" y2="31.78"/>
        <line class="cls-11" x1="441.15" y1="31.78" x2="441.15" y2="146.66"/>
        <line class="cls-1" x1="441.15" y1="146.66" x2="441.15" y2="152.16"/>
      </g>
      <polygon class="cls-8" points="441.15 91.65 381.43 98.09 366.69 112.56 408.01 124.17 474.28 124.17 515.61 112.56 500.86 98.09 441.15 91.65"/>
      <line class="cls-8" x1="366.69" y1="112.56" x2="441.15" y2="63.52"/>
      <line class="cls-8" x1="474.28" y1="124.17" x2="441.15" y2="63.52"/>
      <line class="cls-8" x1="408.01" y1="124.17" x2="441.15" y2="63.52"/>
      <line class="cls-8" x1="515.61" y1="112.56" x2="441.15" y2="63.52"/>
      <line class="cls-8" x1="500.86" y1="98.09" x2="441.15" y2="63.52"/>
      <line class="cls-8" x1="381.43" y1="98.09" x2="441.15" y2="63.52"/>
      <g>
        <path class="cls-1" d="M449.96,38.34c2.53,1.2,4.1,2.9,4.1,4.79,0,3.63-5.85,6.58-13.06,6.58s-13.06-2.95-13.06-6.58c0-2.73,3.29-5.06,7.98-6.06"/>
        <path class="cls-15" d="M450.77,38.73l1.64-1.33-.04-.06-3.16.12c-1.04-.13-2.08-.26-3.12-.39.89.55,1.78,1.11,2.67,1.66l2.38,2.08h.07s-.43-2.08-.43-2.08Z"/>
      </g>
    </g>
    <circle class="cls-6" cx="245.6" cy="7.59" r="7.09"/>
    <text class="cls-13" transform="translate(242.36 11.67)"><tspan x="0" y="0">F</tspan></text>
  </g>
</svg>