<?xml version="1.0" encoding="UTF-8" standalone="no"?>
<!-- Created with Inkscape (http://www.inkscape.org/) -->

<svg
   xmlns:svg="http://www.w3.org/2000/svg"
   xmlns="http://www.w3.org/2000/svg"
   version="1.1"
   width="234.21259"
   height="174.3307">
  <g>
    <path
       d="m 51.71875,17.78125 0,12.4375 1.625,0 0,-5.84375 6.5,0 0,5.84375 1.625,0 0,-12.4375 -1.625,0 0,5.125 -6.5,0 0,-5.125 -1.625,0 z M 206.8125,27.5 l 0,12.46875 1.65625,0 0,-5.875 6.46875,0 0,5.875 1.65625,0 0,-12.46875 -1.65625,0 0,5.125 -6.46875,0 0,-5.125 -1.65625,0 z M 61.59375,32.59375 A 1.0501311,1.0501311 0 0 0 60.875,34.125 L 75.59375,62.6875 57.5625,68.625 a 1.0501311,1.0501311 0 1 0 0.65625,1.96875 L 77.1875,64.375 a 1.0501311,1.0501311 0 0 0 0.125,-0.03125 l 0.03125,0 A 1.0501311,1.0501311 0 0 0 77.4375,64.3125 1.0501311,1.0501311 0 0 0 77.5625,64.25 1.0501311,1.0501311 0 0 0 77.90625,64 a 1.0501311,1.0501311 0 0 0 0.15625,-0.25 1.0501311,1.0501311 0 0 0 0.03125,-0.03125 1.0501311,1.0501311 0 0 0 0,-0.03125 1.0501311,1.0501311 0 0 0 0.03125,-0.0625 1.0501311,1.0501311 0 0 0 0,-0.03125 1.0501311,1.0501311 0 0 0 0.03125,-0.125 1.0501311,1.0501311 0 0 0 0,-0.0625 1.0501311,1.0501311 0 0 0 0,-0.03125 1.0501311,1.0501311 0 0 0 0,-0.0625 1.0501311,1.0501311 0 0 0 0,-0.03125 1.0501311,1.0501311 0 0 0 0,-0.09375 1.0501311,1.0501311 0 0 0 0,-0.03125 1.0501311,1.0501311 0 0 0 -0.03125,-0.0625 1.0501311,1.0501311 0 0 0 0,-0.03125 A 1.0501311,1.0501311 0 0 0 78.09375,63 a 1.0501311,1.0501311 0 0 0 0,-0.03125 1.0501311,1.0501311 0 0 0 -0.03125,-0.0625 1.0501311,1.0501311 0 0 0 0,-0.03125 1.0501311,1.0501311 0 0 0 -0.03125,-0.03125 1.0501311,1.0501311 0 0 0 -0.0625,-0.15625 1.0501311,1.0501311 0 0 0 -0.0625,-0.09375 L 62.75,33.15625 a 1.0501311,1.0501311 0 0 0 -1.15625,-0.5625 z M 204.46875,39.5 a 1.0501311,1.0501311 0 0 0 -0.625,0.3125 l -26.46875,27.65625 -19,6.25 a 1.0524571,1.0524571 0 1 0 0.65625,2 l 19,-6.25 0.1875,-0.0625 a 1.0501311,1.0501311 0 0 0 0.25,-0.125 1.0501311,1.0501311 0 0 0 0.0312,0 1.0501311,1.0501311 0 0 0 0.0312,-0.03125 1.0501311,1.0501311 0 0 0 0.0625,-0.03125 1.0501311,1.0501311 0 0 0 0,-0.03125 1.0501311,1.0501311 0 0 0 0.0625,-0.0625 1.0501311,1.0501311 0 0 0 0.15625,-0.15625 L 205.375,41.28125 A 1.0501311,1.0501311 0 0 0 204.46875,39.5 z M 77.0625,67.03125 a 1.0501311,1.0501311 0 0 0 -0.28125,0.0625 l -14.125,4.3125 a 1.0501311,1.0501311 0 1 0 0.59375,2 l 14.15625,-4.3125 a 1.0501311,1.0501311 0 0 0 -0.34375,-2.0625 z m 94.375,6.84375 a 1.0501311,1.0501311 0 0 0 -0.1875,0.0625 l -12.15625,3.5 a 1.0581252,1.0581252 0 1 0 0.59375,2.03125 L 171.84375,75.9375 A 1.0510644,1.0510644 0 1 0 171.4375,73.875 z"
       style="fill:#191919" />
    <path
       d="m 76.9375,62.5 a 0.80008001,0.80008001 0 0 0 -0.375,1.40625 L 114.875,96.875 a 0.80661934,0.80661934 0 0 0 0.0312,0.0625 l -1.96875,7.625 1.65625,0.0625 1.84375,-7.15625 14.59375,0.75 1.5,-1.5 -16.34375,-0.84375 -0.0625,-0.03125 -38.5,-33.125 A 0.80008001,0.80008001 0 0 0 77.03125,62.5 a 0.80008001,0.80008001 0 0 0 -0.09375,0 z m 100.78125,5.09375 a 0.80008001,0.80008001 0 0 0 -0.53125,0.4375 l -15.6875,30.1875 -21.53125,-1.125 -1.53125,1.53125 23.21875,1.1875 21.0625,22.5625 a 0.80008001,0.80008001 0 1 0 1.15625,-1.09375 L 162.96875,98.875 178.625,68.78125 a 0.80008001,0.80008001 0 0 0 -0.8125,-1.1875 0.80008001,0.80008001 0 0 0 -0.0937,0 z m -58.03125,23.75 a 0.80008001,0.80008001 0 0 0 -0.0937,0.03125 0.8006955,0.8006955 0 0 0 -0.0937,0 0.80661934,0.80661934 0 1 0 0.25,1.59375 l 15.6875,0.84375 1.5,-1.5 -17.09375,-0.9375 a 0.80008001,0.80008001 0 0 0 -0.15625,-0.03125 z m 24.65625,1.375 -1.5,1.5 15.3125,0.84375 a 0.80008001,0.80008001 0 1 0 0.0937,-1.59375 l -13.90625,-0.75 z m -34,22.03125 -0.4375,1.6875 a 0.80343501,0.80343501 0 1 0 1.5625,0.375 l 0.5,-1.96875 -1.625,-0.0937 z m -7.46875,3.71875 0,12.46875 1.65625,0 0,-5.875 6.46875,0 0,5.875 1.65625,0 0,-12.46875 -1.65625,0 0,5.125 -6.46875,0 0,-5.125 -1.65625,0 z m 83.125,5.125 0,12.4375 1.65625,0 0,-5.84375 6.46875,0 0,5.84375 1.65625,0 0,-12.4375 -1.65625,0 0,5.125 -6.46875,0 0,-5.125 -1.65625,0 z"
       style="fill:#323232" />
    <path
       d="m 17.625,27.46875 0,12.46875 1.65625,0 0,-5.875 6.46875,0 0,5.875 1.65625,0 0,-12.46875 -1.65625,0 0,5.125 -6.46875,0 0,-5.125 -1.65625,0 z m 157.59375,8.71875 0,12.46875 1.65625,0 0,-5.875 6.46875,0 0,5.875 1.625,0 0,-12.46875 -1.625,0 0,5.125 -6.46875,0 0,-5.125 -1.65625,0 z M 30.1875,41.3125 a 1.0501311,1.0501311 0 0 0 -0.125,0.03125 1.0501311,1.0501311 0 0 0 -0.5,1.8125 L 56.4375,69.625 a 1.450145,1.450145 0 0 0 0.125,0.53125 l 15.875,39.71875 -22.40625,28.0625 a 1.450145,1.450145 0 1 0 2.25,1.78125 l 22.46875,-28.125 44.34375,2.3125 L 124.75,141.5 a 1.4525368,1.4525368 0 1 0 2.84375,-0.59375 L 121.875,112.96875 159.71875,75.75 a 1.450145,1.450145 0 0 0 0.46875,-1.4375 L 174.21875,51.84375 A 1.0501311,1.0501311 0 0 0 173.1875,50.25 a 1.0501311,1.0501311 0 0 0 -0.71875,0.5 l -14.09375,22.53125 -0.0312,0 a 1.450145,1.450145 0 0 0 -0.65625,0.40625 l -37.96875,37.34375 -44.625,-2.3125 L 59.25,69.0625 A 1.450145,1.450145 0 0 0 57.875,68.125 L 31.03125,41.65625 A 1.0501311,1.0501311 0 0 0 30.1875,41.3125 z M 81.125,104.25 a 1.450145,1.450145 0 0 0 0.15625,2.875 l 35.40625,1.8125 a 1.4544685,1.4544685 0 1 0 0.125,-2.90625 L 81.40625,104.25 a 1.450145,1.450145 0 0 0 -0.28125,0 z m -40.8125,37.46875 0,12.4375 1.65625,0 0,-5.84375 6.46875,0 0,5.84375 1.65625,0 0,-12.4375 -1.65625,0 0,5.125 -6.46875,0 0,-5.125 -1.65625,0 z m 82.34375,2.375 0,12.46875 1.65625,0 0,-5.875 6.46875,0 0,5.875 1.65625,0 0,-12.46875 -1.65625,0 0,5.125 -6.46875,0 0,-5.125 -1.65625,0 z"
       style="fill:#000000" />
  </g>
</svg>
